<svg id="Layer_1" xmlns="http://www.w3.org/2000/svg" viewBox="0 0 210 100"><style>.st0{fill:#bbbbba}</style><path class="st0" d="M37.2 24.7c-6.7 0-13.1 2.7-17.8 7.5C14.6 36.9 12 43.3 12 50s2.7 13.1 7.5 17.8c4.8 4.8 11.1 7.4 17.8 7.4 6.7 0 13.1-2.7 17.8-7.5 4.8-4.8 7.4-11.1 7.4-17.9 0-13.7-11.4-25.1-25.3-25.1zm-17 42.4c-4.6-4.5-7.1-10.6-7.1-17.1s2.5-12.5 7.1-17.1c4.5-4.6 10.6-7.1 17.1-7.1 13.3 0 24.2 10.8 24.2 24.1 0 6.5-2.5 12.5-7.1 17.1-4.5 4.5-10.6 7.1-17.1 7.1-6.5.1-12.5-2.5-17.1-7z"/><path class="st0" d="M26.1 50.4C26 44.7 30.5 40 36 39.3V27.7c-11.8.6-21.2 10.4-21.2 22.3 0 12 9.4 21.7 21.2 22.3V61.5c-5.5-.5-9.9-5.3-9.9-11.1zM38.5 27.6v11.6c5.6.6 9.9 5.3 9.9 11.1s-4.3 10.5-9.9 11.1v10.7c11.7-.5 21-10.3 21-22.2.2-11.9-9.2-21.6-21-22.3z"/><circle class="st0" cx="37.3" cy="44.3" r="2.6"/><path class="st0" d="M42.7 48H31.8c-.7 0-1.3.6-1.3 1.3s.6 1.3 1.3 1.3h1.9c.2 0 .4.1.5.2.2.2.2.4.2.5l-.5 5.4c-.1.7.4 1.4 1.2 1.4.7.1 1.3-.4 1.4-1.2l.3-2.9s0-.4.5-.4c.4 0 .4.4.5.4l.2 3c.1.7.7 1.2 1.4 1.2.7-.1 1.2-.7 1.2-1.4l-.6-5.5c0-.1 0-.4.2-.5.1-.1.4-.2.5-.2h1.9c.7 0 1.3-.6 1.3-1.3.1-.7-.5-1.3-1.2-1.3z"/><g><path class="st0" d="M69.4 66.5s0-.1 0 0l.7-4h-.4c0-.2.1-.4.1-.4h2c0 .2-.1.4-.1.4h-.5l-.3 1.6H73l.3-1.7h-.5c0-.2.1-.4.1-.4h2c0 .2-.1.4-.1.4h-.4l-.7 3.9h.3c0 .2-.1.4-.1.4h-2c0-.2.1-.4.1-.4h.5l.1-.1.3-1.8h-2.1l-.4 1.8h.6c0 .2-.1.4-.1.4h-2c0-.2.1-.4.1-.4l.4.3zM74.7 66.1c0-.5.3-1.3.8-1.9.4-.4.9-.6 1.2-.6.6 0 1 .4 1 .9-.1.3-.2.6-.4.7-.4.2-1 .3-1.7.3-.1.2-.1.4-.1.4 0 .4.2.5.5.5s.8-.1 1.2-.4c.1.1.1.3.1.4-.4.3-1.1.5-1.7.5-.4.1-.9-.2-.9-.8zm1.8-2c-.2 0-.4.1-.4.3-.1.2-.3.4-.4.8.4 0 .7 0 1-.2.2-.1.3-.2.3-.4-.1-.3-.2-.5-.5-.5zM78.6 62.2v-.4c.8-.1 1.2-.2 1.3-.2.1 0 .2.1.3.3-.3 1.1-.9 3.9-1.1 4.6v.1c.1 0 .4 0 .6-.1 0 .2.1.3.1.4-.4.1-.8.2-1.2.2 0 0-.3-.2-.3-.3.2-.8.8-3.5 1-4.5l-.7-.1zM81.8 64.6c.6-.8 1.1-1.1 1.5-1.1.2 0 .4.3.6.5 0 .1.1.2.1.3 0 .4-.1 1.1-.4 1.5-.1.5-.6 1.2-1.3 1.2-.3 0-.5-.1-.8-.3l-.4 2h-.8c.3-1.4.6-3.3.9-4.6h-.6v-.4c.8-.1 1.1-.2 1.1-.2.1 0 .3.1.3.3-.1.2-.2.6-.2.8zm1.5-.1c0-.2-.1-.4-.3-.4-.4 0-1.2.9-1.3 1.3 0 .2-.1.5-.2.7.2.2.4.3.6.3.4 0 .6-.3.8-.6.2-.3.4-.8.4-1.3zM84.8 64.3v-.4l1.2-.2c.1 0 .3.2.3.3-.2.7-.5 2.3-.6 2.7v.1c.1 0 .3 0 .5-.1 0 .2.1.3.1.4-.4.1-.7.2-1.2.2-.1 0-.3-.2-.3-.3.2-.8.4-1.8.5-2.5l-.5-.2zm1.3-2.2c.4 0 .4.3.4.4 0 .3-.3.5-.5.5-.3 0-.5-.3-.5-.4.1-.4.2-.5.6-.5zM87.2 64.3v-.4c.5-.1 1.1-.3 1.2-.3s.2.1.3.2c0 .2-.1.4-.2.7h.1c.6-.7 1.2-1 1.5-1 .2 0 .4.2.5.4 0 .1.1.2.1.3 0 .4-.3 1.2-.5 2.2v.1c.1 0 .3 0 .5-.1 0 .2 0 .3.1.4-.4.1-.8.2-1.2.2-.1 0-.2-.1-.3-.3.1-.4.4-1.2.4-1.5.1-.2.2-.6.2-.8 0-.1-.1-.3-.2-.3-.4 0-1.2.8-1.3 1.2-.1.3-.3 1.1-.4 1.3h-.8c.2-.7.4-2 .6-2.8l-.6.5zM91.6 65.3c0-.7.5-1.6 1.7-1.6.3 0 .4 0 .5.1H95v.4h-.7c.1.1.1.3.1.5 0 .4-.1.7-.3 1-.2.3-.7.7-1.5.6-.2.1-.4.3-.4.4 0 .2.4.2 1 .3.4 0 .7.1.9.2s.4.4.4.6c0 .5-.6 1.2-2.1 1.2-.9 0-1.5-.3-1.5-.8 0-.2 0-.4.2-.4.3-.2.4-.3.8-.4v-.1c-.3-.1-.4-.3-.4-.5 0-.1.1-.2.6-.5v-.1c-.2-.2-.5-.5-.5-.9zm2.1 2.5c0-.3-.2-.3-.6-.4-.2 0-.5-.1-.7-.1-.4.3-.6.4-.6.6 0 .3.4.4.8.4.6.2 1.1 0 1.1-.5zm-1.2-2.5c0 .4.2.5.4.5.4 0 .7-.6.7-1.3 0-.2 0-.4-.1-.4-.1-.2-.2-.2-.4-.2-.3.1-.6.7-.6 1.4zM99.9 61.7c.2 0 .4.1.5.1 0 .2-.3.5-.4.6-.1 0-.4-.2-.6-.2-.1 0-.3.1-.4.2-.2.3-.3.5-.4 1.2h1.1c0 .2-.1.4-.1.5h-1.1c-.3 1.2-.5 2.6-.8 4.1h-.8c.3-1.4.5-2.8.8-4.1h-.6c0-.2.1-.4.1-.4h.5s.1 0 .1-.1c.2-.7.3-1.1.7-1.4.5-.3.9-.5 1.4-.5zM101.9 66.1c-.7.7-1.2.9-1.4 1-.2 0-.4-.2-.6-.4-.1-.1-.1-.2-.1-.4 0-.3.1-.7.3-1.1.3-.6.8-1.6 1.6-1.6.3 0 .5.1.8.4h.1l.2-.4c.2.1.4.1.6.2-.2.7-.5 2-.7 2.8v.1c.1 0 .3 0 .4-.1 0 .2.1.3.1.4-.4.1-.8.2-1.1.2 0 0-.2-.1-.3-.2 0-.3.1-.6.1-.9zm-.3-1.9c-.4 0-.6.4-.8.8-.2.4-.3.9-.3 1.2 0 .2.1.3.2.3.3 0 1.1-.7 1.2-1.1.1-.2.2-.6.3-.9-.1-.2-.3-.3-.6-.3zM103.9 64.3v-.4c.6-.1 1.1-.2 1.2-.2.1 0 .2.1.3.2 0 .2-.1.4-.2.7h.1c.5-.7 1.2-1 1.4-1 .2 0 .4.2.5.4 0 .1.1.2.1.2 0 .1 0 .2-.1.4h.1c.5-.7 1.1-.9 1.3-1 .2 0 .4.2.5.4 0 .1.1.2.1.3 0 .4-.2 1.2-.5 2.2v.1c.1 0 .3 0 .5-.1 0 .2.1.3.1.4-.4.1-.7.2-1.2.2l-.3-.3c.1-.4.3-1.1.4-1.4.1-.2.2-.6.2-.9 0-.1-.1-.2-.2-.2-.4 0-1.1.9-1.2 1.3s-.3.9-.4 1.3h-.7c.1-.4.4-1.3.4-1.7.1-.2.2-.7.2-.9 0-.1-.1-.2-.2-.2-.4 0-1.1.9-1.2 1.3-.1.3-.3 1.1-.4 1.3h-.8c.2-.7.4-2 .6-2.8l-.6.4zM110.1 64.3v-.4l1.2-.2c.1 0 .3.2.3.3-.2.7-.5 2.3-.6 2.7v.1c.1 0 .3 0 .5-.1 0 .2.1.3.1.4-.4.1-.7.2-1.2.2-.1 0-.3-.2-.3-.3.2-.8.4-1.8.5-2.5l-.5-.2zm1.3-2.2c.4 0 .4.3.4.4 0 .3-.3.5-.5.5s-.5-.3-.5-.4c.1-.4.2-.5.6-.5zM112.7 62.2v-.4c.8-.1 1.2-.2 1.3-.2.1 0 .2.1.3.3-.3 1.1-.9 3.9-1.1 4.6v.1c.1 0 .4 0 .6-.1 0 .2.1.3.1.4-.4.1-.8.2-1.2.2 0 0-.3-.2-.3-.3.2-.8.8-3.5 1-4.5l-.7-.1zM114.8 64.3v-.4l1.2-.2c.1 0 .3.2.3.3-.2.7-.5 2.3-.6 2.7v.1c.1 0 .3 0 .5-.1 0 .2.1.3.1.4-.4.1-.7.2-1.2.2-.1 0-.3-.2-.3-.3.2-.8.4-1.8.5-2.5l-.5-.2zm1.3-2.2c.4 0 .4.3.4.4 0 .3-.3.5-.5.5s-.5-.3-.5-.4c.1-.4.2-.5.6-.5zM117.1 66.1c0-.5.3-1.3.8-1.9.4-.4.9-.6 1.2-.6.6 0 1 .4 1 .9-.1.3-.2.6-.4.7-.4.2-1 .3-1.7.3-.1.2-.1.4-.1.4 0 .4.2.5.5.5s.8-.1 1.2-.4c.1.1.1.3.1.4-.4.3-1.1.5-1.7.5-.4.1-.9-.2-.9-.8zm1.7-2c-.2 0-.4.1-.4.3-.1.2-.3.4-.4.8.4 0 .7 0 1-.2.2-.1.3-.2.3-.4-.1-.3-.2-.5-.5-.5zM122.7 64.3s0-.1 0 0c-.2-.2-.3-.2-.4-.2-.1 0-.3 0-.4.1-.1.1-.3.2-.3.4 0 .3.3.4.5.4.5.2.8.4.8.9s-.2.7-.5 1c-.2.1-.5.2-1.1.2-.4 0-.7-.1-.9-.2 0-.4 0-.7.1-1h.4l.1.5s0 .1.1.1c.1.1.3.1.4.1.2 0 .4 0 .4-.1.1-.1.2-.2.2-.4 0-.3-.2-.4-.5-.5-.4-.2-.9-.4-.9-.9 0-.4.4-.8.6-.9.3-.1.6-.2 1-.2s.6.1.8.2c0 .3-.1.6-.1.9h-.4l.1-.4zM124.6 66.1c.4 0 .4.3.4.4 0 .3-.3.5-.5.5-.3 0-.4-.2-.4-.4 0-.3.2-.5.5-.5zM127.7 66.5s.1 0 0 0l.7-4h-.4c0-.2.1-.4.1-.4h1.3c.5 0 .8 0 1.2.2.5.2.8.7.8 1.2 0 .8-.5 1.3-1.1 1.6-.4.2-.7.2-1.1.2h-.4l-.3 1.3h.8c0 .2-.1.4-.1.4h-2.1c0-.2.1-.4.1-.4l.5-.1zm1.3-2c0 .1.2.1.4.1.3 0 .5-.1.7-.2.4-.2.5-.5.5-1.1s-.3-1-.9-1h-.3l-.4 2.2zM132.1 64.3v-.4c.6-.1 1.1-.2 1.2-.2s.2.2.3.3c0 .2-.1.5-.2.9h.1c.4-.7.9-1.2 1.2-1.2.2 0 .4.1.4.1 0 .3-.2.8-.3.8-.1 0-.3-.1-.4-.1-.3 0-1 .8-1.2 1.3-.1.3-.2.8-.3 1.2h-.8c.2-.6.4-2 .6-2.8l-.6.1zM138.3 64.8c0 .7-.4 1.4-.8 1.9-.3.3-.6.4-1.2.4-.5 0-.8-.2-.9-.4-.1-.1-.3-.4-.3-.7 0-.8.4-1.5.8-1.9.4-.4.7-.4 1.2-.4.4 0 .7.2.9.4.1 0 .3.3.3.7zm-1.9 1.8c.2 0 .4-.1.5-.3.2-.3.4-1.1.4-1.6 0-.2 0-.4-.1-.4-.1-.1-.2-.2-.4-.2s-.4.1-.5.4c-.2.3-.4.9-.4 1.6 0 .2 0 .4.1.5.1-.1.3 0 .4 0zM140.1 66.2c0 .2.1.3.4.3s.5-.1.9-.1v.4c-.4.2-1 .3-1.3.3-.2 0-.5-.2-.6-.5v-.2c0-.2.2-1.1.2-1.2.1-.3.2-.8.2-1h-.6c0-.2.1-.4.1-.4h.5s.1 0 .1-.1c.1-.3.1-.4.2-.7.3-.1.6-.2.8-.2-.1.2-.2.6-.2.9h1.2c0 .2-.1.4-.1.5h-1.2c0 .2-.1.5-.2.8-.3.3-.4 1-.4 1.2zM142 66.1c0-.5.3-1.3.8-1.9.4-.4.9-.6 1.2-.6.6 0 1 .4 1 .9-.1.3-.2.6-.4.7-.4.2-1 .3-1.7.3-.1.2-.1.4-.1.4 0 .4.2.5.5.5s.8-.1 1.2-.4c.1.1.1.3.1.4-.4.3-1.1.5-1.7.5-.4.1-.9-.2-.9-.8zm1.8-2c-.2 0-.4.1-.4.3-.1.2-.3.4-.4.8.4 0 .7 0 1-.2.2-.1.3-.2.3-.4-.1-.3-.3-.5-.5-.5zM145.6 66c0-.4.2-1.2.7-1.8.4-.4.9-.5 1.4-.5.4 0 .5.1.6.2 0 .2-.3.5-.4.6-.1 0-.4-.3-.6-.3-.2 0-.4.1-.5.3-.3.4-.4.9-.4 1.3s.2.7.5.7.6-.1.9-.3c.1.1.1.3.1.4-.4.2-.9.4-1.3.4s-1-.3-1-1zM149.9 66.2c0 .2.1.3.4.3.3 0 .5-.1.9-.1v.4c-.4.2-1 .3-1.3.3-.2 0-.5-.2-.6-.5v-.2c0-.2.2-1.1.2-1.2.1-.3.2-.8.2-1h-.6c0-.2.1-.4.1-.4h.5s.1 0 .1-.1c.1-.3.1-.4.2-.7.3-.1.6-.2.8-.2-.1.2-.2.6-.2.9h1.2c0 .2-.1.4-.1.5h-1.2c0 .2-.1.5-.2.8-.2.3-.4 1-.4 1.2zM152 64.3v-.4l1.2-.2c.1 0 .3.2.3.3-.2.7-.5 2.3-.6 2.7v.1c.1 0 .3 0 .5-.1 0 .2.1.3.1.4-.4.1-.7.2-1.2.2-.1 0-.3-.2-.3-.3.2-.8.4-1.8.5-2.5l-.5-.2zm1.4-2.2c.4 0 .4.3.4.4 0 .3-.3.5-.5.5-.3 0-.5-.3-.5-.4 0-.4.2-.5.6-.5zM154.4 64.3v-.4c.5-.1 1.1-.3 1.2-.3s.2.1.3.2c0 .2-.1.4-.2.7h.1c.6-.7 1.2-1 1.5-1 .2 0 .4.2.5.4 0 .1.1.2.1.3 0 .4-.3 1.2-.5 2.2v.1c.1 0 .3 0 .5-.1 0 .2 0 .3.1.4-.4.1-.7.2-1.2.2-.1 0-.2-.1-.3-.3.1-.4.4-1.2.4-1.5.1-.2.2-.6.2-.8 0-.1-.1-.3-.2-.3-.4 0-1.2.8-1.3 1.2-.1.3-.3 1.1-.4 1.3h-.8c.2-.7.4-2 .6-2.8l-.6.5zM158.9 65.3c0-.7.5-1.6 1.7-1.6.3 0 .4 0 .5.1H162.3v.4h-.7c.1.1.1.3.1.5 0 .4-.1.7-.3 1s-.7.7-1.5.6c-.2.1-.4.3-.4.4 0 .2.4.2 1 .3.4 0 .7.1.9.2s.4.4.4.6c0 .5-.6 1.2-2.1 1.2-.9 0-1.5-.3-1.5-.8 0-.2 0-.4.2-.4.3-.2.4-.3.8-.4v-.1c-.3-.1-.4-.3-.4-.5 0-.1.1-.2.6-.5v-.1c-.3-.2-.5-.5-.5-.9zm2.1 2.5c0-.3-.2-.3-.6-.4-.2 0-.5-.1-.7-.1-.4.3-.6.4-.6.6 0 .3.4.4.8.4.6.2 1.1 0 1.1-.5zm-1.2-2.5c0 .4.2.5.4.5.4 0 .7-.6.7-1.3 0-.2 0-.4-.1-.4-.1-.2-.2-.2-.4-.2-.4.1-.6.7-.6 1.4zM164.3 66c0-.4.2-1.2.7-1.8.4-.4.9-.5 1.4-.5.4 0 .5.1.6.2 0 .2-.3.5-.4.6-.1 0-.4-.3-.6-.3-.2 0-.4.1-.5.3-.3.4-.4.9-.4 1.3s.2.7.5.7.6-.1.9-.3c.1.1.1.3.1.4-.4.2-.9.4-1.3.4-.5 0-1-.3-1-1zM167.8 62.2v-.4c.6-.1 1.2-.3 1.3-.3s.2.1.3.3l-.7 2.8h.1c.6-.8 1.2-1 1.5-1 .2 0 .4.2.5.4.1.1.1.2.1.3 0 .4-.2 1.2-.5 2.2v.1c.1 0 .3 0 .4-.1 0 .2.1.3.1.4-.4.1-.8.2-1.2.2-.1 0-.3-.2-.3-.3.1-.4.4-1.2.4-1.4.1-.2.2-.6.2-.8 0-.1-.1-.3-.2-.3-.4 0-1.2.8-1.3 1.2-.1.3-.3 1.1-.4 1.4h-.8c.2-.7.9-3.7 1.1-4.7h-.6zM171.8 64.3v-.4l1.2-.2c.1 0 .3.2.3.3-.2.7-.5 2.3-.6 2.7v.1c.1 0 .3 0 .5-.1 0 .2.1.3.1.4-.4.1-.7.2-1.2.2-.1 0-.3-.2-.3-.3.2-.8.4-1.8.5-2.5l-.5-.2zm1.4-2.2c.4 0 .4.3.4.4 0 .3-.3.5-.5.5-.3 0-.5-.3-.5-.4-.1-.4.2-.5.6-.5zM174.4 62.2v-.4c.8-.1 1.2-.2 1.3-.2s.2.1.3.3c-.3 1.1-.9 3.9-1.1 4.6v.1c.1 0 .4 0 .6-.1 0 .2.1.3.1.4-.4.1-.8.2-1.2.2 0 0-.3-.2-.3-.3.2-.8.8-3.5 1-4.5l-.7-.1zM178.6 66.1c-.5.6-1.2 1-1.4 1-.2 0-.4-.2-.6-.4-.1-.1-.1-.3-.1-.4 0-.3.1-.7.3-1.2.3-.6.8-1.5 1.6-1.5.4 0 .6.1.7.3h.1c.1-.5.3-1.2.4-1.6h-.7v-.4c.8-.1 1.2-.2 1.3-.2s.2.1.3.3c-.1.5-.9 4.1-1.1 4.6v.1c.1 0 .3 0 .4-.1 0 .2.1.3.1.4-.4.1-.7.2-1.1.2 0 0-.2-.1-.3-.2 0-.3.1-.5.1-.9zm-1.2.3c.4 0 1.1-.8 1.2-1.2.1-.2.2-.6.2-.9-.2-.2-.4-.3-.5-.3-.4 0-.7.4-.8.9-.2.4-.3.8-.3 1.2 0 .2.1.3.2.3zM180.7 64.3v-.4c.6-.1 1.1-.2 1.2-.2s.2.2.3.3c0 .2-.1.5-.2.9h.1c.4-.7.9-1.2 1.2-1.2.2 0 .4.1.4.1 0 .3-.2.8-.3.8s-.3-.1-.4-.1c-.3 0-1 .8-1.2 1.3-.1.3-.2.8-.3 1.2h-.8c.2-.6.4-2 .6-2.8l-.6.1zM183.7 66.1c0-.5.3-1.3.8-1.9.4-.4.9-.6 1.2-.6.6 0 1 .4 1 .9-.1.3-.2.6-.4.7-.4.2-1 .3-1.7.3-.1.2-.1.4-.1.4 0 .4.2.5.5.5s.8-.1 1.2-.4c.1.1.1.3.1.4-.4.3-1.1.5-1.7.5-.4.1-.9-.2-.9-.8zm1.8-2c-.2 0-.4.1-.4.3-.1.2-.3.4-.4.8.4 0 .7 0 1-.2.2-.1.3-.2.3-.4-.2-.3-.2-.5-.5-.5zM187.4 64.3v-.4c.5-.1 1.1-.3 1.2-.3s.2.1.3.2c0 .2-.1.4-.2.7h.1c.6-.7 1.2-1 1.5-1 .2 0 .4.2.5.4 0 .1.1.2.1.3 0 .4-.3 1.2-.5 2.2v.1c.1 0 .3 0 .5-.1 0 .2 0 .3.1.4-.4.1-.7.2-1.2.2-.1 0-.2-.1-.3-.3.1-.4.4-1.2.4-1.5.1-.2.2-.6.2-.8 0-.1-.1-.3-.2-.3-.4 0-1.2.8-1.3 1.2-.1.3-.3 1.1-.4 1.3h-.8c.2-.7.4-2 .6-2.8l-.6.5zM192.3 66.1c.4 0 .4.3.4.4 0 .3-.3.5-.5.5s-.4-.2-.4-.4c0-.3.3-.5.5-.5z"/></g><g><path class="st0" d="M74.9 43.3c-.3 1.7-1.4 2.8-3.1 2.8-2.3 0-3.4-2.1-3.4-4.3 0-2 1.1-4.3 3.4-4.3 1.7 0 2.8 1 3.1 2.7l-1.6.2c-.2-.9-.5-1.6-1.5-1.6-1.4 0-1.7 1.9-1.7 2.9 0 1.1.3 2.9 1.7 2.9 1 0 1.3-.8 1.5-1.6l1.6.3zM82.9 45.8h-1.7l-.5-2h-2.4l-.5 2h-1.7l2.3-8.2h2.2l2.3 8.2zM79.4 39l-.9 3.5h1.8l-.9-3.5zM86.5 37.6L89 43v-5.4h1.7v8.2h-1.8l-3.1-6.6v6.6h-1.7v-8.2h2.4zM98.9 45.8h-1.7l-.5-2h-2.4l-.5 2H92l2.3-8.2h2.2l2.4 8.2zM95.4 39l-.9 3.5h1.8l-.9-3.5zM102.2 37.6c3.1 0 4.3 1.8 4.3 4.1s-1.2 4.1-3.6 4.1h-2.6v-8.2h1.9zm.4 6.8c1.3 0 2.1-.8 2.1-2.9 0-1.7-.7-2.5-2.3-2.5h-.6v5.4h.8zM108.2 45.7v-8.2h1.7v8.2h-1.7zM118 45.7h-1.7l-.5-2h-2.4l-.5 2h-1.7l2.3-8.2h2.2l2.3 8.2zm-3.4-6.7l-.9 3.5h1.8l-.9-3.5zM121.7 37.6l2.5 5.4v-5.4h1.7v8.2h-1.8l-3.1-6.6v6.6h-1.7v-8.2h2.4zM137.7 43.2c-.3 1.7-1.4 2.8-3.1 2.8-2.3 0-3.4-2.1-3.4-4.3 0-2 1.1-4.3 3.4-4.3 1.7 0 2.8 1 3.1 2.7l-1.6.2c-.2-.9-.5-1.6-1.5-1.6-1.4 0-1.7 1.9-1.7 2.9 0 1.1.3 2.9 1.7 2.9 1 0 1.3-.8 1.5-1.6l1.6.3zM144.6 38.9h-3.5v2h2.8v1.4h-2.8v2h3.6v1.4h-5.3v-8.2h5.1l.1 1.4zM149 37.5l2.5 5.4v-5.4h1.7v8.2h-1.8l-3.1-6.6v6.6h-1.7v-8.2h2.4zM160.6 38.9h-2.1v6.8h-1.7v-6.8h-2.1v-1.4h5.9v1.4zM165.3 37.5c1.9 0 2.7 1.3 2.7 2.4 0 .9-.5 1.7-1.4 2l1.6 3.7h-1.7l-1.5-3.4h-1.2v3.4H162v-8.2h3.3zm-.9 3.4c.7 0 1.8 0 1.8-1 0-1.2-1.1-1.1-2-1.1h-.6v2h.8zM174.7 38.9h-3.5v2h2.8v1.4h-2.8v2h3.6v1.4h-5.3v-8.2h5.1l.1 1.4zM182.3 38.1c.3 0 .5.1.7.2 0 .3-.4.8-.5.9-.1-.1-.5-.3-.8-.3-.2 0-.4.1-.6.3-.3.3-.4.8-.5 1.6h1.4c0 .2-.1.5-.2.7h-1.4c-.4 1.7-.7 3.5-1.2 5.6h-1.1c.4-2 .8-3.8 1.1-5.6h-.8c0-.2.1-.4.2-.6h.8s.1 0 .1-.1c.2-1 .4-1.4.9-2 .7-.5 1.3-.7 1.9-.7zM186.8 42.4c0 1-.4 2-1.2 2.5-.4.4-.9.5-1.6.5-.7 0-1.1-.3-1.2-.5-.2-.2-.4-.5-.4-1 0-1.1.4-2 1.1-2.6.5-.4 1.1-.6 1.7-.6.6 0 1 .2 1.2.5.2.2.4.6.4 1.2zm-2.5 2.4c.3 0 .5-.2.7-.4.3-.4.6-1.4.5-2.2 0-.3 0-.4-.1-.6-.1-.2-.3-.3-.4-.3-.3 0-.5.1-.8.4-.3.4-.6 1.2-.6 2.1 0 .3 0 .5.1.7.2.2.5.3.6.3zM188.3 41.6V41c.8-.1 1.5-.3 1.5-.3.1 0 .3.2.4.3-.1.3-.2.7-.3 1.2h.1c.6-1 1.2-1.6 1.6-1.6.3 0 .4.1.6.2 0 .4-.3 1.1-.4 1.2-.1 0-.4-.1-.5-.1-.4 0-1.3 1.1-1.5 1.9l-.4 1.6h-1.1c.2-.9.6-2.7.8-3.8h-.8z"/><g><path class="st0" d="M75.9 55.6c-.3 2-1.6 3.1-3.5 3.1-2.7 0-3.9-2.5-3.9-4.9 0-2.4 1.2-4.9 3.9-4.9 2 0 3.3 1.2 3.5 3.1l-1.8.3c-.2-1-.6-1.9-1.8-1.9-1.6 0-2 2.1-2 3.4 0 1.2.4 3.4 2 3.4 1.2 0 1.6-.9 1.8-1.9l1.8.3zM83 52.7v-3.6h1.9v9.5H83v-4.2h-3.1v4.2H78v-9.5h1.9v3.7l3.1-.1zM87.1 58.5v-9.4h2v9.5l-2-.1zM93.1 56.9H97v1.6h-5.9v-9.4H93l.1 7.8zM101.3 49.1c3.6 0 4.9 2 4.9 4.7s-1.4 4.7-4.3 4.7H99v-9.4h2.3zm.5 7.8c1.5 0 2.4-1 2.4-3.4 0-2-.9-2.9-2.7-2.9h-.7v6.2l1 .1zM115.6 49.1c2.2 0 3.1 1.6 3.1 3s-.9 2.8-3.5 2.8H114v3.6h-2V49h3.6zm-1.4 4.2c1.1 0 2.5.2 2.5-1.3s-1.5-1.3-2.5-1.3h-.4v2.7h.4zM124.3 49.1c2.2 0 3 1.6 3 2.8 0 1.1-.6 2-1.6 2.4l1.9 4.3h-2l-1.7-3.9h-1.4v3.9h-1.9v-9.5h3.7zm-1 3.9c.8 0 2.1.1 2.1-1.2s-1.2-1.2-2.2-1.2h-.7V53h.8zM136.3 53.8c0 2.4-1.2 4.9-3.9 4.9s-3.9-2.5-3.9-4.9c0-2.4 1.2-4.9 3.9-4.9 2.8 0 3.9 2.5 3.9 4.9zm-5.8 0c0 1.2.4 3.4 2 3.4s2-2.1 2-3.4-.4-3.4-2-3.4c-1.7 0-2 2.2-2 3.4zM144 50.7h-2.5v7.8h-1.9v-7.8h-2.5v-1.6h6.8v1.6zM151.5 50.7h-4v2.2h3.3v1.6h-3.3v2.4h4.3v1.6h-6.1v-9.4h5.9v1.6h-.1zM160.8 55.6c-.3 2-1.6 3.1-3.5 3.1-2.7 0-3.9-2.5-3.9-4.9 0-2.4 1.2-4.9 3.9-4.9 2 0 3.3 1.2 3.5 3.1l-1.8.3c-.2-1-.6-1.9-1.8-1.9-1.6 0-2 2.1-2 3.4 0 1.2.4 3.4 2 3.4 1.2 0 1.6-.9 1.8-1.9l1.8.3zM168.9 50.7h-2.5v7.8h-1.9v-7.8H162v-1.6h6.8l.1 1.6zM170.6 58.5v-9.4h1.9v9.5l-1.9-.1zM182.4 53.8c0 2.4-1.2 4.9-3.9 4.9s-3.9-2.5-3.9-4.9c0-2.4 1.2-4.9 3.9-4.9s3.9 2.5 3.9 4.9zm-5.9 0c0 1.2.4 3.4 2 3.4s2-2.1 2-3.4-.4-3.4-2-3.4-2 2.2-2 3.4zM186.7 49.1l2.8 6.2v-6.2h1.9v9.5h-2l-3.5-7.6v7.6H184v-9.5h2.7z"/></g><g><path class="st0" d="M195.7 49.6h-.5v1.7h-.4v-1.7h-.5v-.4h1.4v.4zM197.4 49.2h.6v2h-.4v-1.6l-.4 1.6h-.4l-.4-1.6v1.6h-.4v-2h.6l.3 1.4.5-1.4z"/></g></g></svg>