<svg id="Layer_1" xmlns="http://www.w3.org/2000/svg" viewBox="0 0 210 100"><style>.st0{fill:#bbbbba}</style><path class="st0" d="M34.1 36.2l17.6-9.6s1-.3.4.4c-13.9 12.4-5.4 32.9 5.5 33.9.4 0 .5.3.2.4l-7.2 3.9s-.7.4-1.3.1c-5.3-2.2-9.6-5.6-12.5-9.6.9-3.6.8-7.4-.4-11.2l-3.9-2.1c0-1.8.4-3.5.8-5.3.3-.6.8-.9.8-.9z"/><path class="st0" d="M36.9 55.6c-1.8 7.3-7.6 13.9-16 17.6-1.1.5-1.5.1-1.5.1l-7-3.8s-.9-.5 0-.5c10.8-1 19.3-21.1 6.2-33.5-.7-.7.4-.5.4-.5l13.6 7.4c-.1 4.7 1.5 9.3 4.3 13.2zM164.1 50.5c-1.3.4-2.5 1-3.4 1.5-1.7 1.1-2.6 2.2-2.6 3.6 0 1.1.4 1.9 1.1 2.4.4.4 1 .5 1.5.5.8 0 1.5-.2 2.2-.6.7-.4 1.1-1 1.1-1.7l.1-5.7zm-6.4 2.1c1.1-.7 3.3-1.7 6.6-2.9v-1.5c0-1.2-.1-2-.4-2.6-.4-.8-1.2-1.2-2.5-1.2-.6 0-1.2.2-1.7.4-.5.4-.8.8-.8 1.3 0 .2 0 .4.1.7.1.4.1.5.1.6 0 .7-.2 1.2-.6 1.4-.3.2-.5.3-.9.3-.5 0-1-.2-1.2-.5-.3-.4-.4-.7-.4-1.2 0-.8.5-1.7 1.5-2.6 1.1-.9 2.6-1.3 4.5-1.3 2.3 0 3.9.7 4.7 2.2.4.8.6 2 .6 3.5v8.3c0 .9.7 1.9 1.9 1.9.9 0 1.9-.7 1.9-1.9v2.6h-1.2c-1 0-1.7.4-3 .4-.8 0-1.4-.4-1.8-.9-.4-.5-.5-1.2-.6-1.9-.9.8-1.7 1.3-2.3 1.8-1.1.6-2.1 1-3.1 1-1.1 0-1.9-.4-2.7-1.1-.7-.7-1.2-1.6-1.2-2.7-.2-1.6.7-3 2.5-4.1zM77 36.5c1.4.4 2.1.6 2.3.6.4 0 .7-.1 1-.3.3-.2.5-.4.6-.9h.8l.4 8.1h-.8c-.4-1.6-1.2-2.9-1.9-3.9-1.5-1.9-3.5-2.8-6-2.8-2.6 0-4.6 1-6.3 3-1.6 2-2.4 4.8-2.4 8.3 0 3.3.9 5.8 2.6 7.8 1.7 1.9 3.9 2.9 6.5 2.9 1.9 0 3.6-.4 5.2-1.3.9-.5 1.9-1.2 3-2.3l.7.7c-.8 1.1-1.8 1.9-3 2.7-2 1.3-4.2 1.9-6.6 1.9-3.9 0-7-1.2-9.3-3.7-2.1-2.3-3.2-5.2-3.2-8.7 0-3.5 1.2-6.6 3.4-8.9 2.4-2.6 5.4-3.8 9.2-3.8 1.1-.1 2.5.1 3.8.6zM94.7 59.9c.9-.1 1.5-.3 1.9-.4.4-.4.7-.4.7-1.4v-9.9c0-.9-.1-1.4-.4-1.7-.3-.3-.6-.4-1.2-.4h-.5c-.1 0-.3.1-.4.1v-.5l1.2-.4c.4-.2 1.2-.4 2.3-.8 1.1-.4 1.6-.6 1.7-.6s.1 0 .1.1v2.8c1.2-1.1 2.2-1.8 3-2.2.9-.4 1.8-.6 2.7-.6 1.2 0 2.2.4 2.9 1.2.4.4.7 1.1 1 1.9.9-.9 1.7-1.5 2.3-1.9 1.2-.7 2.3-1.1 3.5-1.1 1.9 0 3.2.8 3.8 2.3.4.9.5 2.3.5 4.2v7.3c0 .9.2 1.4.5 1.7.4.3 1.1.5 2 .6v.4h-8.1v-.5c1.1-.1 1.7-.3 2-.6.4-.4.5-1 .5-1.9v-7.7c0-1.2-.1-2-.4-2.6-.4-1-1.3-1.4-2.6-1.4-.8 0-1.5.3-2.3.8-.4.3-1 .8-1.6 1.4v9.1c0 1 .2 1.7.5 2.2.4.5 1.1.8 2.1.8v.4h-8.1v-.4c1.2-.2 1.9-.4 2.1-.8.3-.4.4-1.4.4-3v-5c0-1.9-.1-3.1-.4-3.8-.4-1.2-1.2-1.8-2.5-1.8-.7 0-1.4.2-2.1.6-.7.4-1.3.9-1.9 1.5v9.7c0 .9.2 1.5.4 1.9.4.4 1 .5 2 .5v.4h-8.1c.5-.1.5-.5.5-.5zM119.7 37.7v-.6c1.3-.3 2.6-.6 3.6-1.1 1.1-.4 1.7-.5 1.8-.5v11c.3-.5.8-1.2 1.4-1.6 1.1-.9 2.4-1.3 3.8-1.3 1.8 0 3.2.7 4.4 2.2s1.9 3.4 1.9 5.8c0 2.5-.8 4.7-2.4 6.5-1.6 1.8-3.7 2.7-6.3 2.7-1.3 0-2.6-.3-3.9-.8-1.2-.5-1.9-1.1-1.9-1.6V39.6c0-.7-.1-1.2-.3-1.4-.2-.3-.6-.4-1.3-.4h-.8zm6.7 21.4c.8.3 1.5.4 2.1.4 1.7 0 2.9-.6 3.7-1.9s1.2-2.7 1.2-4.5-.4-3.4-1.2-4.9c-.7-1.5-1.9-2.3-3.6-2.3-.9 0-1.7.3-2.5.8s-1.2 1.2-1.2 1.9v9c.2.8.6 1.3 1.5 1.5z"/><path class="st0" d="M136.1 59.7c1.1-.1 1.8-.3 2.2-.5.4-.3.5-.9.5-1.9v-8.1c0-1.2-.1-2-.4-2.5-.2-.5-.6-.8-1.2-.8-.1 0-.3 0-.4.1-.2 0-.4.1-.6.1v-.6c.7-.3 1.3-.4 2.1-.7.7-.3 1.2-.4 1.5-.5.6-.3 1.2-.4 1.9-.8.1 0 .1 0 .2.1v3.3c.8-1.1 1.5-1.9 2.2-2.5.7-.6 1.4-.9 2.2-.9.6 0 1.1.2 1.5.5.4.4.5.8.5 1.3 0 .4-.2.9-.4 1.2s-.6.5-1.1.5-.9-.2-1.3-.6-.8-.6-1.1-.6c-.4 0-.9.4-1.5 1-.6.7-.9 1.3-.9 2v8.1c0 1.1.3 1.8.7 2.1.4.4 1.2.5 2.4.5v.6h-8.8v-.6h-.2z"/><path class="st0" d="M146.6 59.8c1.2-.1 2-.4 2.4-.6.4-.4.5-1.2.5-2.6v-8.5c0-.8-.1-1.3-.2-1.6-.2-.4-.5-.7-1.2-.7h-.4c-.1 0-.4.1-1.1.3v-.5l.8-.3c2-.7 3.5-1.2 4.3-1.5.4-.2.5-.2.6-.2v13c0 1.3.2 2.2.4 2.6.4.4 1.1.5 2.2.6v.5h-8.6v-.5zM169.5 59.8c.9-.1.4-.4.8-.6.4-.4.5-1.1.5-2.1v-8.9c0-.8-.1-1.3-.2-1.6-.3-.4-.7-.7-1.4-.7h-.4c-.1 0-.3 0-.4.1v-.6c.4-.2 1.6-.5 3.5-1.1l1.7-.5c.1 0 .1 0 .2.1v3c1.1-1.1 1.9-1.7 2.6-2.1.9-.6 1.9-.9 2.9-.9.8 0 1.5.3 2.2.7 1.2.9 1.9 2.5 1.9 4.8v8.3c0 .9.2 1.5.5 1.9.4.4.9.5 1.7.6v.5H178V60c.9-.1 1.5-.4 1.8-.7.4-.4.5-1.2.5-2.4v-7.6c0-1.1-.2-1.9-.5-2.6-.4-.7-1.1-1-2.1-1-.7 0-1.4.3-2.1.7-.4.3-.9.7-1.6 1.3v10c0 .9.2 1.4.5 1.7.4.3 1 .4 1.8.4v.5h-6.7l-.1-.5zM90.6 50.5c-1.3.4-2.5 1-3.4 1.5-1.7 1.1-2.6 2.2-2.6 3.6 0 1.1.4 1.9 1.1 2.4.4.4 1 .5 1.5.5.8 0 1.5-.2 2.2-.6.7-.4 1.1-1 1.1-1.7l.1-5.7zM84 52.6c1.1-.7 3.3-1.7 6.6-2.9v-1.5c0-1.2-.1-2-.4-2.6-.4-.8-1.2-1.2-2.5-1.2-.6 0-1.2.2-1.7.4-.5.4-.8.8-.8 1.3 0 .2 0 .4.1.7.1.4.1.5.1.6 0 .7-.2 1.2-.6 1.4-.3.2-.5.3-.9.3-.5 0-1-.2-1.2-.5-.3-.4-.4-.7-.4-1.2 0-.8.5-1.7 1.5-2.6 1.1-.9 2.6-1.3 4.5-1.3 2.3 0 3.9.7 4.7 2.2.4.8.6 2 .6 3.5v8.3c0 .9.7 1.9 1.9 1.9.9 0 1.9-.7 1.9-1.9v2.6h-1.2c-1 0-1.7.4-3 .4-.8 0-1.4-.4-1.8-.9-.4-.5-.5-1.2-.6-1.9-.9.8-1.7 1.3-2.3 1.8-1.1.6-2.1 1-3.1 1-1.1 0-1.9-.4-2.7-1.1-.7-.7-1.2-1.6-1.2-2.7-.1-1.6.8-3 2.5-4.1z"/><g><path class="st0" d="M109.8 65.7c-.2-.7-.3-1.1-.6-1.5-.5-.6-1.3-.9-2.1-.9-1.9 0-3.2 1.5-3.2 3.9 0 2.5 1.2 4 3.2 4 1.1 0 1.8-.4 2.3-1.2.3-.4.4-.8.5-1.4l-1.4-.2c-.2 1.1-.6 1.6-1.4 1.6-1.1 0-1.7-1-1.7-2.8 0-1.8.6-2.7 1.8-2.7.7 0 1.2.6 1.4 1.5l1.2-.3zM113.4 63.4V71h1.4v-3.3h1.1l1.5 3.4h1.5l-1.6-3.6c.9-.4 1.4-1 1.4-1.9 0-.9-.5-1.6-1.2-1.9-.4-.2-.7-.3-1.8-.3h-2.3zm1.3 3.2v-2h.9c.4 0 .7.1 1 .1.4.1.5.5.5 1 0 .4-.2.7-.4.8-.3.2-.4.2-1 .2 0-.1-1-.1-1-.1zM122.2 63.4v7.7h4.9v-1.2h-3.5v-2.2h2.7v-1.1h-2.7v-2.1h3.4v-1.1zM130.6 63.4V71h2.1c1.2 0 1.7-.1 2.2-.5.9-.6 1.4-1.9 1.4-3.3 0-1.5-.5-2.7-1.5-3.4-.6-.4-.8-.4-2.4-.4h-1.8zm1.4 1.1h.5c.6 0 1.2.1 1.4.3.6.4.9 1.2.9 2.3 0 1.9-.6 2.7-2.3 2.7h-.6l.1-5.3zM139.9 63.4h1.4V71h-1.4zM144.5 63.4v1.2h2.1v6.5h1.4v-6.5h2.2v-1.2zM159.9 63.4h-1.4v4.7c0 1.3.1 1.7.5 2.2s1.2.9 2 .9c1 0 1.9-.4 2.3-1.1.4-.4.4-1.1.4-1.9v-4.8h-1.4v4.8c0 .4 0 .8-.1 1.1-.1.5-.5.8-1.2.8-.5 0-1-.3-1.2-.7-.1-.4-.2-.4-.2-1.2l.3-4.8zM173.5 63.4h-1.3v3.9c0 .4.1 1 .1 1.6-.2-.6-.3-1-.5-1.4l-2-4.1h-2V71h1.3v-5c0-.8 0-1-.1-1.2.2.4.2.5.4 1.1l2.7 5.2h1.4v-7.7zM177.5 63.4h1.4V71h-1.4zM185.6 63.3c-1.9 0-3.1 1.5-3.1 4.1 0 2.4 1.2 3.8 3.1 3.8 1.2 0 2.1-.5 2.6-1.6.3-.7.4-1.5.4-2.4 0-2.4-1.2-3.9-3-3.9zm-.1 1.1c1.1 0 1.6 1 1.6 2.8 0 1.8-.5 2.7-1.7 2.7-1.1 0-1.6-.9-1.6-2.7.1-1.8.7-2.8 1.7-2.8zM198 63.4h-1.3v3.9c0 .4.1 1 .1 1.6-.2-.6-.3-1-.5-1.4l-2-4.1h-2V71h1.3v-5c0-.8 0-1-.1-1.2.2.4.2.5.4 1.1l2.7 5.2h1.4v-7.7z"/></g><path d="M36.9 55.6c-2.8-4-4.4-8.6-4.3-13.3l3.9 2.1c1.2 3.8 1.3 7.6.4 11.2z" fill="#adadad"/></svg>