<svg id="Layer_1" xmlns="http://www.w3.org/2000/svg" viewBox="0 0 210 100"><style>.st0{fill:#bbbbba}</style><path class="st0" d="M66.2 38.5c.8 0 1.4-.5 1.5-1.2v-.1h-.6v.1c-.1.5-.5.6-.9.6-1.1 0-1.2-1.2-1.2-1.7s.1-1.7 1.2-1.7c.2 0 .8.1.8.6v.1h.6v-.1c-.1-.9-.8-1.2-1.5-1.2-1.4 0-1.9 1.2-1.9 2.2.2 1.2.7 2.4 2 2.4zM69.3 36.7l.7-1.8.7 1.8h-1.4zm2.1 1.7h.6l-1.7-4.2v-.1h-.6L68 38.4h.6l.4-1.1h1.9l.5 1.1zM73.1 35.2l2 3.2h.7v-4.3h-.6v3.3l-2.1-3.3h-.6v4.3h.6v-3.2zM77.6 36.7l.7-1.8.7 1.8h-1.4zm2 1.7h.7l-1.7-4.2v-.1H78l-1.7 4.3h.6l.4-1.1h1.9l.4 1.1zM82.1 37.8h-.7v-3.2h.6c1.1 0 1.6.5 1.6 1.6s-.5 1.6-1.5 1.6zm2.1-1.5c0-1.4-.8-2.2-2.2-2.2h-1.2v4.3H82c1.4 0 2.2-.8 2.2-2.1zM85.1 38.4h.7v-4.3h-.7v4.3zM87.6 36.7l.7-1.8.7 1.8h-1.4zm1.7.6l.4 1.1h.7l-1.7-4.2v-.1H88l-1.7 4.3h.7l.4-1.1h1.9zM91.4 35.2l2 3.2h.7v-4.3h-.6v3.3l-2.1-3.3h-.6v4.3h.6v-3.2zM97.5 35.1l1.4 3.3h.5l1.4-3.3v3.3h.6v-4.3h-.7l-1.5 3.4-1.5-3.4h-.8v4.3h.6v-3.3zM104.1 38.5c1 0 1.6-.6 1.6-1.6v-2.8h-.6v2.8c0 .7-.4 1.1-1 1.1s-1-.4-1-1.1v-2.8h-.6v2.8c0 1 .6 1.6 1.6 1.6zM108.1 37.9c-.8 0-.9-.4-.9-.7v-.1h-.6v.1c0 .7.6 1.3 1.3 1.3 1.1 0 1.7-.5 1.7-1.3s-.7-1.1-1.3-1.3c-.6-.2-1-.4-1-.8s.5-.6.8-.6c.5 0 .8.2.8.5v.1h.7V35c-.1-1-1.1-1.1-1.5-1.1-.7 0-1.4.4-1.4 1.2 0 .9.9 1.2 1.5 1.4.1 0 .2 0 .2.1.4.1.6.3.6.6 0 .5-.5.7-.9.7zM113.2 37.8h-2.1v-1.3h2v-.6h-2v-1.2h2v-.6h-2.6v4.3h2.7v-.6zM115.7 38.5c1 0 1.6-.6 1.6-1.6v-2.8h-.6v2.8c0 .7-.4 1.1-1 1.1s-1-.4-1-1.1v-2.8h-.6v2.8c0 1 .6 1.6 1.6 1.6zM119 35.1l1.4 3.3h.5l1.4-3.3v3.3h.6v-4.3h-.8l-1.5 3.4-1.4-3.4h-.8v4.3h.6v-3.3zM126.3 36.5h1.9v-.6h-1.9v-1.2h2v-.6h-2.6v4.3h.6v-1.9zM130.8 34.6c1 0 1.3.9 1.3 1.7 0 .8-.3 1.7-1.3 1.7s-1.3-.9-1.3-1.7c0-.8.4-1.7 1.3-1.7zm0 3.9c1.2 0 1.9-.9 1.9-2.2 0-1.4-.7-2.2-1.9-2.2s-1.9.9-1.9 2.2c0 1.3.8 2.2 1.9 2.2zM134.2 34.7h.9c.5 0 .8.1.8.6s-.4.6-1 .6h-.7v-1.2zm1.7 2.8c0 .3 0 .6.2.9v.1h.7l-.1-.2c-.1-.2-.1-.4-.2-.7v-.4c0-.3-.1-.7-.5-.9.4-.2.6-.5.6-.9s-.2-.8-.5-1c-.3-.2-.7-.2-1-.2h-1.5v4.3h.6v-1.9h.9c.7-.1.7-.1.8.9zM101.4 48.1v-6h-.7v2.5h-2.9v-2.5H97v6h.8v-2.7h2.9v2.7h.7zM106.6 45.9c0 1-.6 1.6-1.5 1.6s-1.4-.6-1.5-1.6V42h-.8v4c0 1.4.9 2.3 2.2 2.3 1.4 0 2.2-.9 2.2-2.3v-3.9h-.8v3.8h.2zM108.9 48.1h.7v-4.8l2 4.8h.7l2.1-4.8v4.8h.7v-6h-1l-2.1 4.8-2.1-4.8h-1v6zM117.5 45.8l1.1-2.8 1.1 2.8h-2.2zm-.9 2.3l.6-1.6h2.7l.6 1.6h.8l-2.4-6h-.8l-2.4 6h.9zM122.8 43.4l2.9 4.7h.9v-6h-.8v4.8l-2.9-4.8h-.9v6h.8v-4.7zM133.7 43.7c0 .8-.7.9-1.5.9h-1v-1.8h1.3c.7 0 1.2.2 1.2.9zm.8 3.2c0-.2 0-.4-.1-.6-.1-.5-.2-1-.7-1.3.5-.2.8-.7.8-1.2 0-.6-.2-1.1-.7-1.3-.5-.3-.9-.3-1.4-.3h-2v6h.8v-2.8h1.3c1 0 1 .2 1.1 1.4 0 .4.1.8.2 1.2v.1h.9l-.1-.2c-.1-.2-.1-.5-.1-1zM136 48.1h.8v-6h-.8v6zM142.8 47.8v-2.9h-2.2v.7h1.4v1.6c-.4.1-.8.2-1.2.2-1.7 0-2.1-1.3-2.1-2.4 0-1.1.5-2.4 1.8-2.4.6 0 1.2.3 1.3 1v.1h.8v-.1c-.1-1.1-1.2-1.7-2.2-1.7-1.8 0-2.6 1.6-2.6 3.1 0 1.9 1 3.1 2.6 3.1 1 .1 1.7 0 2.4-.3zM145 45.4h2.9v2.7h.8v-6h-.8v2.5H145v-2.5h-.8v6h.8v-2.7zM149.5 42.8h1.9v5.3h.7l.1-5.3h1.8v-.7h-4.5v.7zM158.7 46.5c0-1.1-1-1.5-1.8-1.7-.8-.2-1.4-.5-1.4-1.2 0-.6.7-.9 1.2-.9s1.1.1 1.1.8v.1h.8v-.1c-.2-1.3-1.5-1.5-2-1.5-1 0-2 .6-2 1.7 0 1.2 1.2 1.6 2.1 1.9.1 0 .2.1.3.1.6.2.8.5.8.9 0 .6-.7 1-1.3 1-.9 0-1.3-.3-1.3-1v-.1h-.8v.1c0 1 .8 1.8 1.8 1.8 1.6-.2 2.5-.8 2.5-1.9zM66.8 59.1l-1.4-3.3h-.8v4.3h.6v-3.3l1.3 3.3h.6l1.3-3.3v3.3h.7v-4.3h-.8l-1.5 3.3zM72.7 58.5c0 .7-.4 1.1-1 1.1s-1-.4-1-1.1v-2.8h-.6v2.8c0 1 .6 1.6 1.6 1.6s1.6-.6 1.6-1.6v-2.8h-.6v2.8zM75.9 57.6c-.6-.2-1-.4-1-.8s.5-.6.8-.6c.3 0 .8.1.8.5v.1h.7v-.1c-.1-1-1.1-1.1-1.5-1.1-.7 0-1.4.4-1.4 1.2 0 .9.9 1.2 1.5 1.4.1 0 .1 0 .2.1.4.1.6.3.6.6 0 .4-.4.7-.9.7-.8 0-.9-.4-.9-.7v-.1h-.6v.1c0 .7.6 1.3 1.3 1.3 1.1 0 1.7-.5 1.7-1.3s-.7-1-1.3-1.3zM78.8 55.3h.6l.9-1.1h-.8l-.7 1.1zM78.7 58.2h2v-.6h-2v-1.2h2.1v-.6h-2.7v4.3h2.8v-.6h-2.2v-1.3zM82.4 58.2h2v-.6h-2v-1.2h2v-.6h-2.6v4.3h2.7v-.6h-2.1v-1.3zM89.7 59c-.1.5-.5.6-.9.6-1.1 0-1.2-1.2-1.2-1.7s.1-1.7 1.2-1.7c.2 0 .8.1.8.6v.1h.6v-.1c-.1-.9-.8-1.2-1.5-1.2-1.4 0-1.9 1.2-1.9 2.2 0 1.1.5 2.2 1.9 2.2.8 0 1.4-.5 1.5-1.2v-.1l-.5.3zM91.9 58.4l.7-1.8.7 1.8h-1.4zm.4-2.6l-1.7 4.3h.6l.4-1.1h1.9l.4 1.1h.7l-1.7-4.3h-.6zM98.4 60.1v-4.3h-.6v3.3l-2.1-3.3h-.6v4.3h.6v-3.2l2.1 3.2h.6zM100.2 58.4l.7-1.8.7 1.8h-1.4zm1-2.6h-.6l-1.7 4.3h.6l.5-1.1h1.9l.4 1.1h.7l-1.8-4.3zM104.7 59.5h-.7v-3.2h.6c1.1 0 1.6.5 1.6 1.6s-.5 1.6-1.5 1.6zm2.1-1.6c0-1.4-.8-2.2-2.2-2.2h-1.2V60h1.2c1.4.1 2.2-.7 2.2-2.1zM108.4 55.8h-.6v4.3h.6v-4.3zM112.2 56.4v-.6h-2.7v4.3h2.8v-.6h-2.2v-1.3h2v-.6h-2v-1.2h2.1zM115.8 59.1l-2.1-3.3h-.6v4.3h.6v-3.2l2 3.1.1.1h.6v-4.3h-.6v3.3zM121.5 57.1c0 .3-.1.7-.9.7h-.8v-1.4h.8c.8 0 .9.4.9.7zm-1-1.3h-1.2v4.3h.6v-1.8h.6c1.1 0 1.7-.5 1.7-1.3 0-.5-.3-1.2-1.7-1.2zM124.7 59.6c-1 0-1.3-.9-1.3-1.7 0-.8.3-1.7 1.3-1.7s1.3.9 1.3 1.7c0 .8-.4 1.7-1.3 1.7zm0-3.9c-1.2 0-1.9.9-1.9 2.2 0 1.4.7 2.2 1.9 2.2s1.9-.9 1.9-2.2c0-1.3-.7-2.2-1.9-2.2zM130.6 58.5v-2.8h-.6v2.8c0 .7-.4 1.1-1 1.1s-1-.4-1-1.1v-2.8h-.6v2.8c0 1 .6 1.6 1.6 1.6 1 .1 1.6-.5 1.6-1.6zM132.1 56.4h.9c.5 0 .8.1.8.6s-.4.6-1 .6h-.7v-1.2zm2.3 2.8v-.4c0-.3-.1-.7-.5-.9.4-.2.6-.5.6-.9s-.2-.8-.5-1c-.4-.2-.7-.2-1-.2h-1.5v4.3h.6v-1.9h.9c.6 0 .7.1.8 1 0 .3 0 .6.1.9v.1h.7l-.1-.2c0-.2 0-.4-.1-.8zM137.9 55.8h-.6v4.3h2.6v-.6h-2v-3.7zM143.4 59.5h-2.1v-1.3h1.9v-.6h-1.9v-1.2h2v-.6h-2.7v4.3h2.8v-.6zM145.8 57.6c-.6-.2-1-.4-1-.8s.5-.6.8-.6c.3 0 .8.1.8.5v.1h.7v-.1c-.1-1-1.1-1.1-1.5-1.1-.7 0-1.4.4-1.4 1.2 0 .9.9 1.2 1.5 1.4.1 0 .1 0 .2.1.4.1.6.3.6.6 0 .4-.4.7-.9.7-.8 0-.9-.4-.9-.7v-.1h-.6v.1c0 .7.6 1.3 1.3 1.3 1.1 0 1.7-.5 1.7-1.3s-.7-1-1.3-1.3zM98.7 69.2h-1v-4.6H98.5c1.6 0 2.4.8 2.4 2.3 0 1.5-.7 2.3-2.2 2.3zm-.1-5.3h-1.7v6h1.7c2 0 3.1-1.1 3.1-3 0-2-1.1-3-3.1-3zM106.3 65.5c0 .8-.7.9-1.5.9h-1v-1.8h1.3c.7 0 1.2.1 1.2.9zm.7 3.2c0-.2 0-.4-.1-.6-.1-.5-.2-1-.7-1.3.5-.2.8-.7.8-1.2 0-.6-.2-1.1-.7-1.3-.5-.3-.9-.3-1.4-.3h-2v6h.8v-2.8h1.3c1 0 1 .2 1.1 1.4 0 .4.1.8.2 1.2v.1h.9l-.1-.2c-.1-.2-.1-.5-.1-1zM110.9 69.3c-1.4 0-1.9-1.2-1.9-2.4s.5-2.4 1.9-2.4 1.9 1.2 1.9 2.4c0 1.1-.5 2.4-1.9 2.4zm0-5.6c-1.7 0-2.7 1.2-2.7 3.1 0 1.9 1 3.1 2.7 3.1 1.7 0 2.7-1.2 2.7-3.1 0-1.9-1-3.1-2.7-3.1zM114.9 69.9h.8v-6.1h-.8v6.1zM116.5 64.6h1.9v5.3h.8v-5.3h1.8v-.7h-4.5v.7zM123.9 66.5c-.8-.2-1.4-.5-1.4-1.2 0-.6.7-.9 1.2-.9s1.1.1 1.1.8v.1h.8v-.1c-.2-1.3-1.5-1.5-2-1.5-1 0-2 .6-2 1.7 0 1.2 1.2 1.6 2.1 1.9.1 0 .2.1.3.1.6.2.8.5.8.9 0 .6-.7 1-1.3 1-.9 0-1.3-.3-1.3-1v-.1h-.8v.1c0 1 .8 1.8 1.8 1.8 1.5 0 2.4-.6 2.4-1.8.1-1.2-.9-1.5-1.7-1.8zM131 69.2h-1v-4.6H130.8c1.6 0 2.4.8 2.4 2.3 0 1.5-.8 2.3-2.2 2.3zm-.1-5.3h-1.7v6h1.7c2 0 3.1-1.1 3.1-3 0-2-1.1-3-3.1-3zM136 67.2h2.8v-.8H136v-1.8h2.9v-.7h-3.7v6h3.8v-.7h-3v-2zM143.4 63.9h-.8v6h3.7v-.7h-2.9v-5.3zM150.6 67.6h-2.2l1.1-2.8 1.1 2.8zm-.7-3.7h-.8l-2.4 6h.8l.6-1.6h2.7l.6 1.6h.8l-2.3-6zM157.1 66.6H156v-2.1h1.1c.9 0 1.3.3 1.3 1 0 .8-.4 1.1-1.3 1.1zm-.3-2.7h-1.7v6h.8v-2.5h.9c1.5 0 2.4-.6 2.4-1.8 0-1.1-.8-1.7-2.4-1.7zM161 67.2h2.8v-.8H161v-1.8h2.9v-.7h-3.7v6h3.8v-.7h-3v-2zM168.6 65.5c0 .8-.7.9-1.5.9h-1v-1.8h1.3c.7 0 1.2.1 1.2.9zm.7 3.2c0-.2 0-.4-.1-.6-.1-.5-.2-1.1-.7-1.3.5-.2.8-.7.8-1.2 0-.6-.2-1.1-.7-1.3-.5-.3-1-.3-1.4-.3h-2v6h.8v-2.8h1.3c1 0 1 .2 1.1 1.4 0 .4.1.8.2 1.2v.1h.9l-.1-.2c0-.2-.1-.5-.1-1zM172.8 66.5c-.8-.2-1.4-.5-1.4-1.2 0-.6.7-.9 1.2-.9s1.1.1 1.1.8v.1h.8v-.1c-.2-1.3-1.5-1.5-2-1.5-1 0-2 .6-2 1.7 0 1.2 1.2 1.6 2.1 1.9.1 0 .2.1.3.1.6.2.8.5.8.9 0 .6-.7 1-1.3 1-.9 0-1.3-.3-1.3-1v-.1h-.8v.1c0 1 .8 1.7 1.8 1.7 1.5 0 2.4-.6 2.4-1.8.1-1.1-.8-1.4-1.7-1.7zM178.2 69.3c-1.4 0-1.9-1.2-1.9-2.4s.5-2.4 1.9-2.4 1.9 1.2 1.9 2.4c0 1.1-.5 2.4-1.9 2.4zm0-5.6c-1.7 0-2.7 1.2-2.7 3.1 0 1.9 1 3.1 2.7 3.1 1.7 0 2.7-1.2 2.7-3.1 0-1.9-1-3.1-2.7-3.1zM185.9 68.7l-2.9-4.8h-.9v6h.8v-4.7l2.9 4.6v.1h.9v-6h-.8v4.8zM191.9 68.7l-3-4.8h-.8v6h.7v-4.7l2.9 4.6.1.1h.8v-6h-.7v4.8zM194.9 69.2v-2h2.8v-.8h-2.8v-1.8h2.9v-.7h-3.7v6h3.8v-.7h-3zM54.1 60.9c-.1-1-.4-6.6-.6-7.2-.2-.5-.5-1.1-1-1.2-.1-.1-.3-.1-.8-.1-.1 0-.1-.4-.1-.5v-1.1c0-.9-.1-1-.1-1.9v-1c0-.4-.1-1.6-.2-2.1v-.2s-.5-.9-2.7-2.1h-.1l-1.4-.5-4-1c-.4-.2-.8-.4-1.1-.6-.3-.1-1-.6-1.1-.8-.1-.4 0-.5 0-1 0-.3.1-.6.1-.9 0-.2.1-1 .1-1.4 0-.4 0-.3-.1-.9 0-.3 0-.3-.1-.6-.1-.2-.2-.5-.4-.7 0-.1-.1-.2-.1-.3v-.2c-.1-.1-.2-.1-.3-.3-.1-.1-.2-.2-.2-.3h-.1l-.1-.1c-.2 0-1.4-.2-1.8-.3-.4 0-.8.1-1.3.1-.5.1-.9 0-1.6.1-.4.1-.9.2-1.3.3-1.3.1-1.9.7-1.9.9-.3 1.4-.4 3-.2 4.4v.3c0 .4.1.8.1 1.2 0 .1 0 .2.1.2 0 .8.2 1.2.7 1.6.6.5 2.1.9 2.8 1.1.8.2 1.9.4 2.8.6.7.2 1.5.3 2.3.4.9.1 2.4.2 3.2.5-.5.1-2.1.2-2.6.3-1.5.2-4 .7-5.5 1-.7.1-1.4.3-2.1.4-.5.1-2.5.4-2.8.5-.3.1-2.1.4-2.2.7-.3 1.1-.6 1.8-.9 2.7-.2.7-.6 2-.7 2.5v.2c0 .1-.1.5-.1.8-.1 0 0 .6 0 .6v.4c0 .1 0 .7.1.8.1.3.5.5.9.5 1.3 0 2.9-.1 3.9-.2 1.2-.1 2.3-.2 3.4-.3.7-.1 1.5-.2 2.3-.3 2.2-.4 4.3-.8 6.6-1.3 1.6-.3 3.6-.7 4.7-.8 1.4-.1 2-.3 2.9-.1.2 0 0 .1-.1.2-1.3.8-3.7 2.7-6.7 4.1-6.3 2.8-8.4 3.7-17.8 6-2.6.7-5.1 1.2-7.9 1.8-1.1.3-2.4.5-3.3.8-.4.1-2.2.5-2.5.5-.3 0-.5.3-.7.4-.3.2 0 .7.2.9.4.4 2.1.6 3.1.6.6 0 .5 0 1.1.1.4 0 1.7 1.6 2.1 1.7.1 0 .8-.1 1.1 0 .5.2 1 .1 1.5.2.6.1 2.6.9 3.2 1.3 5.8.5 28-6.2 29.3-11.4M31.4 29c0-.4.1-.7.1-1.1.1-.4 0-.9.2-1.2.1-.1.1-.7.2-.9.1-.1.1-.3.2-.4 0-.1 0-.2.1-.3.1-.2.2-.3.2-.6 0-.2.3-.6.4-.7.1 0 .1-.1.2-.1h.1c.5.1.6.3.6.8 0 .3.3.3.3.5.1.3.1.4.3.7.3.3.3 1 .3 1.4v.3c0 .1.1.2.1.3 0 .3.3.4.3.6-.1.4-.1.9-.1 1.3v1.5c0 .2.1.4.1.6v.3c0 .5-.2.8-.2 1.2 0 .3-.4.2-.8.2h-.8c-.4 0-.8-.1-1.2-.1-.2 0-.5.1-.6 0-.2-.1-.1-.2-.1-.5v-1.3c.1-.7 0-1.1.1-1.5-.1-.2 0-.6 0-1"/></svg>