<svg id="Layer_1" xmlns="http://www.w3.org/2000/svg" viewBox="0 0 210 100"><style>.st0{fill:#bbbbba}</style><path class="st0" d="M74.7 71.4h.9v4.7h-.9zM78.5 73.1l2.5 3.1h1.3v-4.1h-.9v3.1l-2.6-3.1h-1.2v4.1h.9zM88.1 74c-.3-.2-.7-.3-1.4-.4-.4 0-.9-.1-1.3-.1-.3 0-.4-.1-.4-.3 0-.3.7-.4 1.2-.4.6 0 1.1.1 1.6.4h.1l.6-.6-.1-.1c-.6-.3-1.4-.5-2.2-.5-.7 0-1.2.1-1.6.3-.4.2-.6.6-.6 1 0 .3.1.6.4.8.2.2.6.3 1.1.3.1 0 .5 0 1 .1.3 0 .6 0 .7.1.4.1.4.3.4.4 0 .2-.1.3-.3.4-.2.1-.6.2-1 .2-.8 0-1.4-.2-1.9-.5h-.1l-.5.7h.1c.6.5 1.4.7 2.4.7.7 0 1.3-.1 1.7-.4.4-.2.6-.6.6-1 0-.6-.2-.9-.5-1.1zM94.8 72.1h-.9v2.5c0 .5-.5.8-1.4.8-1 0-1.4-.3-1.4-.8v-2.5h-.9v2.7c0 .4.2.8.7 1.1.4.3 1 .4 1.7.4s1.3-.1 1.7-.4c.4-.3.6-.6.6-1.1v-2.7zM101.3 73.4c0-.4-.1-.7-.4-1-.3-.2-.6-.4-1-.4h-3.2v4h.9v-1.4h1.8l1 1.4h1.1l-1.1-1.5c.6 0 .9-.4.9-1.1zm-3.7-.4h2.1c.6 0 .7.3.7.5s-.1.5-.6.5h-2.2v-1zM107.9 76.2l-2.2-4h-1l-2.2 4h1l.4-.8h2.5l.4.8h1.1zm-2-1.7h-1.6l.8-1.5.8 1.5zM113.8 72.1h-.9v3.1l-2.5-3.1h-1.2v4.1h.9v-3.1l2.5 3.1h1.2zM120.5 75.3l-.7-.5c-.4.4-.9.6-1.5.6-.5 0-1-.1-1.3-.4-.3-.2-.5-.5-.5-.9s.2-.7.5-.9c.3-.2.7-.4 1.3-.4.6 0 1.1.2 1.5.6l.8-.3-.1-.1c-.6-.7-1.4-1.1-2.4-1.1-.7 0-1.3.2-1.8.5-.6.4-.8.9-.8 1.6 0 .6.3 1.1.7 1.5.5.4 1.1.6 1.9.6 1.1.2 1.8-.2 2.4-.8zM126.6 75.3h-3.4v-.8h2.2v-.9h-2.2V73h3.2v-.9h-4.2v4.1h4.4zM135.1 74.1c.3-.2.4-.5.4-.8 0-.3-.1-.6-.4-.8-.2-.2-.6-.3-1-.3h-3.3v4h3.2c1.1 0 1.6-.4 1.6-1.1.1-.5-.1-.8-.5-1zm-3.4.4h2.4c.6 0 .6.2.6.4 0 .1-.1.2-.2.3-.1.1-.3.1-.5.1h-2.3v-.8zm2.8-.9c-.1.1-.2.1-.4.1h-2.4V73h2.4c.4 0 .5.2.5.4 0 0 0 .1-.1.2zM141.1 76.2h1.1l-1.1-1.5c.6-.2.9-.6.9-1.2 0-.4-.1-.7-.4-1-.3-.2-.6-.4-1-.4h-3.2v4h.9v-1.4h1.8l1 1.5zm-2.8-3.2h2.1c.6 0 .7.3.7.5s-.1.5-.6.5h-2.2v-1zM148 72.5c-.5-.4-1.1-.5-1.8-.5s-1.3.2-1.8.5c-.6.4-.9 1-.9 1.6 0 .7.3 1.2.8 1.6.5.3 1.1.5 1.8.5s1.3-.2 1.8-.5c.6-.4.8-1 .8-1.6.1-.6-.2-1.2-.7-1.6zm-3 .7c.3-.2.7-.4 1.2-.4s.9.1 1.2.4c.3.2.5.6.5.9 0 .4-.1.7-.5.9-.3.2-.7.4-1.2.4s-.9-.1-1.2-.4c-.3-.2-.5-.5-.5-.9s.1-.7.5-.9zM153.2 73.7l2.2-1.6H154l-2.6 1.8v-1.8h-.9v4.1h.9v-1.3l1.1-.7 1.8 1.9v.1h1.2zM157.6 74.5h2.2v-.9h-2.2V73h3.2v-.9h-4.2v4.1h4.4v-.9h-3.4zM166.3 74.7c.6-.2.9-.6.9-1.2 0-.4-.1-.7-.4-1-.3-.2-.6-.4-1-.4h-3.2v4h.9v-1.4h1.8l1 1.4h1.1l-1.1-1.4zm-2.8-1.7h2.1c.6 0 .7.3.7.5s-.1.5-.6.5h-2.2v-1zM173.3 74.9c0-.4-.2-.7-.5-.9-.3-.2-.7-.3-1.4-.4-.4 0-.9-.1-1.3-.1-.3 0-.4-.1-.4-.3 0-.3.7-.4 1.2-.4.6 0 1.1.1 1.6.4h.1l.6-.6-.1-.1c-.6-.4-1.3-.6-2.2-.6-.7 0-1.2.1-1.6.3-.4.2-.6.6-.6 1 0 .3.1.6.4.8.2.2.6.3 1.1.3.1 0 .5 0 1 .1.3 0 .6 0 .7.1.4.1.4.3.4.4 0 .2-.1.3-.3.4-.2.1-.6.2-1 .2-.8 0-1.4-.2-1.9-.5h-.1l-.5.7h.1c.6.5 1.4.7 2.4.7.7 0 1.3-.1 1.7-.4.4-.3.6-.7.6-1.1zM75.9 78.4l-2 3.7h.8l.4-.8h2.3l.4.8h.8l-2-3.7h-.7zm1.2 2.2h-1.6l.8-1.5.8 1.5zM82.8 80.4c-.2-.1-.6-.2-1.1-.3-.3 0-.7-.1-1-.1-.2 0-.3-.1-.3-.2 0-.2.3-.3.9-.3.5 0 .9.1 1.3.3h.1l.5-.5H83c-.4-.3-1-.5-1.7-.5-.5 0-.9.1-1.2.3-.3.2-.5.4-.5.8 0 .3.1.5.3.6.2.1.5.2.9.3h.8c.3 0 .5 0 .6.1.3.1.3.2.3.3 0 .1-.1.2-.2.3-.2.1-.4.1-.8.1-.6 0-1.1-.1-1.5-.4h-.1l-.4.5h.1c.5.4 1.1.6 1.9.6.6 0 1-.1 1.3-.3.3-.2.5-.5.5-.8-.2-.4-.3-.7-.5-.8zM87.4 80.4c-.2-.1-.6-.2-1.1-.3-.3 0-.7-.1-1-.1-.2 0-.3-.1-.3-.2 0-.2.3-.3.9-.3.5 0 .9.1 1.3.3h.1l.5-.5-.1-.1c-.4-.3-1-.5-1.7-.5-.5 0-.9.1-1.2.3-.3.2-.5.4-.5.8 0 .3.1.5.3.6.2.1.5.2.9.3h.8c.3 0 .5 0 .6.1.3.1.3.2.3.3 0 .1-.1.2-.2.3-.2.1-.4.1-.8.1-.6 0-1.1-.1-1.5-.4h-.1l-.6.5h.1c.5.4 1.1.6 1.9.6.6 0 1-.1 1.3-.3.3-.2.5-.5.5-.8 0-.3-.2-.6-.4-.7zM92.3 79.2c-.4-.3-.9-.4-1.4-.4-.5 0-1 .1-1.4.4-.4.3-.7.8-.7 1.3s.2 1 .7 1.3c.4.3.9.4 1.4.4.6 0 1-.1 1.4-.4.4-.3.7-.8.7-1.3-.1-.5-.3-.9-.7-1.3zm-2.4.6c.2-.2.6-.3 1-.3s.7.1.9.3c.2.2.4.4.4.7 0 .3-.1.5-.4.7-.2.2-.6.3-1 .3s-.7-.1-1-.3c-.2-.2-.4-.4-.4-.7.1-.3.2-.5.5-.7zM95.2 79.8c.2-.2.6-.3 1-.3.5 0 .9.2 1.2.5l.7-.2-.1-.1c-.5-.6-1.1-.9-1.9-.9-.6 0-1 .1-1.4.4-.4.3-.7.8-.7 1.3s.2.9.6 1.2c.4.3.9.5 1.5.5.7 0 1.4-.3 1.8-.8l.1-.1-.6-.3c-.3.3-.7.5-1.2.5-.4 0-.8-.1-1-.3-.2-.2-.4-.4-.4-.7 0-.3.1-.5.4-.7zM99.3 78.9h.7v3.2h-.7zM102.7 78.9l-1.7 3.2h.8l.4-.7h2l.4.7h.8l-1.7-3.2h-1zm1.1 1.9h-1.2l.6-1.1.6 1.1zM105.9 79.6h1.5v2.5h.7v-2.5h1.5v-.7h-3.7zM110.6 78.9h.7v3.2h-.7zM116.2 79.2c-.4-.3-.9-.4-1.4-.4-.5 0-1 .1-1.4.4-.4.3-.7.8-.7 1.3s.2 1 .7 1.3c.4.3.9.4 1.4.4.6 0 1-.1 1.4-.4.4-.3.7-.8.7-1.3-.1-.5-.3-.9-.7-1.3zm-2.4.6c.2-.2.6-.3 1-.3s.7.1.9.3c.2.2.4.4.4.7 0 .3-.1.5-.4.7-.2.2-.6.3-1 .3s-.7-.1-1-.3c-.2-.2-.4-.4-.4-.7.1-.3.3-.5.5-.7zM121.1 81.3l-1.9-2.4h-1.1v3.2h.8v-2.4l1.9 2.4h1v-3.2h-.7zM128.7 79.2c-.4-.3-.9-.4-1.4-.4-.5 0-1 .1-1.4.4-.4.3-.7.8-.7 1.3s.2 1 .7 1.3c.4.3.9.4 1.4.4.6 0 1-.1 1.4-.4.4-.3.7-.8.7-1.3s-.3-.9-.7-1.3zm-2.4.6c.2-.2.6-.3 1-.3s.7.1.9.3c.2.2.4.4.4.7 0 .3-.1.5-.4.7-.2.2-.6.3-1 .3s-.7-.1-1-.3c-.2-.2-.4-.4-.4-.7.2-.3.3-.5.5-.7zM130.7 82.1h.7v-1.3h1.8v-.7h-1.8v-.5h2.6v-.7h-3.3zM139.4 80.6l-1.2-1.7h-1.1v3.2h.8v-2.4l1.5 2 1.4-1.9v2.3h.8v-3.2h-1zM144.3 78.9l-1.7 3.2h.8l.4-.7h2l.4.7h.8l-1.7-3.2h-1zm1 1.9h-1.2l.6-1.1.6 1.1zM150.8 81.3l-2-2.4h-1v3.2h.8v-2.4l1.9 2.4h1v-3.2h-.7zM153 78.9h.7v3.2h-.7zM154.8 79.6h1.5v2.5h.7v-2.5h1.5v-.7h-3.7zM162.9 79.2c-.4-.3-.9-.4-1.4-.4-.5 0-1 .1-1.4.4-.4.3-.7.8-.7 1.3s.2 1 .7 1.3c.4.3.9.4 1.4.4.6 0 1-.1 1.4-.4.4-.3.7-.8.7-1.3-.1-.5-.3-.9-.7-1.3zm-2.4.6c.2-.2.6-.3 1-.3s.7.1.9.3c.2.2.4.4.4.7 0 .3-.1.5-.4.7-.2.2-.6.3-1 .3s-.7-.1-1-.3c-.2-.2-.4-.4-.4-.7.2-.3.3-.5.5-.7zM168.2 80.4c.2-.2.3-.4.3-.6 0-.3-.1-.5-.3-.7-.2-.2-.5-.3-.8-.3h-2.6V82h2.6c.8 0 1.3-.3 1.3-.9 0-.2-.2-.5-.5-.7zm-.5-.3c-.1.1-.2.1-.3.1h-1.8v-.5h1.9c.3 0 .4.1.4.3-.1-.1-.1 0-.2.1zm-2.1.7h1.9c.4 0 .5.2.5.3 0 .1 0 .1-.1.2s-.2.1-.4.1h-1.8v-.6zM172 78.9h-.8l-1.7 3.2h.8l.4-.7h2l.4.7h.8l-1.9-3.2zm.2 1.9H171l.6-1.1.6 1.1z"/><path d="M162 24h12.1c-2.9 14.5-6 29.1-8.9 43.6h-8.1c2-9.8 4.1-19.6 6-29.4-3.1 9.8-6.3 19.6-9.2 29.4h-5.7c.8-9.6 1.7-19.2 2.5-28.8-1.9 9.6-3.9 19.2-5.9 28.8h-8.1c2.9-14.5 6-29.1 8.9-43.6h12c-.1 2.6-.4 5.7-.8 9.3-.3 3.6-.7 7.3-.9 11.1 1.8-6.8 4-13.5 6.1-20.4zm-38.7 28.1h3.2c.5-4.9.7-11.1 1.7-18.3-2.6 8.3-3.9 14.4-4.9 18.3zm.4-28.1h13.4c-1.2 14.5-2.5 29.1-3.6 43.6H124c.4-2.6.7-5.2 1.1-7.9h-3.3c-.7 2.6-1.5 5.2-2.2 7.9H110c4.6-14.5 9.3-29 13.7-43.6zm-23.1 24c-.8 4.1-1.7 8.1-2.5 12.2 1.3-.1 2.2-.3 2.6-.7.4-.4.9-1.6 1.2-3.3.3-1.3.5-2.7.8-4.1.4-1.8.4-3 .2-3.3-.1-.6-.9-.8-2.3-.8zm2.7-16.5c-.7 3.2-1.3 6.4-2 9.7h.9c.9 0 1.5-.3 1.9-.9.4-.5.8-2.1 1.3-4.7.3-1.4.4-2.3.3-2.9-.1-.5-.3-.9-.6-1-.2-.1-.8-.2-1.8-.2zM86.7 67.7c2.9-14.5 6-29.1 8.9-43.6h9.2c2.9 0 5.1.3 6.5.8 1.4.6 2.3 1.7 2.9 3.4.6 1.7.5 4.4-.3 8.2-.5 2.5-1.2 4.3-2 5.3-.9 1-2.3 1.7-4.4 2.3 2 .6 3.3 1.5 3.8 2.9.4 1.4.4 3.5-.1 6.3-.3 1.4-.6 2.7-.9 4.1-.6 2.9-1.3 5.1-2.1 6.5-.9 1.5-2 2.4-3.3 2.9-1.3.5-3.8.8-7.5.8-3.5.1-7.1.1-10.7.1zM83.2 24h9.3c-2.9 14.5-6 29.1-8.9 43.6h-9.2c2.9-14.5 5.9-29 8.8-43.6z" fill-rule="evenodd" clip-rule="evenodd" fill="#bbbbba"/><path class="st0" d="M58.8 30.1c-2.6-1-3.5-4.9-2-8.8 1.5-3.8 4.9-6.1 7.5-5.1 2.6 1 3.5 4.9 2 8.8-1.5 3.8-4.8 6.1-7.5 5.1zM48.1 40.5s-8.4 1.3-9.8 7.3c0 0-1.1 4.9 6.3 7.4 0 0 3.2 1 5.8 1.4 0 0 2.7.2 3 2.9 0 0 1.1-2-.7-3.6 0 0-.2-.4-2.4-1.1 0 0-3.3-.7-5.9-1.6 0 0-3.3-1-4.8-3.2 0 0-1.8-1.7.1-3.8 0 0 1.1-1.4 3.7-2.5 0 0 1.8-.8 4.5-1.3l.2-1.9z"/><path class="st0" d="M47.6 43.2s-5.3.8-8.1 4.1c-.2.4-.2.8-.1 1.2.4-.5 1.5-1.4 3.5-2.3 0 0 1.8-.8 4.5-1.3l.2-1.7zM38 49.7c-.1.3-.2.5-.2.8 0 0-1.1 4.9 6.3 7.4 0 0 3.2 1 5.8 1.4 0 0 2.7.2 3 2.9 0 0 .3-.7.3-1.4s-.2-1-.2-1c-.2-.4-.4-.9-.9-1.3 0 0-.2-.4-2.4-1.1 0 0-3.3-.7-5.9-1.6 0 0-3.3-1-4.8-3.2 0-.1-.8-1-1-2.9zM40.3 49.9c.5-.3 1.2-.7 2-1.1 0 0 1.8-.8 4.5-1.3l.2-1.7s-4.4.7-7.3 3.3c.1.2.5.7.6.8z"/><path class="st0" d="M37.4 52.5c-.1.2-.2.5-.2.8 0 0-1.1 4.9 6.3 7.4 0 0 3.2 1 5.8 1.4 0 0 2.7.2 3 2.9 0 0 1.1-2-.7-3.6 0 0-.2-.5-2.4-1.1 0 0-3.3-.7-5.9-1.6 0 0-3.3-1-4.8-3.2 0-.3-1.1-1.6-1.1-3zM45.8 51.3s-1.2.2-2.8.7c.8.4 1.5.6 1.5.6.3.1.7.2 1 .3l.3-1.6zM46.2 50.3l.2-1.7s-2.9.4-5.5 2l1.2.9c.6-.3 2.1-.8 4.1-1.2z"/><path class="st0" d="M36.9 55l-.3.9s-1.1 4.9 6.3 7.4c0 0 3.2 1 5.8 1.4 0 0 2.7.2 3 2.9 0 0 1.1-2-.7-3.6 0 0-.2-.5-2.4-1.1 0 0-3.3-.7-5.9-1.6 0 0-3.3-1-4.8-3.2 0-.2-1-1.4-1-3.1z"/><path class="st0" d="M36.3 57.8l-.3.9s-1.1 4.9 6.3 7.4c0 0 3.2 1 5.8 1.4 0 0 2.7.2 3 2.9 0 0 1.1-2-.7-3.6 0 0-.2-.4-2.4-1.1 0 0-3.3-.7-5.9-1.6 0 0-3.3-1-4.8-3.2 0-.3-1-1.5-1-3.1zM49.9 53.4s1.4-3.6 5.5-4.1c0 0 2-.3 2.8-.4 0 0 8.4-.8 10.4-1.3 0 0 5.5-1 6.1-3 0 0 .6-1.1-1.9-2 0 0-1-.7-6.5-1.4l.8-1.7s4.2.5 6.2 1.7c0 0 2.4 1.4 1.7 3.5 0 0-.4 1.9-2.7 3.2-2.3 1.3-3.5 1.4-6.4 2.1 0 0-1.6.4-9.3 1.1 0 0-2.9.2-4 .9 0 0-1.3.7-2.8 1.8l.1-.4z"/><path class="st0" d="M73.5 45.3c-.3-.2-.7-.3-1.1-.5 0 0-2.7-1-6.5-1.1l.8-1.7s3.9.6 6.3 1.6c0 0 .8.3 1.4.9-.1 0-.2.5-.9.8M70.4 46.7c-1.2-.3-2.9-.6-5.1-.6l.8-1.7s4 .5 6.4 1.6c0-.1-.5.4-2.1.7zM48.1 68c-2.2-.3-4.7-1-5.6-1.3L38.7 84h9.1l2.8-12.9-.1-.8c-.2-2.1-2.2-2.3-2.4-2.3zM74.9 46.4c-1.2 3.1-7 4.1-7 4.1-2 .5-10.4 1.3-10.4 1.3-.8.1-2.8.4-2.8.4-2 .2-3.3 1.2-4.2 2.1.5.2 1 .3 1.4.5 1.1-.7 4-.9 4-.9 7.7-.7 9.3-1.1 9.3-1.1 2.9-.6 4.1-.9 6.4-2.1 2.3-1.1 3.1-3 3.1-3s.3-.7.2-1.3zM73.1 54.9c-1.2 3.1-7 4.1-7 4.1-2 .5-10.4 1.3-10.4 1.3-.5 0-1.3.2-2 .2l-.4 1.9c.4 0 .7-.1.7-.1 7.7-.7 9.3-1.1 9.3-1.1 2.9-.6 4.1-.9 6.4-2.1 2.3-1.1 3.1-3 3.1-3s.3-.6.3-1.2z"/><path class="st0" d="M73.7 52.1c-1.2 3.1-7 4.1-7 4.1-2 .5-10.4 1.3-10.4 1.3-.5 0-1.4.2-2.1.3 0 .5-.1 1.3-.1 1.3l-.1.5c.4 0 .7-.1.7-.1 7.7-.7 9.3-1.1 9.3-1.1 2.9-.6 4.1-.9 6.4-2.1 2.3-1.1 3.1-3 3.1-3s.2-.7.2-1.2z"/><path class="st0" d="M74.3 49.3c-1.2 3.1-7 4.1-7 4.1-2 .5-10.4 1.3-10.4 1.3-.8.1-2.8.4-2.8.4-.5.1-.9.1-1.3.3.1.1.2.2.3.2.5.4.7.9.9 1.3.7-.1 1.3-.1 1.3-.1 7.7-.7 9.3-1.1 9.3-1.1 2.9-.6 4.1-.9 6.4-2.1 2.3-1.1 3.1-3 3.1-3s.2-.8.2-1.3z"/><g><path class="st0" d="M49.3 53.5l.1-.3c.1-.2 1.5-3.9 5.9-4.4.1 0 2-.3 2.8-.4.1 0 8.4-.8 10.3-1.3h.2c-1.2-.3-2.2-.4-2.7-.5l3.2-14.8H49.9L48.2 40l-.6 2.7-2.2 10.2c1.3.4 2.7.8 3.7 1l.2-.4z"/></g><g><path class="st0" d="M54.1 62.8s-.3 0-.7.1h-.1L48.7 84h9.2l4.8-22.2c-1.2.2-3.6.6-8.6 1z"/></g><g><path class="st0" d="M59.1 84v-1.2h-.4v-.2h1v.2h-.4V84h-.2zM59.8 84v-1.3h.3l.3.9c0 .1 0 .2.1.2 0 0 0-.1.1-.2l.3-.9h.2V84h-.2v-1.1l-.4 1.1h-.2l-.3-1.1V84h-.2z"/></g></svg>