<svg id="Layer_1" xmlns="http://www.w3.org/2000/svg" viewBox="0 0 210 100"><style>.st0{fill-rule:evenodd;clip-rule:evenodd;fill:#bbbbba}</style><path class="st0" d="M116.5 84.7v.4c1.4.1 1.4.1 1.4.9v4.5c0 1.3-.2 2.2-.7 2.7-.5.6-1.2.8-2.1.8-.9 0-1.6-.3-2-.8-.5-.6-.7-1.4-.7-2.7V86c0-.8 0-.8 1.4-.9v-.4h-4.3v.4c1.4.1 1.4.1 1.4.9v4.9c0 .8.2 1.6.4 2 .7 1.4 2.3 1.7 3.8 1.7s3.2-.3 3.9-1.7c.3-.5.4-1.2.4-2.1V86c0-.8 0-.8 1.4-.9v-.4h-4.3zM128.8 89.6c0-1.4-.8-2.2-2.3-2.2-1.1 0-1.9.5-2.8 1.1l-.2-1.1-2.3.3v.4l.6.1c.4.1.5.1.5.6v4.4c0 .7 0 .7-1.2.8v.4h3.8V94c-1.1-.1-1.2-.1-1.2-.8v-3.3c0-.3 0-.5.2-.8.3-.5 1-1 1.8-1 1.1 0 1.6.5 1.6 1.8v3.3c0 .7 0 .7-1.2.8v.4h3.8V94c-1.1-.1-1.2-.1-1.2-.8v-3.6h.1zM132.6 84.4c-.6 0-.9.4-.9.9s.4.8.9.8c.6 0 .9-.4.9-.8 0-.6-.3-.9-.9-.9zm-1.8 3.3v.4l.6.1c.4.1.5.1.5.6v4.4c0 .7 0 .7-1.2.8v.4h3.8V94c-1.1-.1-1.2-.1-1.2-.8v-5.7l-.1-.1-2.4.3zM137.1 91c0-1.9.7-3.1 2.1-3.1 1.4 0 2.1 1.2 2.1 3.1 0 1.9-.7 3.1-2.1 3.1-1.4 0-2.1-1.2-2.1-3.1zm2.1-3.6c-2.5 0-3.7 1.3-3.7 3.6s1.2 3.6 3.7 3.6 3.7-1.3 3.7-3.6-1.2-3.6-3.7-3.6zM151.8 89.6c0-1.4-.8-2.2-2.3-2.2-1.1 0-1.9.5-2.8 1.1l-.2-1.1-2.3.3v.4l.6.1c.4.1.5.1.5.6v4.4c0 .7 0 .7-1.2.8v.4h3.8V94c-1.1-.1-1.2-.1-1.2-.8v-3.3c0-.3 0-.5.2-.8.3-.5 1-1 1.8-1 1.1 0 1.6.5 1.6 1.8v3.3c0 .7 0 .7-1.2.8v.4h3.8V94c-1.1-.1-1.2-.1-1.2-.8v-3.6h.1zM109.6 67.6v.4c1.4.1 1.4.1 1.4.9V76c0 .8 0 .8-1.4.9v.4h8.2l.2-2.4h-.5c-.4 1.7-1 1.9-3 1.9-.7 0-1.3 0-1.6-.1-.3-.1-.4-.4-.4-1.1v-3.1h2.2c1.3 0 1.4.3 1.5 1.2h.5v-3h-.5c-.1.9-.2 1.2-1.5 1.2h-2.2v-3.4c0-.4.1-.5.6-.5h1.5c1.8 0 2.1.4 2.3 1.8h.5v-2.3h-7.8v.1zM118.9 70.6v.4l.6.1c.4.1.5.1.5.6v4.4c0 .7 0 .7-1.2.8v.4h3.8v-.4c-1.1-.1-1.2-.1-1.2-.8v-3.3c0-.4 0-.5.1-.7.3-.6 1-1 1.8-1 1.3 0 1.5.9 1.5 1.8v3.3c0 .7 0 .7-1.2.8v.4h3.8V77c-1.1-.1-1.2-.1-1.2-.8v-3.3c0-.4 0-.5.1-.8.2-.6.9-1 1.8-1 1 0 1.6.5 1.6 1.8v3.3c0 .7 0 .7-1.2.8v.4h3.8V77c-1.1-.1-1.2-.1-1.2-.8v-3.6c0-1.4-.8-2.2-2.3-2.2-1.3 0-2.2.8-2.7 1.1-.4-.7-1-1.1-2-1.1-1.2 0-2.2.7-2.7 1.1l-.1-1.1-2.4.2zM133.1 70.6v.4l.6.1c.4.1.5.1.5.6v7.7c0 .7-.1.7-1.2.8v.4h4v-.4c-1.3-.1-1.4-.1-1.4-.8v-2.2c.3.2 1.1.3 1.8.3 2.1 0 3.9-.9 3.9-3.8 0-1-.2-3.5-3-3.5-1.1 0-2 .7-2.6 1l-.2-1-2.4.4zm2.5 2.2c0-.4.1-.5.2-.8.4-.6 1-1 1.8-1 .6 0 2 .4 2 2.8 0 2.1-.7 3.2-2.3 3.2-.8 0-1.4-.4-1.7-1-.1-.3-.1-.5-.1-.9v-2.3h.1zM144.9 67l-.1-.1-2.4.4v.4l.6.1c.4 0 .5.1.5.6v7.8c0 .7 0 .7-1.2.8v.4h3.8V77c-1.1-.1-1.2-.1-1.2-.8V67zM148.7 73.9c0-1.9.7-3.1 2.1-3.1 1.4 0 2.1 1.2 2.1 3.1 0 1.9-.7 3.1-2.1 3.1-1.4 0-2.1-1.2-2.1-3.1zm2.1-3.6c-2.5 0-3.7 1.3-3.7 3.6s1.2 3.6 3.7 3.6 3.7-1.3 3.7-3.6-1.2-3.6-3.7-3.6zM154.7 70.4v.4c.7 0 .9.1 1.2.7.8 1.7 2.1 4.7 2.4 5.6.1.2.1.5.1.7 0 .3-.1.7-.4 1.2-.2.5-.5.6-.7.6-.2 0-.3 0-.6-.3-.2-.1-.3-.2-.5-.2-.3 0-.7.4-.7.8 0 .3.4.7 1.1.7.6 0 1.4-.2 2.2-2.2 1-2.5 2.4-5.9 2.9-6.9.3-.6.4-.7 1.1-.7v-.4h-3v.4l.8.1c.3 0 .3.2.2.5-.2.8-1 3-1.7 4.6-.7-1.7-1.3-3.2-1.9-4.7-.1-.3-.1-.4.2-.4l.7-.1v-.4h-3.4zM164.9 73.1c0-.6.2-2.3 1.8-2.3 1.4 0 1.6 1.3 1.6 1.9 0 .3-.1.4-.5.4h-2.9zm4.4.5c.3 0 .6-.1.6-.5 0-.8-.3-2.8-3.1-2.8-2.4 0-3.6 1.6-3.6 3.7 0 2.2 1 3.6 3.6 3.5 1.7 0 2.6-.9 3-2l-.5-.2c-.4.8-1 1.5-2.2 1.5-1.9 0-2.3-1.7-2.3-3.1h4.5v-.1zM172.8 73.1c0-.6.2-2.3 1.8-2.3 1.4 0 1.6 1.3 1.6 1.9 0 .3-.1.4-.5.4h-2.9zm4.4.5c.3 0 .6-.1.6-.5 0-.8-.3-2.8-3.1-2.8-2.4 0-3.6 1.6-3.6 3.7 0 2.2 1.1 3.6 3.6 3.5 1.7 0 2.6-.9 3-2l-.5-.2c-.4.8-1 1.5-2.2 1.5-1.9 0-2.3-1.7-2.3-3.1h4.5v-.1zM184 72.4v-1.6c-.5-.3-1.3-.5-2-.5-1.7 0-2.8.7-2.8 2 0 1.2 1.1 1.7 2.3 2 .7.2 1.7.5 1.7 1.5 0 .7-.6 1.2-1.4 1.2-1.2 0-1.9-.8-2.3-2h-.4l.2 1.8c.6.5 1.5.7 2.4.7 1.8 0 2.9-.9 2.9-2.1 0-1.2-.8-1.8-2.4-2.2-.6-.2-1.7-.5-1.7-1.3 0-.7.6-1.1 1.4-1.1 1.1 0 1.6.8 1.7 1.6h.4zM185.2 70.7c.8-.6 1.8-1.6 1.8-2.6 0-.8-.5-1.2-1-1.2s-.7.3-.7.7c0 .5.5.8.5 1.3s-.4 1.1-.8 1.6l.2.2zM115.8 55c0-.8-.2-1.9-2.5-1.9-1.7 0-3.1.8-3.1 1.6 0 .4.6.7.9.7.3 0 .4-.2.5-.4.3-1 1-1.4 1.6-1.4.6 0 1.3.3 1.3 1.4v.6c-.4.4-1.9.7-3.1 1.1-1.1.3-1.4 1-1.4 1.7 0 1.1.8 2 2.2 2 1 0 1.8-.5 2.3-.8.2.5.5.8 1 .8.6 0 1.2-.2 1.8-.4l-.1-.3c-.2 0-.6.1-.8 0-.3-.1-.5-.3-.5-1.2V55h-.1zm-1.4 3.2c0 1.1-1 1.4-1.6 1.4-1 0-1.4-.6-1.4-1.4 0-.7.3-1 1.2-1.3.6-.2 1.4-.5 1.8-.7v2zM125.3 55.4c0-1.4-.8-2.2-2.3-2.2-1.1 0-1.9.5-2.8 1.1l-.2-1.1-2.3.4v.4l.6.1c.4.1.5.1.5.6V59c0 .7 0 .7-1.2.8v.4h3.8v-.4c-1.1-.1-1.2-.1-1.2-.8v-3.3c0-.4 0-.5.2-.8.3-.5 1-1 1.8-1 1.1 0 1.6.5 1.6 1.8V59c0 .7 0 .7-1.2.8v.4h3.8v-.4c-1.1-.1-1.2-.1-1.2-.8v-3.6h.1zM133.1 57.8c0 .3 0 .5-.1.8-.3.7-1 1-1.8 1-1.4 0-2.1-1.3-2.1-2.9 0-1.8.7-3.1 2.3-3.1.7 0 1.3.3 1.6.9.1.2.1.4.1.8v2.5zm2.6 2.4v-.4c-1.1-.1-1.2-.1-1.2-.8v-9.1l-.1-.1-2.4.4v.4l.6.1c.4 0 .5.1.5.6v2.3c-.4-.2-1-.3-1.7-.3-1.3 0-2.2.4-2.9 1-.7.6-1.1 1.6-1.1 2.8 0 2.1 1.2 3.5 3.2 3.5.8 0 1.6-.3 2.4-1v.7l.1.1h2.6v-.2zM149.5 57.1c0-.7.1-.8 1.1-.9v-.4h-4.3v.4c1.6.1 1.6.2 1.6.9V59c0 .5-.2.6-.5.8-.4.1-.8.2-1.4.2-3.6 0-4.2-2.9-4.2-4.6 0-2.2 1-4.5 4-4.5 1.7 0 2.7.7 3 2.3h.5V51c-.8-.3-2.1-.6-3.3-.6-2.3 0-3.9.7-4.7 1.7-.8.9-1.2 2.1-1.2 3.5 0 1.8.8 3.3 1.9 4 1.2.7 2.5.9 3.9.9 1.1 0 2.6-.3 3.5-.6v-2.8h.1zM153.2 56c0-.6.2-2.3 1.8-2.3 1.4 0 1.6 1.3 1.6 1.9 0 .3-.1.4-.5.4h-2.9zm4.4.5c.3 0 .6-.1.6-.5 0-.8-.3-2.8-3.1-2.8-2.4 0-3.6 1.6-3.6 3.7 0 2.2 1 3.6 3.6 3.6 1.7 0 2.6-.9 3-2l-.5-.2c-.4.8-1 1.5-2.2 1.5-1.9 0-2.3-1.7-2.3-3.1h4.5v-.2zM166.9 55.4c0-1.4-.9-2.2-2.3-2.2-1.1 0-1.9.5-2.8 1.1l-.2-1.1-2.3.4v.4l.6.1c.4.1.5.1.5.6V59c0 .7 0 .7-1.2.8v.4h3.8v-.4c-1.1-.1-1.2-.1-1.2-.8v-3.3c0-.4 0-.5.2-.8.3-.5 1-1 1.8-1 1.1 0 1.6.5 1.6 1.8V59c0 .7 0 .7-1.2.8v.4h3.8v-.4c-1.1-.1-1.2-.1-1.2-.8v-3.6h.1zM170.7 56c0-.6.2-2.3 1.8-2.3 1.4 0 1.6 1.3 1.6 1.9 0 .3-.1.4-.5.4h-2.9zm4.4.5c.3 0 .6-.1.6-.5 0-.8-.3-2.8-3.1-2.8-2.4 0-3.6 1.6-3.6 3.7 0 2.2 1 3.6 3.6 3.6 1.7 0 2.6-.9 3-2l-.5-.2c-.4.8-1 1.5-2.2 1.5-1.9 0-2.3-1.7-2.3-3.1h4.5v-.2zM179.2 53.2l-2.3.4v.4l.6.1c.4.1.5.1.5.6V59c0 .7-.1.7-1.2.8v.4h4.1v-.4c-1.4-.1-1.5-.1-1.5-.8v-3.3c0-1.1.5-1.4.9-1.4.2 0 .5.1 1 .3.1.1.2.1.3.1.4 0 .7-.4.7-.8 0-.3-.2-.7-.8-.7-.6 0-1 .3-2 1.1l-.3-1.1zM188.8 55c0-.8-.2-1.9-2.5-1.9-1.7 0-3.1.8-3.1 1.6 0 .4.6.7.9.7.3 0 .4-.2.5-.4.3-1 1-1.4 1.6-1.4.6 0 1.3.3 1.3 1.4v.6c-.4.4-1.9.7-3.1 1.1-1.1.3-1.4 1-1.4 1.7 0 1.1.8 2 2.2 2 1 0 1.8-.5 2.3-.8.2.5.5.8 1 .8.6 0 1.2-.2 1.8-.4l-.1-.3c-.2 0-.6.1-.8 0-.3-.1-.5-.3-.5-1.2V55h-.1zm-1.4 3.2c0 1.1-1 1.4-1.6 1.4-1 0-1.4-.6-1.4-1.4 0-.7.3-1 1.2-1.3.6-.2 1.4-.5 1.8-.7v2zM193.1 49.9l-.1-.1-2.4.4v.4l.6.1c.4 0 .5.1.5.6V59c0 .7 0 .7-1.2.8v.4h3.8v-.4c-1.1-.1-1.2-.1-1.2-.8v-9.1zM119.2 40c0-.7.1-.8 1.1-.9v-.4H116v.4c1.6.1 1.6.2 1.6.9v1.9c0 .5-.2.6-.5.8-.4.1-.8.2-1.4.2-3.6 0-4.2-2.9-4.2-4.6 0-2.2 1-4.5 4-4.5 1.7 0 2.7.7 3 2.3h.5v-2.2c-.8-.3-2.1-.6-3.3-.6-2.3 0-3.9.7-4.7 1.7-.8.9-1.2 2.1-1.2 3.5 0 1.8.8 3.3 1.9 4 1.2.7 2.5.9 3.9.9 1.1 0 2.6-.3 3.5-.6V40h.1zM122.8 39.7c0-1.9.7-3.1 2.1-3.1 1.4 0 2.1 1.2 2.1 3.1 0 1.9-.7 3.1-2.1 3.1-1.4 0-2.1-1.2-2.1-3.1zm2.1-3.6c-2.5 0-3.7 1.3-3.7 3.6s1.2 3.6 3.7 3.6 3.7-1.3 3.7-3.6-1.2-3.6-3.7-3.6zM134.2 36.2v.4l.8.1c.2 0 .3.2.2.4-.1.4-.4 1.3-.8 2.2l-1 2.6-.9-2.4-.9-2.4c-.1-.3 0-.4.2-.4l.7-.1v-.4H129v.4c.7.1.9.1 1.1.6.4.9.8 1.8 1.2 2.8l1.2 3h1.1l1.4-3.4c.4-1.1.9-2 1.1-2.5.2-.5.4-.6 1.1-.6v-.4h-3v.1zM139 38.9c0-.6.2-2.3 1.8-2.3 1.4 0 1.6 1.3 1.6 1.9 0 .3-.1.5-.5.5H139v-.1zm4.4.5c.3 0 .6-.1.6-.5 0-.8-.3-2.8-3.1-2.8-2.4 0-3.6 1.6-3.6 3.7 0 2.2 1 3.6 3.6 3.5 1.7 0 2.6-.9 3-2l-.5-.2c-.4.8-1 1.5-2.2 1.5-1.9 0-2.3-1.7-2.3-3.1h4.5v-.1zM147.5 36.1l-2.3.3v.4l.6.1c.4.1.5.1.5.6v4.4c0 .7-.1.7-1.2.8v.4h4.1v-.4c-1.4-.1-1.5-.1-1.5-.8v-3.3c0-1.1.5-1.4.9-1.4.2 0 .5.1 1 .3.1.1.2.1.3.1.4 0 .7-.3.7-.8 0-.3-.2-.7-.8-.7-.6 0-1 .3-2 1.1l-.3-1.1zM158.9 38.3c0-1.4-.8-2.2-2.3-2.2-1.1 0-1.9.5-2.8 1.1l-.2-1.1-2.3.3v.4l.6.1c.4.1.5.1.5.6v4.4c0 .7 0 .7-1.2.8v.4h3.8v-.4c-1.1-.1-1.2-.1-1.2-.8v-3.3c0-.4 0-.5.2-.8.3-.5 1-1 1.8-1 1.1 0 1.6.5 1.6 1.8v3.3c0 .7 0 .7-1.2.8v.4h3.8v-.4c-1.1-.1-1.2-.1-1.2-.8v-3.6h.1zM160.8 36.4v.4l.6.1c.4.1.5.1.5.6v4.4c0 .7 0 .7-1.2.8v.4h3.8v-.4c-1.1-.1-1.2-.1-1.2-.8v-3.3c0-.4 0-.5.1-.7.3-.6 1-1 1.8-1 1.3 0 1.5.9 1.5 1.8V42c0 .7 0 .7-1.2.8v.4h3.8v-.4c-1.1-.1-1.2-.1-1.2-.8v-3.3c0-.4 0-.5.1-.8.2-.6.9-1 1.8-1 1 0 1.6.5 1.6 1.8V42c0 .7 0 .7-1.2.8v.4h3.8v-.4c-1.1-.1-1.2-.1-1.2-.8v-3.6c0-1.4-.8-2.2-2.3-2.2-1.3 0-2.2.8-2.7 1.1-.4-.7-1-1.1-2-1.1-1.2 0-2.2.7-2.7 1.1l-.1-1.1-2.4.2zM176.9 38.9c0-.6.2-2.3 1.8-2.3 1.4 0 1.6 1.3 1.6 1.9 0 .3-.1.5-.5.5h-2.9v-.1zm4.4.5c.3 0 .6-.1.6-.5 0-.8-.3-2.8-3.1-2.8-2.4 0-3.5 1.6-3.5 3.7 0 2.2 1.1 3.6 3.6 3.5 1.7 0 2.6-.9 3-2l-.5-.2c-.4.8-1 1.5-2.2 1.5-1.9 0-2.3-1.7-2.3-3.1h4.4v-.1zM190.6 38.3c0-1.4-.9-2.2-2.3-2.2-1.1 0-1.9.5-2.8 1.1l-.2-1.1-2.3.3v.4l.6.1c.4.1.5.1.5.6v4.4c0 .7 0 .7-1.2.8v.4h3.8v-.4c-1.1-.1-1.2-.1-1.2-.8v-3.3c0-.4 0-.5.2-.8.3-.5 1-1 1.8-1 1.1 0 1.6.5 1.6 1.8v3.3c0 .7 0 .7-1.2.8v.4h3.8v-.4c-1.1-.1-1.2-.1-1.2-.8v-3.6h.1zM197 36.8v-.6h-2v-1.8h-.4l-.9 1.8h-1.2v.6h1.1v4.9c0 1.4 1.2 1.6 1.7 1.6.8 0 1.5-.4 2-.6l-.1-.3c-.4.1-.7.2-1.1.2-.5 0-1-.3-1-1.4v-4.4h1.9zM113.3 26v-.4c-1-.1-1.4-.1-1.5-.7-.1-.5-.1-1-.1-1.7v-5.6l4 8.3h.4l4-8.3v7.1c0 .8 0 .8-1.4.9v.4h4.3v-.4c-1.3-.1-1.4-.1-1.4-.9v-7.1c0-.8 0-.8 1.4-.9v-.4h-3c-.5 1.2-1.2 2.5-1.8 3.7l-1.9 3.8-1.8-3.7c-.6-1.2-1.3-2.5-1.8-3.7h-3.1v.4c1.4.1 1.4.1 1.4.9v5.6c0 .7 0 1.3-.1 1.7-.1.6-.5.6-1.3.7v.3h3.7zM130.1 20.8c0-.8-.2-1.9-2.5-1.9-1.7 0-3.1.8-3.1 1.6 0 .4.6.7.9.7.3 0 .4-.2.5-.4.3-1 1-1.4 1.6-1.4.6 0 1.3.3 1.3 1.4v.6c-.4.4-1.9.7-3.1 1.1-1.1.3-1.4 1-1.4 1.7 0 1.1.8 2 2.2 2 1 0 1.8-.5 2.3-.8.2.5.5.8 1 .8.6 0 1.2-.2 1.8-.4l-.1-.3c-.2 0-.6.1-.8 0-.3-.1-.5-.3-.5-1.2v-3.5h-.1zm-1.3 3.2c0 1.1-1 1.4-1.6 1.4-1 0-1.4-.6-1.4-1.4 0-.7.3-1 1.2-1.3.6-.2 1.4-.5 1.8-.7v2zM139.7 21.2c0-1.4-.8-2.2-2.3-2.2-1.1 0-1.9.5-2.8 1.1l-.2-1.1-2.3.4v.4l.6.1c.4.1.5.1.5.6v4.4c0 .7 0 .7-1.2.8v.3h3.8v-.4c-1.1-.1-1.2-.1-1.2-.8v-3.3c0-.4 0-.5.2-.8.3-.5 1-1 1.8-1 1 0 1.6.5 1.6 1.8v3.3c0 .7 0 .7-1.2.8v.4h3.8v-.4c-1.1-.1-1.2-.1-1.2-.8v-3.6h.1zM143.5 16c-.6 0-.9.4-.9.9s.4.8.9.8c.6 0 .9-.3.9-.8 0-.6-.4-.9-.9-.9zm-1.8 3.3v.4l.6.1c.4.1.5.1.5.6v4.4c0 .7 0 .7-1.2.8v.4h3.8v-.4c-1.1-.1-1.2-.1-1.2-.8V19l-.1-.1-2.4.4zM150.6 19.7v-.6h-2v-1.8h-.4l-.9 1.8h-1.2v.6h1.1v4.9c0 1.4 1.2 1.6 1.7 1.6.8 0 1.5-.4 2-.6l-.1-.3c-.4.1-.7.2-1.1.2-.5 0-1-.3-1-1.4v-4.4h1.9zM153.3 22.6c0-1.9.7-3.1 2.1-3.1 1.4 0 2.1 1.2 2.1 3.1 0 1.9-.7 3.1-2.1 3.1-1.5 0-2.1-1.2-2.1-3.1zm2-3.6c-2.5 0-3.7 1.3-3.7 3.6s1.2 3.6 3.7 3.6 3.7-1.3 3.7-3.6c.1-2.3-1.2-3.6-3.7-3.6zM162.7 21.5c0-.4 0-.6.2-.8.4-.7 1-1 1.9-1 .6 0 2 .3 2 2.8 0 2.1-.7 3.2-2.2 3.2-.8 0-1.4-.4-1.7-1.1-.1-.3-.1-.5-.1-.9v-2.2h-.1zm-1.2 4.7l.6-.5c.5.3 1.2.5 2.3.5 2.1 0 3.8-.9 3.8-3.8 0-.9-.2-3.5-3-3.5-1.2 0-2.1.7-2.7 1v-4.3l-.1-.1-2.4.4v.4l.6.1c.4 0 .5.1.5.6v9.1l.4.1zM175.7 20.8c0-.8-.2-1.9-2.5-1.9-1.7 0-3.1.8-3.1 1.6 0 .4.6.7.9.7.3 0 .4-.2.5-.4.3-1 1-1.4 1.6-1.4.6 0 1.3.3 1.3 1.4v.6c-.4.4-1.9.7-3.1 1.1-1.1.3-1.4 1-1.4 1.7 0 1.1.8 2 2.2 2 1 0 1.8-.5 2.3-.8.2.5.5.8 1 .8.6 0 1.2-.2 1.8-.4l-.1-.3c-.2 0-.6.1-.8 0-.3-.1-.5-.3-.5-1.2v-3.5h-.1zm-1.4 3.2c0 1.1-1 1.4-1.6 1.4-1 0-1.4-.6-1.4-1.4 0-.7.3-1 1.2-1.3.6-.2 1.4-.5 1.8-.7v2z"/><path d="M12.7 4.8v6.5h6.1c1.1 2.4 2.3 4.8 3.5 7.3l3.5 7.3h.1l3.6-7.3c1.2-2.4 2.4-4.8 3.5-7.2h6v.8c-2.6.2-2.7.2-2.7 1.7v13.8c0 1.5.1 1.6 2.7 1.7v.8h-8.4v-.8c2.6-.2 2.7-.2 2.7-1.7V13.8h-.1l-7.8 16h-.8l-7.7-16h-.1v10.8c0 1.4.1 2.5.2 3.4.2 1.1.9 1.2 2.8 1.4v.8h-7.1v-.8c1.6-.1 2.3-.2 2.5-1.4.2-.9.2-1.9.2-3.4V13.8c0-1.5-.1-1.6-2.7-1.7v83.1h90.4V4.8H12.7zm49.1 17.5c-2 .2-2.1.3-2.1 1.7v5.4c-1.9.5-4.8 1.1-6.9 1.1-2.6 0-5.3-.3-7.6-1.7-2.2-1.4-3.7-4.2-3.7-7.7 0-2.8.7-5 2.2-6.8 1.7-2 4.7-3.4 9.2-3.4 2.4 0 5 .5 6.4 1.1v4.3h-.9c-.6-3.1-2.5-4.4-5.8-4.4-5.9 0-7.8 4.5-7.8 8.8 0 3.4 1.3 9 8.2 9 1 0 1.9-.1 2.6-.4.6-.2 1-.5 1-1.5V24c0-1.3-.1-1.5-3.2-1.7v-.8h8.3v.8zM79 30.1H63.1v-.8c2.6-.2 2.7-.2 2.7-1.7V13.8c0-1.5-.1-1.6-2.7-1.7v-.8h15.1v4.5h-.9c-.4-2.8-1.1-3.5-4.5-3.5h-2.9c-1 0-1.1.1-1.1 1v6.6H73c2.5 0 2.7-.7 2.9-2.3h.9v5.8h-.9c-.3-1.7-.4-2.4-2.9-2.4h-4.2v6c0 1.3.1 1.8.8 2 .6.2 1.7.3 3.1.3 3.8 0 5.1-.4 5.8-3.8h.9l-.4 4.6zm24.1-18c-2.6.2-2.7.2-2.7 1.7v9.4c0 1.6-.3 3.1-.8 4-1.4 2.7-4.5 3.3-7.5 3.3-2.9 0-6.1-.7-7.5-3.3-.5-.9-.8-2.4-.8-4v-9.4c0-1.5-.1-1.6-2.7-1.7v-.8h8.4v.8c-2.6.2-2.7.2-2.7 1.7v8.8c0 2.6.4 4.2 1.3 5.3.9 1.1 2.3 1.6 4 1.6 1.7 0 3.1-.5 4-1.6.9-1.1 1.3-2.7 1.3-5.3v-8.8c0-1.5-.1-1.6-2.7-1.7v-.8h8.4v.8z" fill="#bbbbba"/></svg>