<svg id="Layer_1" xmlns="http://www.w3.org/2000/svg" viewBox="0 0 210 100"><style>.st0{fill:#bbbbba}</style><path class="st0" d="M31.5 30.5C20.7 30.5 12 39.3 12 50c0 10.8 8.7 19.5 19.5 19.5C42.2 69.5 51 60.8 51 50c0-10.7-8.8-19.5-19.5-19.5zm-7.2 27.1h-5v-6.1c0-7.5 6.3-9 8.9-9h8.1c-2.6.2-14.2 4.9-12 15.1zm11.2 0h-7c-3-12.5 10.7-15.1 10.4-15.1h2.8c-6.8 2.1-9.9 9-6.2 15.1zm8 0h-3.2c-5-7.1-2.7-12.6 3.2-15.1v15.1zM72.7 54.9h.9c.8 0 1.5.3 1.5 1.3 0 1.3-1.1 1.8-2.3 1.8H72l.7-3.1zm-5 9h3l.8-3.9h1.6c2.7 0 5-1.4 5-4.3 0-2.8-2.5-3.1-5-3.1h-3l-2.4 11.3zM87.8 55.6h-2.9l-.8 3.9c-.2 1.2-1 2.3-2.1 2.3-.8 0-1.2-.4-1.2-1 0-.4.1-.9.2-1.2l.8-3.9h-3l-.8 3.9c-.2.9-.3 1.2-.3 1.8 0 1.7.9 2.9 2.6 2.9 1.5 0 2.4-.6 3.3-1.6l-.3 1.3H86c.1-.8.2-1.5.4-2.2l1.4-6.2zM90.1 63.9l.4-1.6c.5 1.2 1.5 1.8 2.9 1.8 3 0 4.4-2.6 4.4-5.3 0-1.9-1.1-3.5-3.1-3.5-1.1 0-1.9.4-2.7 1.2l1.1-4.7h-2.8l-2.2 10c-.2.8-.4 1.6-.6 2.1h2.6zm1.2-3.7c0-1.2.8-2.7 2.2-2.7.9 0 1.4.7 1.4 1.7 0 1.3-.8 2.6-2.2 2.6-1 .2-1.4-.7-1.4-1.6zM98.4 63.9h3.1l2.4-12H101zM103.5 63.9h2.9l1.8-8.4h-2.9l-1.8 8.4zm2-9.7h2.9l.4-2.1H106l-.5 2.1zM115.5 61.6c-.6.3-1.2.4-1.9.4-1.2 0-2-.8-2-1.9 0-1.8 1.1-2.7 2.6-2.7.6 0 1.2.2 1.9.4l.6-2c-.9-.4-1.9-.5-2.7-.5-3.2 0-5.4 2.2-5.4 5 0 2.1 1.5 3.8 4 3.8 1.2 0 1.9-.1 2.5-.4l.4-2.1zM120.9 63.9h3l2.3-11.2h-3zM125.6 63.9h2.9l.8-3.9c.2-1.2 1-2.3 2.1-2.3.8 0 1.2.4 1.2 1 0 .4-.1.9-.2 1.2l-.8 3.9h3l.8-3.9c.2-.9.3-1.2.3-1.8 0-1.7-.9-2.9-2.6-2.9-1.5 0-2.4.6-3.3 1.6l.3-1.3h-2.7c-.1.8-.2 1.5-.4 2.2l-1.4 6.2zM135.9 63.7c.9.3 2.2.4 3.5.4 2.2 0 3.9-1.1 3.9-3.1 0-2.1-3.6-2-3.6-3 0-.6.7-.7 1.3-.7.9 0 1.6.2 2.3.4l.6-1.9c-1.1-.4-2-.5-2.7-.5-1.9 0-4.3.8-4.3 2.7 0 2.7 3.5 2.1 3.5 3.4 0 .7-1.2.7-1.6.7-.8 0-1.6-.2-2.4-.4l-.5 2zM154.3 55.6h-2.9l-.8 3.9c-.2 1.2-1 2.3-2.1 2.3-.8 0-1.2-.4-1.2-1 0-.4.1-.9.2-1.2l.8-3.9h-3l-.8 3.9c-.2.9-.3 1.2-.3 1.8 0 1.7.9 2.9 2.6 2.9 1.5 0 2.4-.6 3.3-1.6l-.3 1.3h2.7c.1-.8.2-1.5.4-2.2l1.4-6.2zM155.8 55.6c-.1.8-.2 1.5-.4 2.2l-1.3 6.2h2.9l.8-3.9c.2-1.2 1-2.3 2.1-2.3.5 0 1 .1 1.3.4l.6-2.6c-.4-.2-.8-.2-1.2-.2-1.2 0-2.1 1-2.6 1.9l.4-1.7h-2.6zM166.7 63.9h2.4c.4-2.6 1.1-4.4 1.1-5.8 0-2-1.7-2.8-3.6-2.8-1.3 0-2.2.2-3.1.4l-.3 2.1c1-.5 1.7-.6 2.7-.6 1 0 1.5.4 1.5 1.1v.4c-.4 0-1-.1-1.6-.1-2.6 0-4.6 1-4.6 3.1 0 1.6 1 2.4 2.8 2.4 1.2 0 2.2-.4 2.8-1.3l-.1 1.1zm-2.8-2.6c0-.7 1-1.2 2.4-1.2.2 0 .5 0 .8.1-.2 1.2-1 1.9-2.2 1.9-.6.1-1-.3-1-.8zM170.5 63.9h2.9l.8-3.9c.2-1.2 1-2.3 2.1-2.3.8 0 1.2.4 1.2 1 0 .4-.1.9-.2 1.2l-.8 3.9h3l.8-3.9c.2-.9.3-1.2.3-1.8 0-1.7-.9-2.9-2.6-2.9-1.5 0-2.4.6-3.3 1.6l.3-1.3h-2.7c-.1.8-.2 1.5-.4 2.2l-1.4 6.2zM188.3 61.6c-.6.3-1.2.4-1.9.4-1.2 0-2-.8-2-1.9 0-1.8 1.1-2.7 2.6-2.7.6 0 1.2.2 1.9.4l.6-2c-.9-.4-1.9-.5-2.7-.5-3.2 0-5.4 2.2-5.4 5 0 2.1 1.5 3.8 4 3.8 1.2 0 1.9-.1 2.5-.4l.4-2.1zM196.8 61.6c-.8.4-1.9.6-2.7.6-1.8 0-2.2-.7-2.2-1.6h5.9c.1-.5.2-1.2.2-1.6 0-2.6-1.7-3.6-3.9-3.6-3.7 0-5 3-5 5 0 2.1 1.5 3.8 4.3 3.8.8 0 1.9-.2 2.9-.4l.5-2.2zm-4.7-2.7c.2-.8.9-1.7 2.1-1.7 1.1 0 1.4.8 1.4 1.7h-3.5zM71.2 47.9h2.7l2-9.2.4 9.2h2.8l4.5-9.2h.1l-2.1 9.2h2.9l2.4-11.3h-4.8l-3.5 7.6h-.1l-.2-7.6h-4.7zM91.8 47.9h2.4c.4-2.6 1.1-4.4 1.1-5.8 0-2-1.7-2.8-3.6-2.8-1.3 0-2.2.2-3.1.4l-.4 2.1c1-.5 1.7-.6 2.7-.6 1 0 1.5.4 1.5 1.1v.4c-.4 0-1-.1-1.6-.1-2.6 0-4.6 1-4.6 3.1 0 1.6 1 2.4 2.8 2.4 1.2 0 2.2-.4 2.8-1.3v1.1zM89 45.2c0-.7 1-1.2 2.4-1.2.2 0 .5 0 .8.1-.2 1.2-1 1.9-2.2 1.9-.7.1-1-.3-1-.8zM95.6 47.9h2.9l.8-3.9c.2-1.2 1-2.3 2.1-2.3.8 0 1.2.4 1.2 1 0 .4-.1.9-.2 1.2l-.8 3.9h3l.8-3.9c.2-.9.3-1.2.3-1.8 0-1.7-.9-2.9-2.6-2.9-1.5 0-2.4.6-3.3 1.6l.3-1.3h-2.7c-.1.8-.2 1.5-.4 2.2l-1.4 6.2zM106.3 47.9h2.9l1.8-8.4h-2.9l-1.8 8.4zm2.1-9.9h2.9l.4-2.1h-2.9l-.4 2.1zM111.8 41.5h1.5l-.5 2.4c-.2.9-.3 1.3-.3 1.7 0 1.8 1.2 2.5 2.7 2.5.6 0 1.2-.1 1.8-.2l.4-1.9c-.3.1-.6.3-1 .3-.6 0-1-.4-1-1 0-.4.1-.8.3-1.4l.5-2.3h2.1l.4-2h-2l.6-2.7-3.1.8-.4 1.8H112l-.2 2zM125.1 43c0 1.9-.9 3-2.2 3-1 0-1.6-.7-1.6-1.9 0-1.3.9-2.8 2.3-2.8 1.2 0 1.5.8 1.5 1.7zm3 0c0-2.1-1.5-3.7-4.3-3.7-3.3 0-5.4 2-5.4 5 0 2.1 1.2 3.8 4.3 3.8 3.1 0 5.4-1.6 5.4-5.1zM130.7 47.9l.4-1.6c.5 1.2 1.5 1.8 2.9 1.8 3 0 4.4-2.6 4.4-5.3 0-1.9-1.1-3.5-3.1-3.5-1.1 0-1.9.4-2.7 1.2l1.1-4.7h-2.8l-2.2 10c-.2.8-.4 1.6-.6 2.1h2.6zm1.1-3.8c0-1.2.8-2.7 2.2-2.7.9 0 1.4.7 1.4 1.7 0 1.3-.8 2.6-2.2 2.6-.9.1-1.4-.7-1.4-1.6zM144.4 47.9h2.4c.4-2.6 1.1-4.4 1.1-5.8 0-2-1.7-2.8-3.6-2.8-1.3 0-2.2.2-3.1.4l-.3 2.1c1-.5 1.7-.6 2.7-.6 1 0 1.5.4 1.5 1.1v.4c-.4 0-1-.1-1.6-.1-2.6 0-4.6 1-4.6 3.1 0 1.6 1 2.4 2.8 2.4 1.2 0 2.2-.4 2.8-1.3l-.1 1.1zm-2.7-2.7c0-.7 1-1.2 2.4-1.2.2 0 .5 0 .8.1-.2 1.2-1 1.9-2.2 1.9-.7.1-1-.3-1-.8z"/></svg>