<svg id="Layer_1" xmlns="http://www.w3.org/2000/svg" viewBox="0 0 210 100"><style>.st0,.st1{fill:#bbbbba}.st1{fill-rule:evenodd;clip-rule:evenodd}</style><path class="st0" d="M101 45.9c-.6 1.8-1.4 3.3-2.5 3.3-.8 0-.7-1.4 0-3.3.6-1.8 1.6-3.4 2.4-3.4 1 .1.7 1.6.1 3.4zm2-7.7l-.4 1.5c-.6-1.1-1.6-1.7-2.9-1.7-3 0-6.2 3.6-7.4 8-1.2 4.5 0 8.1 3 8.1 1.3 0 2.7-1.2 3.9-2.9l-.7 2.3h5.2l4.7-15.4H103v.1zM135.5 45.9c-.6 1.8-1.4 3.3-2.5 3.3-.8 0-.7-1.4-.1-3.3.6-1.8 1.6-3.4 2.4-3.4 1.1.1.9 1.6.2 3.4zm2.1-7.7l-.4 1.5c-.6-1.1-1.6-1.7-2.9-1.7-3 0-6.2 3.6-7.4 8-1.1 4.5 0 8.1 3 8.1 1.4 0 2.7-1.2 3.9-2.9l-.7 2.3h5.3l4.7-15.4h-5.5v.1z"/><path class="st1" d="M150.4 44.8c.1-.6 0-1.2-.4-1.3-.5-.2-1.3.3-1.8 1.2 0 .1-.1.2-.1.4l-2.7 8.5h-5.5l4.8-15.4h5.5l-.7 2.2c1.3-2.2 3.8-3.3 5.7-2.3 1.9.9 1.7 2.8 1.2 4.9l-3.3 10.6h-5.5l2.8-8.8zM90.9 46.5c-2.3 7.8-7.6 9.2-10.2 8.5-1.4-.5-2.5-1.5-3-3.1-1.3 2.1-3.7 3.9-6.4 3.1-2.8-.9-3.4-4.1-1.9-8.5l5.4-16.7h5.4l-5.6 17.6c-.3.9-.1 1.6.7 1.6.7 0 1.3-.6 1.7-1.6 0-.1.1-.3.2-.4l5.5-17.2h5.4l-5.6 17.6c-.3.9-.1 1.6.7 1.6.7 0 1.3-.6 1.7-1.6 0-.1.1-.3.1-.4l5.6-17.2h5.6l-5.3 16.7z"/><path class="st0" d="M190.4 45.9c-.6 1.8-1.4 3.3-2.5 3.3-.8 0-.7-1.4-.1-3.3.7-1.8 1.6-3.4 2.4-3.4 1.1.1.9 1.6.2 3.4zm2.1-7.7l-.5 1.5c-.6-1.1-1.6-1.7-2.9-1.7-3 0-6.2 3.6-7.4 8-1.2 4.5 0 8.1 3 8.1 1.4 0 2.7-1.2 3.9-2.9l-.7 2.3h5.3l4.7-15.4h-5.4v.1zM163.2 42.9c.6-1.1 1.4-1.3 1.9-1 .4.3.5.8.3 1.8h-2.6c.1-.2.3-.5.4-.8zm6.7 4c1.2-3.5 1-7.4-1.6-8.7-3-1.5-7.3-.1-10.1 3.8-2.8 4-3.1 9.2-.1 10.9 3.1 1.7 7.2.6 10-3.1l-4.1-2.1c-.6 1.1-1.6 1.7-2.3 1.4-.6-.3-.6-1.3-.2-2.2h8.4z"/><path class="st1" d="M114.8 50.7c-.8 1.4-2.4 3.2-4.7 3.2-4.1 0-3.6-4.3-2.8-6.7.7-2.4 2.9-9.1 2.9-9.1h5.1L112 48.6c-.2.6.1 1 .5 1s.8-.2 1.1-1l3.4-10.4h4.8l-3.3 10.3c-.2.6 0 .9.5.9.4 0 .7-.1 1-.8l3.4-10.4h5s-1.7 5.8-3.1 9.9c-1.4 4.2-3.7 5.8-7 5.8-2.3-.1-3.4-1.5-3.5-3.2z"/><path class="st0" d="M160.8 63c.4-.7 1-.8 1.3-.6.3.2.3.5.2 1.2h-1.7c.1-.3.2-.5.2-.6zm4.5 2.6c.8-2.3.6-4.9-1.1-5.8-2-1-4.8-.1-6.7 2.5-1.8 2.6-2.1 6.1 0 7.2 2 1.1 4.8.4 6.6-2l-2.7-1.4c-.4.7-1.1 1.1-1.5.9-.4-.2-.4-.9-.1-1.5h5.5v.1zM132.6 64.7c-.4 1.2-.9 2.2-1.6 2.2-.5 0-.5-1 0-2.2.4-1.2 1.1-2.2 1.6-2.2.6 0 .5 1 0 2.2zm1.4-5.1l-.3 1c-.4-.7-1.1-1.1-1.9-1.1-2 0-4.1 2.4-4.9 5.3-.8 2.9 0 5.3 2 5.3.9 0 1.8-.8 2.6-1.9l-.4 1.5h3.5l3.1-10.2H134v.1z"/><path class="st1" d="M173.4 46.6c-1.8-1.3-2.5-3.3-1.6-5.5 1-2.7 3.9-4.4 7.7-3.6 1.8.4 2.4.8 3.4 1.5l-3 3.8c-.1-.3-.4-.7-.9-1-.9-.5-1.8-.5-2.1.1-.3.5-.4 1.2 1 1.8l.2.1c.9.6 2 1 2.4 3.5 0 4.6-4.6 6.7-8.3 6-1.5-.3-2.6-.7-4-1.9l3-3.9c.2.5.5 1 1.2 1.3.9.5 2 .3 2.3-.3.3-.6.3-1.2-.9-1.8l-.4-.1zM142.9 64.1c.1-.4 0-.8-.2-.9-.3-.1-.9.2-1.2.8 0 .1-.1.2-.1.2l-1.8 5.6H136l3.2-10.2h3.6l-.5 1.5c.8-1.5 2.5-2.2 3.8-1.6 1.2.6 1.1 1.9.8 3.3l-2.2 7h-3.6l1.8-5.7zM97.8 64.4c.1-.4 0-.8-.2-.9-.3-.1-.9.2-1.2.8 0 .1-.1.1-.1.2l-1.7 5.6H91L94 60h3.6l-.4 1.5c.8-1.5 2.5-2.2 3.8-1.6 1.2.6 1.1 1.9.8 3.3l-2.2 7H96l1.8-5.8zM90.1 55.7H94l-4.7 14.4h-3.9l4.7-14.4zM111.7 59.8h3.7l-2.1 6.3c-.1.4-.1.8.4.9.4.1.7-.2.9-.5l2.3-6.6h3.7l-2.2 6.5c-.8 2.3-2.8 3.9-5.7 3.9-3 0-3.8-1.9-3.2-3.9.7-2.2 2.2-6.6 2.2-6.6zM121.7 59.8s-3 8.9-3.3 10h3.7s1-2.9 1.2-3.6c0 0 .9-4 3.5-2.6l1.4-4.2s-1.6-.3-3.1 1.3l.4-1h-3.8v.1zM153.4 63.4c0-.5-.1-1-.3-1.1-.6-.2-1.3.4-2.1 2-.6 1.3-.8 2.5-.1 2.8.4.2 1.1-.3 1.6-1.2l2.7 1.2c-1.5 2.8-4.9 3.9-6.8 2.7-2-1.2-1.9-4.1-.3-6.9 1.7-2.9 5-4.1 7.1-3.1 1.2.6 1.5 1.9 1.4 3.4l-3.2.2zM12 49.6c0-.6 0-1.3.1-1.9 2.4.2 2.9 1.3 5 1.3 2.4 0 3.5-1.4 5.9-1.4 2.3 0 3.5 1.3 5.8 1.4 1 0 1.8-.3 2.6-.6v1.9c-.8.3-1.6.6-2.6.6-2.3 0-3.5-1.4-5.9-1.4-2.3 0-3.5 1.4-5.9 1.4-2 .1-2.4-1.1-5-1.3zM40.7 57.9c-.6 0-1.1-.1-1.5-.2l1.7-1.8c2.2 0 2.6-1.4 5.7-1.4 3.2 0 3.6 1.4 5.9 1.4 1.8 0 2.9-.8 4.3-1.1-.1.7-.3 1.4-.6 2.1-1.2.4-2.2 1-3.7 1-2.4 0-2.7-1.4-5.9-1.4-3.2.1-3.6 1.4-5.9 1.4zM25.6 29.2c2.8-1.2 5.8-1.9 9-1.9s6.3.6 9 1.8c-.9.4-1.6.8-3 .8-2.4 0-3.6-1.4-5.9-1.3-2.3 0-3.5 1.3-5.8 1.3-1.3.1-2.3-.3-3.3-.7zM19.7 33c1.2-1 2.5-2 3.9-2.8 2 .1 3.2 1.3 5.3 1.3 2.4 0 3.5-1.4 5.9-1.4 2.4 0 3.6 1.4 5.9 1.4 2.1 0 2.7-1.2 5.1-1.3 1.2.7 2.3 1.4 3.4 2.3-.6-.2-1.4-.4-2.6-.4-3.1 0-3.5 1.4-5.9 1.4-2.4 0-3.6-1.4-5.9-1.4-2.3 0-3.5 1.4-5.8 1.4s-3.5-1.4-5.9-1.4c-1.4.1-2.4.6-3.4.9zM16.2 36.9c.5-.6.9-1.3 1.5-1.9 2.1-.1 3.2-1.3 5.4-1.3 2.3 0 3.5 1.3 5.8 1.4 2.4 0 3.5-1.4 5.9-1.4 2.4 0 3.6 1.4 5.9 1.4 2.4 0 2.7-1.4 5.9-1.4 2.8 0 3.4 1.1 5.1 1.3.5.6 1.1 1.3 1.5 1.9h-.7c-2.4 0-2.7-1.4-5.9-1.4-3.1 0-3.5 1.4-5.9 1.4-2.4 0-3.6-1.4-5.9-1.4-2.3 0-3.5 1.3-5.8 1.4-2.3 0-3.5-1.4-5.9-1.4-2.3 0-3.5 1.4-5.9 1.4-.4.1-.7.1-1 0zM14.4 39.8c.3-.5.5-1 .9-1.6.5.2 1.1.3 1.9.3 2.4 0 3.5-1.4 5.9-1.4s3.5 1.3 5.8 1.4c2.4 0 3.5-1.4 5.9-1.4 2.4 0 3.6 1.4 5.9 1.4 2.4 0 2.7-1.4 5.9-1.4s3.6 1.4 5.9 1.4c.6 0 1.1-.1 1.6-.2.3.5.6 1.1.9 1.6-.7.3-1.5.5-2.5.5-2.4 0-2.7-1.4-5.9-1.4-3.1 0-3.5 1.4-5.9 1.4-2.4 0-3.6-1.4-5.9-1.4-2.3 0-3.5 1.4-5.8 1.4S25.5 39 23.1 39c-2.3 0-3.5 1.4-5.9 1.4-1.3.1-1.9-.2-2.8-.6zM13.2 42.9c.2-.6.4-1.2.6-1.7 1.2.4 1.8 1 3.4 1 2.4 0 3.5-1.4 5.9-1.4 2.3 0 3.5 1.3 5.8 1.4 2.4 0 3.5-1.4 5.9-1.4 2.4 0 3.6 1.4 5.9 1.4 2.4 0 2.7-1.4 5.9-1.4s3.6 1.4 5.9 1.4c1.2 0 2.2-.4 3.1-.8.2.6.4 1.1.6 1.7-1.2.4-2.2 1-3.8 1-2.4 0-2.7-1.4-5.9-1.4-3.1 0-3.5 1.4-5.9 1.4-2.4 0-3.6-1.4-5.9-1.4-2.3 0-3.5 1.4-5.8 1.4s-3.5-1.4-5.9-1.4c-2.3 0-3.5 1.4-5.9 1.4-1.7-.1-2.3-.9-3.9-1.2zM12.3 46.2c.1-.6.2-1.3.4-1.9 1.9.3 2.5 1.3 4.5 1.3 2.4 0 3.5-1.4 5.9-1.4s3.5 1.3 5.8 1.4c2.4 0 3.5-1.4 5.9-1.4 2.4 0 3.6 1.4 5.9 1.4 2.4 0 2.7-1.4 5.9-1.4s3.6 1.4 5.9 1.4c1.7 0 2.8-.7 4.2-1.1.1.6.3 1.2.4 1.8-1.5.3-2.7 1.2-4.5 1.2-2.4 0-2.7-1.4-5.9-1.4-3.1 0-3.5 1.4-5.9 1.4-2.4 0-3.6-1.4-5.9-1.4-2.3 0-3.5 1.4-5.8 1.4s-3.5-1.4-5.9-1.4c-2.3 0-3.5 1.4-5.9 1.4-2.2 0-2.7-1.1-5-1.3zM44.6 70.3c-3 1.5-6.4 2.3-10 2.3-3.6 0-6.9-.8-9.9-2.3h19.9zM49.4 67.2L47 69H22.3c-.8-.5-1.6-1.1-2.4-1.8h29.5zM30.1 57.8c-.3.1-.7.1-1.2.1-2.3 0-3.5-1.4-5.9-1.4-2.3 0-3.5 1.4-5.9 1.4-1.8 0-2.4-.8-4.1-1.2-.2-.7-.4-1.3-.5-2 2.1.3 2.6 1.3 4.6 1.3 2.4 0 3.5-1.3 5.9-1.4 2.3 0 3.5 1.3 5.8 1.4l.9.8c.1.2.2.5.3.7.1.2.1.2.1.3zM30.6 52.6l.1.1.7.5c-.3-.2-.7-.5-1-.8l.2.2z"/><path class="st1" d="M30.3 52.3c.4-.1.8-.2 1.2-.4v1.3l-.7-.5-.1-.1-.2-.1-.2-.2zM27.1 54.2c-1.3-.4-2.4-1.1-4.1-1.1-2.3 0-3.5 1.4-5.9 1.4-2.1 0-2.6-1.1-4.9-1.3-.1-.6-.1-1.3-.2-2 2.5.2 3 1.3 5.1 1.3 2.4 0 3.5-1.4 5.9-1.4.4 0 .8 0 1.1.1l1.4 1.4 1.6 1.6zM37.8 53.8l-.1-2c.5.2 1 .4 1.6.5l-1.5 1.5zM46.5 53.1c-1.9 0-2.8.5-3.8.9l2.7-2.8h1.1c3.2 0 3.6 1.4 5.9 1.4 2 0 3.1-.9 4.8-1.3 0 .7-.1 1.3-.2 2-1.6.3-2.7 1.2-4.6 1.2-2.3 0-2.6-1.4-5.9-1.4zM37.7 48.3c.9.3 1.8.7 3 .7 2.4 0 2.7-1.4 5.9-1.4s3.6 1.4 5.9 1.4c1.9 0 3.1-.9 4.7-1.3.1.6.1 1.3.1 1.9-1.7.4-2.9 1.4-4.8 1.4-2.4 0-2.7-1.4-5.9-1.4-3.1 0-3.5 1.4-5.9 1.4-1.2 0-2.1-.3-3-.7v-2z"/><path class="st1" d="M52.5 63.9c-.5.7-1.1 1.3-1.7 1.9H18.5c-.6-.6-1.1-1.3-1.7-1.9h14.3V58s0-1.1-.6-1.9L26.3 52s1.5.6 2.7.6l2.8 2.3s.7.4.7-.4v-6.3s2.1-1 4.2-.1v7.2s0 1.1.9.2l2.9-2.9s.8 0 1.7-.2c0 0 .8-.3 1.2-.5h.1l-6 6.2s-.3.5-.3 1.6v4.4h15.3v-.2zM103.8 65.9c-1.2-.9-1.7-2.2-1-3.6.7-1.8 2.6-2.9 5.1-2.4 1.2.2 1.6.6 2.3 1l-2 2.6c-.1-.2-.3-.5-.6-.6-.6-.3-1.2-.3-1.4 0-.2.4-.2.8.7 1.2l.1.1c.6.4 1.3.7 1.6 2.4 0 3.1-3 4.5-5.5 4-1-.2-1.7-.5-2.6-1.3l2-2.6c.1.3.3.6.8.9.6.3 1.3.2 1.5-.2.2-.4.2-.8-.6-1.2l-.4-.3z"/></svg>