<?xml version="1.0" encoding="utf-8"?>
<!-- Generator: Adobe Illustrator 22.0.1, SVG Export Plug-In . SVG Version: 6.00 Build 0)  -->
<svg version="1.1" id="Layer_1" xmlns="http://www.w3.org/2000/svg" xmlns:xlink="http://www.w3.org/1999/xlink" x="0px" y="0px"
	 viewBox="0 0 781.4 234.7" style="enable-background:new 0 0 781.4 234.7;" xml:space="preserve">
<style type="text/css">
	.st0{fill:#FFFFFF;}
</style>
<path class="st0" d="M0.2,0.1v235.4h781V0.1H0.2z M4.2,4.1h228v227.4H4.2V4.1z M777.2,231.5h-541V4.1h541V231.5z"/>
<g>
	<path class="st0" d="M302.1,139.4c0,3.2-2.6,5.8-5.8,5.8h-3.1v3.1c0,0.7-0.6,1.3-1.3,1.3s-1.3-0.6-1.3-1.3V135
		c0-0.7,0.6-1.3,1.3-1.3h4.4C299.6,133.7,302.1,136.3,302.1,139.4z M299.5,139.4c0-1.7-1.4-3.1-3.1-3.1h-3.1v6.2h3.1
		C298.1,142.6,299.5,141.2,299.5,139.4z"/>
	<path class="st0" d="M311.9,149.6c-4.4,0-8-3.6-8-8c0-4.4,3.6-8,8-8c4.4,0,8,3.6,8,8C319.9,146.1,316.3,149.6,311.9,149.6z
		 M311.9,136.3c-2.9,0-5.3,2.4-5.3,5.3c0,2.9,2.4,5.3,5.3,5.3c2.9,0,5.3-2.4,5.3-5.3C317.3,138.7,314.9,136.3,311.9,136.3z"/>
	<path class="st0" d="M326.9,149.6c-2,0-3.2-0.8-3.9-1.5c-0.8-0.9-1.3-2.1-1.3-3.3c0-0.7,0.6-1.3,1.3-1.3s1.3,0.6,1.3,1.3
		c0,0.8,0.5,2.2,2.6,2.2s2.6-1.4,2.6-2.2c0-1.2-0.7-1.6-2.9-2.2c-1-0.3-2-0.6-2.9-1.2c-1.1-0.8-1.7-1.9-1.7-3.3
		c0-1.1,0.5-2.2,1.2-3.1c0.6-0.7,1.8-1.4,3.7-1.4c1.9,0,3,0.8,3.7,1.4c0.8,0.8,1.2,1.9,1.2,3.1c0,0.7-0.6,1.3-1.3,1.3
		c-0.7,0-1.3-0.6-1.3-1.3c0-0.7-0.5-1.9-2.2-1.9s-2.2,1.2-2.2,1.9c0,0.9,0.3,1.2,2.7,1.9c1,0.3,2.1,0.6,3,1.2c1.2,0.8,1.8,2,1.8,3.5
		c0,1.2-0.5,2.4-1.3,3.3C330.1,148.8,328.9,149.6,326.9,149.6z"/>
	<path class="st0" d="M345.5,135c0,0.7-0.6,1.3-1.3,1.3h-3.6v12c0,0.7-0.6,1.3-1.3,1.3c-0.7,0-1.3-0.6-1.3-1.3v-12h-3.6
		c-0.7,0-1.3-0.6-1.3-1.3s0.6-1.3,1.3-1.3h9.9C344.9,133.7,345.5,134.3,345.5,135z"/>
	<path class="st0" d="M364.8,139.4c0,3.2-2.6,5.8-5.8,5.8h-3.1v3.1c0,0.7-0.6,1.3-1.3,1.3s-1.3-0.6-1.3-1.3V135
		c0-0.7,0.6-1.3,1.3-1.3h4.4C362.2,133.7,364.8,136.3,364.8,139.4z M362.2,139.4c0-1.7-1.4-3.1-3.1-3.1h-3.1v6.2h3.1
		C360.7,142.6,362.2,141.2,362.2,139.4z"/>
	<path class="st0" d="M368.3,149.6c-0.7,0-1.3-0.6-1.3-1.3V135c0-0.7,0.6-1.3,1.3-1.3s1.3,0.6,1.3,1.3v13.3
		C369.6,149,369,149.6,368.3,149.6z"/>
	<path class="st0" d="M379.7,149.6c-4.4,0-8-3.6-8-8c0-4.4,3.6-8,8-8c2.3,0,4.5,1,6,2.7c0.5,0.6,0.4,1.4-0.1,1.9
		c-0.5,0.5-1.4,0.4-1.9-0.1c-1-1.2-2.5-1.8-4-1.8c-2.9,0-5.3,2.4-5.3,5.3c0,2.9,2.4,5.3,5.3,5.3c1.5,0,3-0.7,4-1.8
		c0.5-0.5,1.3-0.6,1.9-0.1c0.5,0.5,0.6,1.3,0.1,1.9C384.2,148.6,382,149.6,379.7,149.6z"/>
	<path class="st0" d="M400.6,135c0,0.7-0.6,1.3-1.3,1.3h-3.6v12c0,0.7-0.6,1.3-1.3,1.3c-0.7,0-1.3-0.6-1.3-1.3v-12h-3.6
		c-0.7,0-1.3-0.6-1.3-1.3s0.6-1.3,1.3-1.3h9.9C400,133.7,400.6,134.3,400.6,135z"/>
	<path class="st0" d="M409.2,149.6c-3.6,0-6.5-2.9-6.5-6.5V135c0-0.7,0.6-1.3,1.3-1.3s1.3,0.6,1.3,1.3v8.1c0,2.1,1.7,3.9,3.9,3.9
		c2.1,0,3.9-1.7,3.9-3.9V135c0-0.7,0.6-1.3,1.3-1.3c0.7,0,1.3,0.6,1.3,1.3v8.1C415.7,146.7,412.8,149.6,409.2,149.6z"/>
	<path class="st0" d="M428.7,147.4c0.5,0.5,0.5,1.4,0,1.9c-0.2,0.2-0.6,0.4-0.9,0.4c-0.4,0-0.7-0.1-1-0.4l-3.9-4h-2.5v3.1
		c0,0.7-0.6,1.3-1.3,1.3c-0.7,0-1.3-0.6-1.3-1.3V135c0-0.7,0.6-1.3,1.3-1.3h4.4c3.2,0,5.8,2.6,5.8,5.8c0,2.3-1.3,4.2-3.2,5.2
		L428.7,147.4z M420.4,142.6h3.1c1.7,0,3.1-1.4,3.1-3.1s-1.4-3.1-3.1-3.1h-3.1V142.6z"/>
	<path class="st0" d="M442.6,148.3c0,0.7-0.6,1.3-1.3,1.3h-8.7c-0.7,0-1.3-0.6-1.3-1.3V135c0-0.7,0.6-1.3,1.3-1.3h8.7
		c0.7,0,1.3,0.6,1.3,1.3s-0.6,1.3-1.3,1.3H434v3.7h5.1c0.7,0,1.3,0.6,1.3,1.3c0,0.7-0.6,1.3-1.3,1.3H434v4.3h7.3
		C442,147,442.6,147.6,442.6,148.3z"/>
</g>
<g>
	<path class="st0" d="M466.8,149.6c-2,0-3.2-0.8-3.9-1.5c-0.8-0.9-1.3-2.1-1.3-3.3c0-0.7,0.6-1.3,1.3-1.3s1.3,0.6,1.3,1.3
		c0,0.8,0.5,2.2,2.6,2.2c2,0,2.6-1.4,2.6-2.2c0-1.2-0.7-1.6-2.9-2.2c-1-0.3-2-0.6-2.9-1.2c-1.1-0.8-1.7-1.9-1.7-3.3
		c0-1.1,0.5-2.2,1.2-3.1c0.6-0.7,1.8-1.4,3.7-1.4c1.9,0,3,0.8,3.7,1.4c0.8,0.8,1.2,1.9,1.2,3.1c0,0.7-0.6,1.3-1.3,1.3
		c-0.7,0-1.3-0.6-1.3-1.3c0-0.7-0.5-1.9-2.2-1.9c-1.8,0-2.2,1.2-2.2,1.9c0,0.9,0.3,1.2,2.7,1.9c1,0.3,2.1,0.6,3,1.2
		c1.2,0.8,1.8,2,1.8,3.5c0,1.2-0.5,2.4-1.3,3.3C470.1,148.8,468.8,149.6,466.8,149.6z"/>
	<path class="st0" d="M481.8,149.6c-4.4,0-8-3.6-8-8c0-4.4,3.6-8,8-8c4.4,0,8,3.6,8,8C489.8,146.1,486.2,149.6,481.8,149.6z
		 M481.8,136.3c-2.9,0-5.3,2.4-5.3,5.3c0,2.9,2.4,5.3,5.3,5.3c2.9,0,5.3-2.4,5.3-5.3C487.2,138.7,484.8,136.3,481.8,136.3z"/>
	<path class="st0" d="M498.4,149.6c-3.6,0-6.5-2.9-6.5-6.5V135c0-0.7,0.6-1.3,1.3-1.3s1.3,0.6,1.3,1.3v8.1c0,2.1,1.7,3.9,3.9,3.9
		c2.1,0,3.9-1.7,3.9-3.9V135c0-0.7,0.6-1.3,1.3-1.3c0.7,0,1.3,0.6,1.3,1.3v8.1C504.9,146.7,502,149.6,498.4,149.6z"/>
	<path class="st0" d="M518.8,149.6c-0.4,0-0.8-0.2-1-0.5l-8.1-10.3v9.5c0,0.7-0.6,1.3-1.3,1.3s-1.3-0.6-1.3-1.3V135
		c0-0.6,0.4-1.1,0.9-1.2c0.5-0.2,1.1,0,1.5,0.4l8.1,10.3V135c0-0.7,0.6-1.3,1.3-1.3s1.3,0.6,1.3,1.3v13.3c0,0.5-0.4,1-0.9,1.2
		C519.1,149.6,518.9,149.6,518.8,149.6z"/>
	<path class="st0" d="M534.8,141.7c0,4.4-3.6,8-8,8h-3.4c-0.7,0-1.3-0.6-1.3-1.3V135c0-0.7,0.6-1.3,1.3-1.3h3.4
		C531.2,133.7,534.8,137.3,534.8,141.7z M532.1,141.7c0-2.9-2.4-5.3-5.3-5.3h-2V147h2C529.8,147,532.1,144.6,532.1,141.7z"/>
</g>
<g>
	<path class="st0" d="M559.9,149.6c-0.5,0-1-0.3-1.2-0.9l-4.9-13.3c-0.2-0.7,0.1-1.5,0.8-1.7c0.7-0.2,1.5,0.1,1.7,0.8l3.7,9.9
		l3.7-9.9c0.2-0.7,1-1,1.7-0.8c0.7,0.2,1,1,0.8,1.7l-4.9,13.3C560.9,149.3,560.5,149.6,559.9,149.6z"/>
	<path class="st0" d="M569.6,149.6c-0.7,0-1.3-0.6-1.3-1.3V135c0-0.7,0.6-1.3,1.3-1.3c0.7,0,1.3,0.6,1.3,1.3v13.3
		C570.9,149,570.3,149.6,569.6,149.6z"/>
	<path class="st0" d="M578.3,149.6c-2,0-3.2-0.8-3.9-1.5c-0.8-0.9-1.3-2.1-1.3-3.3c0-0.7,0.6-1.3,1.3-1.3s1.3,0.6,1.3,1.3
		c0,0.8,0.5,2.2,2.6,2.2c2,0,2.6-1.4,2.6-2.2c0-1.2-0.7-1.6-2.9-2.2c-1-0.3-2-0.6-2.9-1.2c-1.1-0.8-1.7-1.9-1.7-3.3
		c0-1.1,0.5-2.2,1.2-3.1c0.6-0.7,1.8-1.4,3.7-1.4c1.9,0,3,0.8,3.7,1.4c0.8,0.8,1.2,1.9,1.2,3.1c0,0.7-0.6,1.3-1.3,1.3
		c-0.7,0-1.3-0.6-1.3-1.3c0-0.7-0.5-1.9-2.2-1.9c-1.8,0-2.2,1.2-2.2,1.9c0,0.9,0.3,1.2,2.7,1.9c1,0.3,2.1,0.6,3,1.2
		c1.2,0.8,1.8,2,1.8,3.5c0,1.2-0.5,2.4-1.3,3.3C581.5,148.8,580.3,149.6,578.3,149.6z"/>
	<path class="st0" d="M592.1,149.6c-3.6,0-6.5-2.9-6.5-6.5V135c0-0.7,0.6-1.3,1.3-1.3s1.3,0.6,1.3,1.3v8.1c0,2.1,1.7,3.9,3.9,3.9
		c2.1,0,3.9-1.7,3.9-3.9V135c0-0.7,0.6-1.3,1.3-1.3c0.7,0,1.3,0.6,1.3,1.3v8.1C598.6,146.7,595.7,149.6,592.1,149.6z"/>
	<path class="st0" d="M613,149.5c-0.2,0.1-0.4,0.1-0.5,0.1c-0.5,0-1-0.3-1.2-0.8l-1.4-3.1h-6.5l-1.4,3.1c-0.3,0.7-1.1,1-1.7,0.7
		c-0.7-0.3-1-1.1-0.7-1.7l5.8-13.3c0.2-0.5,0.7-0.8,1.2-0.8s1,0.3,1.2,0.8l5.8,13.3C614,148.4,613.7,149.2,613,149.5z M608.8,143.1
		l-2.1-4.8l-2.1,4.8H608.8z"/>
	<path class="st0" d="M624.8,149.6h-7.6c-0.7,0-1.3-0.6-1.3-1.3V135c0-0.7,0.6-1.3,1.3-1.3s1.3,0.6,1.3,1.3v12h6.3
		c0.7,0,1.3,0.6,1.3,1.3S625.5,149.6,624.8,149.6z"/>
	<path class="st0" d="M645.6,148.3c0,0.7-0.6,1.3-1.3,1.3h-8.7c-0.7,0-1.3-0.6-1.3-1.3V135c0-0.7,0.6-1.3,1.3-1.3h8.7
		c0.7,0,1.3,0.6,1.3,1.3s-0.6,1.3-1.3,1.3h-7.3v3.7h5.1c0.7,0,1.3,0.6,1.3,1.3c0,0.7-0.6,1.3-1.3,1.3h-5.1v4.3h7.3
		C645,147,645.6,147.6,645.6,148.3z"/>
	<path class="st0" d="M659,135c0,0.7-0.6,1.3-1.3,1.3h-7.3v3.7h5.1c0.7,0,1.3,0.6,1.3,1.3s-0.6,1.3-1.3,1.3h-5.1v5.6
		c0,0.7-0.6,1.3-1.3,1.3s-1.3-0.6-1.3-1.3V135c0-0.7,0.6-1.3,1.3-1.3h8.7C658.4,133.7,659,134.3,659,135z"/>
	<path class="st0" d="M672.3,135c0,0.7-0.6,1.3-1.3,1.3h-7.3v3.7h5.1c0.7,0,1.3,0.6,1.3,1.3s-0.6,1.3-1.3,1.3h-5.1v5.6
		c0,0.7-0.6,1.3-1.3,1.3c-0.7,0-1.3-0.6-1.3-1.3V135c0-0.7,0.6-1.3,1.3-1.3h8.7C671.8,133.7,672.3,134.3,672.3,135z"/>
	<path class="st0" d="M685.7,148.3c0,0.7-0.6,1.3-1.3,1.3h-8.7c-0.7,0-1.3-0.6-1.3-1.3V135c0-0.7,0.6-1.3,1.3-1.3h8.7
		c0.7,0,1.3,0.6,1.3,1.3s-0.6,1.3-1.3,1.3H677v3.7h5.1c0.7,0,1.3,0.6,1.3,1.3c0,0.7-0.6,1.3-1.3,1.3H677v4.3h7.3
		C685.1,147,685.7,147.6,685.7,148.3z"/>
	<path class="st0" d="M695.7,149.6c-4.4,0-8-3.6-8-8c0-4.4,3.6-8,8-8c2.3,0,4.5,1,6,2.7c0.5,0.6,0.4,1.4-0.1,1.9
		c-0.5,0.5-1.4,0.4-1.9-0.1c-1-1.2-2.5-1.8-4-1.8c-2.9,0-5.3,2.4-5.3,5.3c0,2.9,2.4,5.3,5.3,5.3c1.5,0,3-0.7,4-1.8
		c0.5-0.5,1.3-0.6,1.9-0.1c0.5,0.5,0.6,1.3,0.1,1.9C700.2,148.6,698,149.6,695.7,149.6z"/>
	<path class="st0" d="M716.6,135c0,0.7-0.6,1.3-1.3,1.3h-3.6v12c0,0.7-0.6,1.3-1.3,1.3c-0.7,0-1.3-0.6-1.3-1.3v-12h-3.6
		c-0.7,0-1.3-0.6-1.3-1.3s0.6-1.3,1.3-1.3h9.9C716,133.7,716.6,134.3,716.6,135z"/>
	<path class="st0" d="M722.7,149.6c-2,0-3.2-0.8-3.9-1.5c-0.8-0.9-1.3-2.1-1.3-3.3c0-0.7,0.6-1.3,1.3-1.3c0.7,0,1.3,0.6,1.3,1.3
		c0,0.8,0.5,2.2,2.6,2.2s2.6-1.4,2.6-2.2c0-1.2-0.7-1.6-2.9-2.2c-1-0.3-2-0.6-2.9-1.2c-1.1-0.8-1.7-1.9-1.7-3.3
		c0-1.1,0.5-2.2,1.2-3.1c0.6-0.7,1.8-1.4,3.7-1.4c1.9,0,3,0.8,3.7,1.4c0.8,0.8,1.2,1.9,1.2,3.1c0,0.7-0.6,1.3-1.3,1.3
		c-0.7,0-1.3-0.6-1.3-1.3c0-0.7-0.5-1.9-2.2-1.9s-2.2,1.2-2.2,1.9c0,0.9,0.3,1.2,2.7,1.9c1,0.3,2.1,0.6,3,1.2c1.2,0.8,1.8,2,1.8,3.5
		c0,1.2-0.5,2.4-1.3,3.3C725.9,148.8,724.7,149.6,722.7,149.6z"/>
</g>
<g>
	<circle class="st0" cx="451.7" cy="141.9" r="2.5"/>
</g>
<g>
	<circle class="st0" cx="544.2" cy="141.9" r="2.5"/>
</g>
<g>
	<g>
		<path class="st0" d="M312.1,88.6c0,1.4-1.1,2.5-2.5,2.5h-13.9v7h9.7c1.4,0,2.5,1.2,2.5,2.5s-1.1,2.5-2.5,2.5h-9.7v10.7
			c0,1.4-1.2,2.5-2.5,2.5c-1.4,0-2.5-1.1-2.5-2.5V88.6c0-1.4,1.1-2.5,2.5-2.5h16.5C311,86.1,312.1,87.2,312.1,88.6z"/>
	</g>
	<g>
		<path class="st0" d="M347.5,112.1c0.9,1,0.9,2.6-0.1,3.6c-0.5,0.5-1.1,0.7-1.7,0.7c-0.7,0-1.3-0.3-1.8-0.8l-7.3-7.6h-4.8v5.9
			c0,1.4-1.1,2.5-2.5,2.5c-1.4,0-2.5-1.1-2.5-2.5V88.6c0-1.4,1.1-2.5,2.5-2.5h8.4c6,0,11,4.9,11,11c0,4.3-2.5,8.1-6.2,9.8
			L347.5,112.1z M331.7,103h5.9c3.3,0,5.9-2.7,5.9-6s-2.6-6-5.9-6h-5.9V103z"/>
	</g>
	<g>
		<path class="st0" d="M388,116.2c-0.3,0.2-0.7,0.2-1,0.2c-0.9,0-1.9-0.6-2.3-1.5l-2.6-6h-12.3l-2.6,6c-0.6,1.3-2,1.9-3.3,1.3
			c-1.3-0.6-1.8-2-1.3-3.3l11.1-25.3c0.4-0.9,1.3-1.5,2.3-1.5s1.9,0.6,2.3,1.5l11.1,25.3C389.9,114.1,389.3,115.6,388,116.2z
			 M379.9,103.9l-4-9.1l-4,9.1H379.9z"/>
	</g>
	<g>
		<path class="st0" d="M427.5,116.4c-0.8,0-1.5-0.3-2-1l-15.4-19.6v18.1c0,1.4-1.1,2.5-2.5,2.5c-1.4,0-2.5-1.1-2.5-2.5V88.6
			c0-1.1,0.7-2,1.7-2.4c1-0.4,2.2,0,2.8,0.8l15.4,19.6v-18c0-1.4,1.1-2.5,2.5-2.5c1.4,0,2.5,1.1,2.5,2.5v25.3c0,1-0.7,2-1.7,2.3
			C428.1,116.3,427.8,116.4,427.5,116.4z"/>
	</g>
	<g>
		<path class="st0" d="M469.8,112.4c0.8,1.2,0.5,2.7-0.6,3.5c-1.1,0.8-2.7,0.5-3.5-0.6l-7.8-11L454,109v4.9c0,1.4-1.1,2.5-2.5,2.5
			c-1.4,0-2.5-1.1-2.5-2.5V88.6c0-1.4,1.1-2.5,2.5-2.5c1.4,0,2.5,1.1,2.5,2.5v12.6L465.8,87c0.9-1,2.5-1.2,3.5-0.3
			c1.1,0.9,1.2,2.5,0.3,3.5l-8.5,10.1L469.8,112.4z"/>
	</g>
	<g>
		<path class="st0" d="M533.2,101.2c0,8.4-6.8,15.1-15.1,15.1h-6.4c-1.4,0-2.5-1.1-2.5-2.5V88.6c0-1.4,1.1-2.5,2.5-2.5h6.4
			C526.4,86.1,533.2,92.9,533.2,101.2z M528.2,101.2c0-5.6-4.5-10.1-10.1-10.1h-3.9v20.3h3.9C523.7,111.4,528.2,106.9,528.2,101.2z"
			/>
	</g>
	<g>
		<path class="st0" d="M550.6,116.4c-1.4,0-2.5-1.1-2.5-2.5V88.6c0-1.4,1.1-2.5,2.5-2.5c1.4,0,2.5,1.1,2.5,2.5v25.3
			C553.1,115.3,552,116.4,550.6,116.4z"/>
	</g>
	<g>
		<path class="st0" d="M583.2,116.4c-8.3,0-15.1-6.8-15.1-15.1c0-8.3,6.8-15.1,15.1-15.1c4.4,0,8.5,1.9,11.4,5.2
			c0.9,1,0.8,2.6-0.3,3.5s-2.6,0.8-3.5-0.2c-1.9-2.2-4.7-3.5-7.6-3.5c-5.6,0-10.1,4.6-10.1,10.1c0,5.6,4.6,10.1,10.1,10.1
			c2.6,0,5.1-1,7-2.8v-3.8h-6.1c-1.4,0-2.5-1.1-2.5-2.5s1.1-2.5,2.5-2.5h8.6c1.4,0,2.5,1.1,2.5,2.5v7.3c0,0.6-0.2,1.2-0.6,1.6
			C591.7,114.5,587.6,116.4,583.2,116.4z"/>
	</g>
	<g>
		<path class="st0" d="M614.3,116.4c-1.4,0-2.5-1.1-2.5-2.5V88.6c0-1.4,1.1-2.5,2.5-2.5c1.4,0,2.5,1.1,2.5,2.5v25.3
			C616.8,115.3,615.7,116.4,614.3,116.4z"/>
	</g>
	<g>
		<path class="st0" d="M656.4,88.6c0,1.4-1.1,2.5-2.5,2.5H647v22.8c0,1.4-1.1,2.5-2.5,2.5c-1.4,0-2.5-1.1-2.5-2.5V91.1h-6.9
			c-1.4,0-2.5-1.1-2.5-2.5s1.1-2.5,2.5-2.5h18.8C655.2,86.1,656.4,87.2,656.4,88.6z"/>
	</g>
	<g>
		<path class="st0" d="M691.5,116.2c-0.3,0.2-0.7,0.2-1,0.2c-0.9,0-1.9-0.6-2.3-1.5l-2.6-6h-12.3l-2.6,6c-0.6,1.3-2,1.9-3.3,1.3
			c-1.3-0.6-1.8-2-1.3-3.3l11.1-25.3c0.4-0.9,1.3-1.5,2.3-1.5s1.9,0.6,2.3,1.5l11.1,25.3C693.3,114.1,692.7,115.6,691.5,116.2z
			 M683.4,103.9l-4-9.1l-4,9.1H683.4z"/>
	</g>
	<g>
		<path class="st0" d="M724.5,116.4h-14.4c-1.4,0-2.5-1.1-2.5-2.5V88.6c0-1.4,1.1-2.5,2.5-2.5c1.4,0,2.5,1.1,2.5,2.5v22.8h11.9
			c1.4,0,2.5,1.1,2.5,2.5S726,116.4,724.5,116.4z"/>
	</g>
</g>
<g>
	<path class="st0" d="M165.6,165.1c-13.4,12.9-31.7,20.7-51.7,20.7C72.5,185.8,39,152.2,39,110.9c0-20,7.9-38.3,20.7-51.7l10.9,10.9
		c13.5-12.9,31.7-20.7,51.7-20.7c41.4,0,74.9,33.5,74.9,74.9c0,20-7.9,38.3-20.7,51.7L165.6,165.1L165.6,165.1z"/>
</g>
</svg>
