<svg id="Layer_1" xmlns="http://www.w3.org/2000/svg" viewBox="0 0 240 216.9"><style>.st0{fill:#00b2a9}.st1{fill:#fff}</style><path class="st0" d="M186.9 166.4c-18.9 18.1-44.6 29.1-72.8 29.1-58.3.1-105.5-47.2-105.5-105.4 0-28.2 11.1-53.9 29.1-72.8l15.4 15.4c19-18.1 44.6-29.2 72.8-29.2 58.3 0 105.5 47.2 105.5 105.5 0 28.2-11.1 53.9-29.1 72.8l-15.4-15.4z"/><path class="st1" d="M27 73.3h26.6v7.9h-18v9.3h15.9v7.9H35.6v16.4H27V73.3zM60.9 73.3h15.5c4.8 0 8.6 1.4 11.2 4 2.2 2.2 3.5 5.5 3.5 9.6v.2c0 6.3-3.1 10.2-7.7 12.2l8.8 15.4h-9.8l-7.6-13.6h-5.4v13.6h-8.6V73.3zm14.9 20.3c4.4 0 6.7-2.5 6.7-6.2v-.1c0-4.1-2.5-6.2-6.9-6.2h-6.1v12.5h6.3zM110.8 73.1h8.2l14.8 41.6h-8.9l-3.1-9h-14.2l-3 9H96l14.8-41.6zm8.5 25.1l-4.5-13.5-4.5 13.5h9zM137.8 73.3h7.9l15.8 24.1V73.3h8.4v41.4h-7.3l-16.4-25v25h-8.4V73.3zM178.1 73.3h8.6v17.8l13.5-17.8h10.1l-13.9 17.5 14.5 23.8h-10l-10.3-17-3.8 4.8v12.2h-8.6V73.3z"/><g><path class="st1" d="M137.8 123.4h3.2c.7 0 1.3.1 1.9.3.6.2 1.1.5 1.5.9.4.4.7.8 1 1.4.2.5.3 1.1.3 1.7 0 .6-.1 1.2-.3 1.7-.2.5-.5 1-1 1.4-.4.4-.9.7-1.5.9-.6.2-1.2.3-1.9.3h-3.2v-8.6zm3.2 7.3c.5 0 .9-.1 1.2-.2.4-.1.7-.3 1-.6.3-.3.5-.6.6-.9.1-.4.2-.8.2-1.2 0-.4-.1-.8-.2-1.2-.1-.4-.3-.7-.6-.9-.3-.3-.6-.5-1-.6-.4-.1-.8-.2-1.2-.2h-1.7v5.9h1.7zM151.2 123.4h1.5v8.7h-1.5v-8.7zM162.8 132.3c-.7 0-1.3-.1-1.9-.3-.6-.2-1-.5-1.4-.9-.4-.4-.7-.9-.9-1.4-.2-.5-.3-1.1-.3-1.8 0-.6.1-1.2.3-1.7.2-.5.5-1 .9-1.4.4-.4.9-.7 1.4-1s1.2-.4 1.8-.4c.4 0 .7 0 1 .1.3.1.6.1.9.2.3.1.5.2.8.4.2.1.5.3.7.5l-1 1.2c-.2-.1-.3-.3-.5-.4s-.4-.2-.5-.3c-.2-.1-.4-.1-.6-.2-.2 0-.5-.1-.8-.1-.4 0-.8.1-1.1.2-.3.2-.6.4-.9.7-.3.3-.5.6-.6 1-.1.4-.2.8-.2 1.2 0 .4.1.9.2 1.2s.3.7.6 1c.3.3.6.5.9.6.4.2.8.2 1.2.2.4 0 .8-.1 1.2-.2.4-.1.7-.3.9-.5v-1.6h-2.2v-1.3h3.7v3.7c-.2.2-.5.4-.7.5-.3.2-.5.3-.8.4-.3.1-.6.2-1 .3s-.7.1-1.1.1zM172.2 123.4h1.5v8.7h-1.5v-8.7zM181.8 124.8H179v-1.4h7.1v1.4h-2.8v7.3h-1.5v-7.3zM194.5 123.4h1.4l3.8 8.8h-1.6l-.9-2.1h-4.1l-.9 2.1h-1.6l3.9-8.8zm2.1 5.3l-1.5-3.5-1.5 3.5h3zM204.8 123.4h1.5v7.3h4.6v1.4h-6.1v-8.7z"/></g><g><path class="st0" d="M63.1 196.3c1.3-3 4.5-4.4 7.7-3 1.9.8 2.8 2 3.4 3.3l-2.2 1c-.5-1.1-1.1-1.8-2.1-2.3-1.7-.7-3.6.2-4.4 1.9-.8 1.8-.2 3.8 1.6 4.5 1.2.5 2.1.3 3.2 0l.8 2.1c-1.5.7-3 .9-5 0-3-1.3-4.2-4.6-3-7.5zM75.7 195.5l4.9 1.6c1.4.4 2.3 1.2 2.8 2.1.4.8.5 1.7.1 2.7-.6 1.7-1.8 2.5-3.3 2.6l1.4 4.6-2.7-.9-1.2-4.1-1.8-.6-1.1 3.4-2.3-.8 3.2-10.6zm3.1 6.6c1.1.4 2 0 2.3-.9.3-1-.2-1.7-1.4-2.1l-2.3-.7-1 3.1 2.4.6zM85.5 198.5l8.2 1.9-.5 2.1-5.8-1.3-.5 2.2 5.1 1.2-.5 2.1-5.1-1.2-.5 2.3 5.9 1.3-.5 2.1-8.3-1.9 2.5-10.8zM98.4 201l2.2.3L104 213l-2.6-.3-.7-2.6-4.7-.6-1.3 2.4-2.5-.3 6.2-10.6zm1.8 6.8l-1-3.8-1.9 3.4 2.9.4zM106.6 204.2l-3.4-.2.1-2.3 9.3.5-.1 2.3-3.4-.2-.5 8.9-2.5-.1.5-8.9zM113.8 202.2l8.4-.3.1 2.2-6 .2.1 2.3 5.3-.2.1 2.2-5.3.2.1 2.3 6.1-.2.1 2.2-8.5.3-.5-11.2zM123.4 210.4l2.6-.2.2 2.5-2.6.2-.2-2.5zM129.9 206.8c-.6-3.2 1.3-6.1 4.7-6.7 2.1-.4 3.4.1 4.6.9l-1.2 2.1c-1-.6-1.9-.9-3-.7-1.9.3-2.9 2.1-2.6 4 .3 1.9 1.9 3.2 3.8 2.9 1.3-.2 1.9-.9 2.7-1.8l1.8 1.3c-.9 1.4-2 2.4-4.2 2.8-3.1.4-6-1.6-6.6-4.8zM140 199.2l2.4-.7 1.2 4.3 4.4-1.2-1.2-4.3 2.4-.7 3 10.8-2.4.7-1.2-4.3-4.4 1.2 1.2 4.3-2.4.7-3-10.8zM153.6 194.9l2.1-.8 8.5 8.8-2.4.9-1.9-2-4.4 1.7v2.7l-2.3.9.4-12.2zm4.8 5.2l-2.7-2.8-.1 3.9 2.8-1.1zM160.3 192.3l2-1 7.8 3.8-3.1-6.1 2.2-1.1 5.1 10-1.9.9-8-3.9 3.2 6.3-2.2 1.1-5.1-10zM172.9 192.2c-1.7-2.7-1.1-6.2 1.8-8.1 1.7-1.1 3-1.3 4.5-1.1l-.3 2.4c-1.1-.1-2-.1-3.1.6-1.5 1-1.9 3.1-.8 4.7 1.1 1.7 3.1 2.2 4.8 1.2.8-.5 1.3-1.1 1.6-1.8l-.9-1.3-2.1 1.3-1.1-1.8 4.1-2.6 2.6 4.1c-.4 1.4-1.3 3-3.1 4.1-2.9 1.8-6.2 1.1-8-1.7zM179.6 181.1l6.7-5.2 1.3 1.7-4.7 3.7 1.4 1.8 4.2-3.2 1.3 1.7-4.2 3.2 1.4 1.9 4.8-3.7 1.3 1.7-6.7 5.2-6.8-8.8zM192.2 182l2-1.7 1.7 1.9-2 1.7-1.7-1.9z"/></g></svg>