<svg version="1" xmlns="http://www.w3.org/2000/svg" width="933.333" height="933.333" viewBox="0 0 700.000000 700.000000"><path d="M348.9 49.4c-.2.2-4.2.6-8.9 1s-10.1.9-12 1.1c-1.9.3-5.3.7-7.5 1-5.6.7-18.4 3.2-31.5 6-11.1 2.5-39.7 12.2-52 17.7-34.7 15.5-66.9 36.4-90.8 58.8-2.9 2.8-5.6 5-6 5-.4 0-11.5-10.8-24.6-23.9L91.8 92.2l-5.1 5.7c-2.8 3.1-5.8 6.4-6.7 7.4-.8 1-2.3 2.8-3.4 4-1 1.2-3.7 4.7-6 7.7-2.2 3-4.3 5.7-4.7 6-3.2 2.8-21.2 31.7-28.1 45-14.8 28.8-28 67.3-31.4 91.5-.3 2.2-.9 5.6-1.4 7.5-.5 1.9-1.2 6.6-1.6 10.5-.3 3.8-.8 7.8-1 8.7-2.1 11.8-2 57.7.1 69 .2 1 .6 4.4.9 7.6.3 3.1 1 7.9 1.5 10.7.5 2.7 1.2 6.9 1.6 9.2 1.8 12.7 14.9 57 17.6 59.7.5.6.9 1.6.9 2.2 0 1.5 5.4 13.4 11.7 25.9 21.7 42.8 51.8 79.4 91.6 111.1 25.8 20.6 63.1 40.7 95.7 51.8 12.1 4 29.1 8.9 35.6 10 1.3.3 3.2.7 4.2 1 4.1 1.3 33.3 5.3 43.7 6.1 8.1.6 40.1.6 46 .1 2.2-.3 7.4-.7 11.5-1.1 4.1-.4 8.4-.9 9.5-1.1 1.1-.2 4-.6 6.5-.8 2.5-.3 5.6-.8 7-1.1 1.4-.2 4.8-.9 7.6-1.5s6.2-1.3 7.6-1.5c13.4-2.5 42.1-11.6 59.4-19 33.1-14.2 69.6-37.8 92-59.7l5.2-5 24.1 24.3 24.2 24.3 2.7-2.9c33.8-36.7 58.8-79.6 73.1-125.5 8.3-26.7 12.1-46.7 14.6-76 .8-9.2.9-40.6.2-47.5-.3-2.8-.9-7.9-1.2-11.5-.7-7.4-.8-7.8-3-21.5-.9-5.5-2-11.4-2.5-13-.5-1.7-1.2-4.6-1.5-6.5-1.5-9.2-10.4-37-15.6-48.7-1-2.4-1.9-4.5-1.9-4.8 0-1.3-11.5-24.7-16.2-32.9-36.3-63.5-90.4-112.2-157.8-141.9-16-7-43.8-15.9-60.1-19.1-.8-.2-2.5-.6-3.9-1s-4.1-.9-6-1.1c-1.9-.2-7.8-1.1-13-1.9-5.2-.8-12-1.8-15-2.1-6-.7-51.5-1.6-52.1-1.1z"/></svg>