<svg enable-background="new -362.4 459.1 500 500" viewBox="-362.4 459.1 500 500" xmlns="http://www.w3.org/2000/svg"><path d="m-341.6 480.5h457.7v457.3h-457.7zm-20.8 478.6h499.4v-500h-499.4zm353.3-259c10.6 0 14.4 0 15.4-.4 0-1.5.4-2.6.4-3.6 0-11.5-5.4-32.9-27-32.9-20 0-28.5 17.9-30.6 37h41.8zm-42.2 29.3c.4 28.8 13.7 48.3 45.4 48.3 12.3 0 22.9-1.7 33.9-6.6 1.5-.6 2.5-.4 2.5 1.5v26.7c0 2.1-.6 3.2-2.1 4.3-11 5.6-24.8 8.1-41.8 8.1-54.9 0-75.5-41.7-75.5-88 0-50.4 25.4-91.7 70.1-91.7 45.4 0 61.2 39.1 61.2 70.9 0 10.3-.6 18.6-1.7 22.6-.4 1.7-1 2.4-2.7 2.8-4.2.6-16.4 1.5-34.7 1.5h-54.5v-.4zm-111.5-21.8c-5.8-23.7-20-75.4-25.2-100.4h-.4c-4.4 25-15.8 67.3-24.3 100.4zm-58.5 34.6-16.4 63.9c-.4 1.7-1 2.4-3.1 2.4h-30.6c-2.1 0-2.5-.6-2.1-3.2l59.1-212.2c1-3.8 1.7-6.8 2.1-17.5 0-1.5.6-2.1 1.7-2.1h43.7c1.5 0 2.1.4 2.5 2.1l66.2 230.1c.4 1.7 0 2.8-1.7 2.8h-34.3c-1.7 0-2.7-.6-3.1-2.1l-17.1-64.1z" fill="#fff"/></svg>