<?xml version="1.0" encoding="utf-8"?>
<!-- Generator: Adobe Illustrator 21.1.0, SVG Export Plug-In . SVG Version: 6.00 Build 0)  -->
<svg version="1.1" id="Layer_1" xmlns="http://www.w3.org/2000/svg" xmlns:xlink="http://www.w3.org/1999/xlink" x="0px" y="0px"
	 viewBox="-362.4 459.1 500 500" enable-background="new -362.4 459.1 500 500" xml:space="preserve">
<g>
	<path fill="#FFFFFF" d="M-341.6,480.5h457.7v457.3h-457.7V480.5z M-362.4,959.1H137v-500h-499.4V959.1z M-9.1,700.1
		c10.6,0,14.4,0,15.4-0.4c0-1.5,0.4-2.6,0.4-3.6c0-11.5-5.4-32.9-27-32.9c-20,0-28.5,17.9-30.6,37H-9.1z M-51.3,729.4
		c0.4,28.8,13.7,48.3,45.4,48.3c12.3,0,22.9-1.7,33.9-6.6c1.5-0.6,2.5-0.4,2.5,1.5v26.7c0,2.1-0.6,3.2-2.1,4.3
		c-11,5.6-24.8,8.1-41.8,8.1c-54.9,0-75.5-41.7-75.5-88c0-50.4,25.4-91.7,70.1-91.7c45.4,0,61.2,39.1,61.2,70.9
		c0,10.3-0.6,18.6-1.7,22.6c-0.4,1.7-1,2.4-2.7,2.8c-4.2,0.6-16.4,1.5-34.7,1.5h-54.5V729.4L-51.3,729.4z M-162.8,707.6
		c-5.8-23.7-20-75.4-25.2-100.4h-0.4c-4.4,25-15.8,67.3-24.3,100.4H-162.8L-162.8,707.6z M-221.3,742.2l-16.4,63.9
		c-0.4,1.7-1,2.4-3.1,2.4h-30.6c-2.1,0-2.5-0.6-2.1-3.2l59.1-212.2c1-3.8,1.7-6.8,2.1-17.5c0-1.5,0.6-2.1,1.7-2.1h43.7
		c1.5,0,2.1,0.4,2.5,2.1l66.2,230.1c0.4,1.7,0,2.8-1.7,2.8h-34.3c-1.7,0-2.7-0.6-3.1-2.1l-17.1-64.1L-221.3,742.2L-221.3,742.2z"/>
</g>
</svg>
