<?xml version="1.0" encoding="utf-8"?>
<!-- Generator: Adobe Illustrator 22.1.0, SVG Export Plug-In . SVG Version: 6.00 Build 0)  -->
<svg version="1.1"
	 id="svg2" inkscape:output_extension="org.inkscape.output.svg.inkscape" inkscape:version="0.46" sodipodi:docname="2009 Avid logo.svg" sodipodi:version="0.32" xmlns:cc="http://creativecommons.org/ns#" xmlns:dc="http://purl.org/dc/elements/1.1/" xmlns:inkscape="http://www.inkscape.org/namespaces/inkscape" xmlns:rdf="http://www.w3.org/1999/02/22-rdf-syntax-ns#" xmlns:sodipodi="http://sodipodi.sourceforge.net/DTD/sodipodi-0.dtd" xmlns:svg="http://www.w3.org/2000/svg"
	 xmlns="http://www.w3.org/2000/svg" xmlns:xlink="http://www.w3.org/1999/xlink" x="0px" y="0px" viewBox="0 0 121.578 54.213"
	 enable-background="new 0 0 121.578 54.213" xml:space="preserve">
<defs>
	
	
		<inkscape:perspective  id="perspective10" inkscape:persp3d-origin="372.04724 : 350.78739 : 1" inkscape:vp_x="0 : 526.18109 : 1" inkscape:vp_y="0 : 1000 : 0" inkscape:vp_z="744.09448 : 526.18109 : 1" sodipodi:type="inkscape:persp3d">
		</inkscape:perspective>
	
		<inkscape:perspective  id="perspective2390" inkscape:persp3d-origin="372.04724 : 350.78739 : 1" inkscape:vp_x="0 : 526.18109 : 1" inkscape:vp_y="0 : 1000 : 0" inkscape:vp_z="744.09448 : 526.18109 : 1" sodipodi:type="inkscape:persp3d">
		</inkscape:perspective>
	
		<inkscape:perspective  id="perspective2412" inkscape:persp3d-origin="372.04724 : 350.78739 : 1" inkscape:vp_x="0 : 526.18109 : 1" inkscape:vp_y="0 : 1000 : 0" inkscape:vp_z="744.09448 : 526.18109 : 1" sodipodi:type="inkscape:persp3d">
		</inkscape:perspective>
	
		<inkscape:perspective  id="perspective2515" inkscape:persp3d-origin="372.04724 : 350.78739 : 1" inkscape:vp_x="0 : 526.18109 : 1" inkscape:vp_y="0 : 1000 : 0" inkscape:vp_z="744.09448 : 526.18109 : 1" sodipodi:type="inkscape:persp3d">
		</inkscape:perspective>
	
		<inkscape:perspective  id="perspective2423" inkscape:persp3d-origin="372.04724 : 350.78739 : 1" inkscape:vp_x="0 : 526.18109 : 1" inkscape:vp_y="0 : 1000 : 0" inkscape:vp_z="744.09448 : 526.18109 : 1" sodipodi:type="inkscape:persp3d">
		</inkscape:perspective>
</defs>
<sodipodi:namedview  bordercolor="#666666" borderopacity="1.0" gridtolerance="10000" guidetolerance="10" id="base" inkscape:current-layer="g2477" inkscape:cx="57.511341" inkscape:cy="34.576611" inkscape:document-units="px" inkscape:guide-bbox="true" inkscape:pageopacity="0.0" inkscape:pageshadow="2" inkscape:window-height="721" inkscape:window-width="1024" inkscape:window-x="-4" inkscape:window-y="-4" inkscape:zoom="5.6260348" objecttolerance="10" pagecolor="#ffffff" showgrid="false" showguides="true">
	</sodipodi:namedview>
<g id="layer1" transform="translate(-456.75542,-603.05436)" inkscape:groupmode="layer" inkscape:label="Layer 1">
	<g id="g2483" transform="matrix(1.4898407,0,0,1.4898407,-218.16074,-323.40277)">
		<g id="g2477">
			<path id="rect2418" sodipodi:nodetypes="csssssz" fill="#FFFFFF" d="M477.405,651.333h-20.401c-1.289,0-1.511-1.773-1.059-2.619
				l9.98-18.707c0.572-1.072,1.868-1.426,2.655,0l10.173,18.42C479.538,649.848,478.848,651.333,477.405,651.333z"/>
			<path id="rect2425" fill="#FFFFFF" d="M502.373,628.323h2.301c1.557,0,2.821,1.263,2.821,2.82v17.322
				c0,1.557-1.263,2.82-2.821,2.82h-2.301c-1.557,0-2.821-1.263-2.821-2.82v-17.322
				C499.552,629.586,500.816,628.323,502.373,628.323z"/>
			<path id="path2521" sodipodi:nodetypes="csssssz" fill="#FFFFFF" d="M495.227,628.796h-20.4c-1.289,0-1.504,1.719-1.06,2.545
				l9.98,18.538c0.563,1.046,1.88,1.392,2.655,0l10.172-18.259C497.349,630.232,496.67,628.796,495.227,628.796z"/>
			<path id="path2523" sodipodi:nodetypes="csssssz" fill="#FFFFFF" d="M511.068,629.166v20.4c0,1.289,1.519,1.488,2.264,1.06
				l16.4-9.44c0.943-0.543,1.218-1.848,0-2.655l-16.152-10.713C512.366,627.012,511.068,627.723,511.068,629.166z"/>
		</g>
		<g id="g2463">
		</g>
	</g>
</g>
</svg>
