<svg enable-background="new 0 0 121.578 54.213" viewBox="0 0 121.578 54.213" xmlns="http://www.w3.org/2000/svg"><g fill="#fff" transform="matrix(1.4898407 0 0 1.4898407 -674.91616 -926.45713)"><path d="m477.405 651.333h-20.401c-1.289 0-1.511-1.773-1.059-2.619l9.98-18.707c.572-1.072 1.868-1.426 2.655 0l10.173 18.42c.785 1.421.095 2.906-1.348 2.906z"/><path d="m502.373 628.323h2.301c1.557 0 2.821 1.263 2.821 2.82v17.322c0 1.557-1.263 2.82-2.821 2.82h-2.301c-1.557 0-2.821-1.263-2.821-2.82v-17.322c0-1.557 1.264-2.82 2.821-2.82z"/><path d="m495.227 628.796h-20.4c-1.289 0-1.504 1.719-1.06 2.545l9.98 18.538c.563 1.046 1.88 1.392 2.655 0l10.172-18.259c.775-1.388.096-2.824-1.347-2.824z"/><path d="m511.068 629.166v20.4c0 1.289 1.519 1.488 2.264 1.06l16.4-9.44c.943-.543 1.218-1.848 0-2.655l-16.152-10.713c-1.214-.806-2.512-.095-2.512 1.348z"/></g></svg>