<?xml version="1.0" encoding="utf-8"?>
<!-- Generator: Adobe Illustrator 21.1.0, SVG Export Plug-In . SVG Version: 6.00 Build 0)  -->
<svg version="1.1" id="Layer_1" xmlns="http://www.w3.org/2000/svg" xmlns:xlink="http://www.w3.org/1999/xlink" x="0px" y="0px"
	 viewBox="0 0 150 150" enable-background="new 0 0 150 150" xml:space="preserve">
<image overflow="visible" width="1920" height="1080" xlink:href="../../../../../../../../../Users/Josh/Desktop/cf9b879347934440062c7da0e160ea55.jpg"  transform="matrix(0.1992 0 0 0.1992 268 179)">
</image>
<g>
	<path fill="#FFFFFF" d="M13.6,88.7c0.3-18.9,11.2-31.8,20.5-38.6c-0.3,1.9-0.5,3.7-0.7,5.5C32,66.9,33,78,38.3,88.2
		c6.5,12.5,16.9,20.6,30.3,24.7c11.4,3.5,22.8,3.6,34.2-0.2c0.2-0.1,0.4-0.1,0.9-0.2c-5,7-10.9,12.6-18,16.9
		c-7.2,4.4-14.9,6.8-23.4,6.9c11.2,0.5,21.4-2.4,30.5-9c8-5.7,13.5-13.5,18.1-22.1c4.9-9.4,7.5-19.6,9.2-30c1-6.1,2-12.3,3.3-18.4
		c0.8-3.8,2.5-7.3,5.2-10.2c1.8-2,3.9-3.2,6.8-2.6c1.6,0.3,2.6,1.4,3.5,2.6c2.3,3.1,3.5,6.8,4.3,10.5c1.6,7.4,2.3,15,2.1,22.6
		c-0.2,8.7-2.6,16.8-6.3,24.6c-7,14.9-17.5,26.6-32.1,34.5c-10.7,5.8-22.1,8.3-34.2,8.1c-10.6-0.2-20.7-2.3-30.3-6.9
		C30.6,134,21.1,125.3,14,114c-6.1-9.7-9.9-20.3-11.2-31.7c-1.4-13,0.8-25.4,6.4-37.3C15.7,31.2,25.5,20.3,39,12.9
		c8.7-4.8,18-7.5,27.9-8.4C75.6,3.7,84.2,4,92.7,6.3c2.4,0.6,4.8,1.6,6.8,2.9c3.9,2.4,4.4,6.7,1.7,10.4c-2,2.8-5,4.5-8.2,5.4
		c-4,1.1-8.1,2-12.3,2.7c-11,2.1-21.9,4.4-32.1,9.3c-10.1,4.8-19,11.2-25.8,20.1C15.8,66.4,12.8,77,13.6,88.7z"/>
	<path fill="#FFFFFF" d="M129,42c-6.4,4.8-8.3,11.6-9.6,18.8c-1.5,8.5-2.8,17-4.5,25.4c-1.4,6.9-4.3,13.4-7.9,19.6
		c-0.7,1.2-1.6,2-2.8,2.6c-4.4,2.2-9.1,3.4-14,4.2c-17.1,2.7-39.6-8.1-48.7-25.3c-3.3-6.2-5.1-12.9-5.5-19.9
		c-0.4-6.7,0.6-13.3,2.5-19.7c0.2-0.7,0.7-1.4,1.2-1.8c4.4-3.5,9.4-5.8,14.5-7.9c8.7-3.5,17.8-5.5,27-7.3c4.3-0.8,8.6-1.8,12.8-3
		c5-1.4,9-4.3,11.3-9.4C116.2,23.4,123.8,31.5,129,42z"/>
</g>
</svg>
