<svg enable-background="new 0 0 150 150" viewBox="0 0 150 150" xmlns="http://www.w3.org/2000/svg" xmlns:xlink="http://www.w3.org/1999/xlink"><image height="1080" overflow="visible" transform="matrix(.1992 0 0 .1992 268 179)" width="1920" xlink:href="../../../../../../../../../Users/Josh/Desktop/cf9b879347934440062c7da0e160ea55.jpg"/><g fill="#fff"><path d="m13.6 88.7c.3-18.9 11.2-31.8 20.5-38.6-.3 1.9-.5 3.7-.7 5.5-1.4 11.3-.4 22.4 4.9 32.6 6.5 12.5 16.9 20.6 30.3 24.7 11.4 3.5 22.8 3.6 34.2-.2.2-.1.4-.1.9-.2-5 7-10.9 12.6-18 16.9-7.2 4.4-14.9 6.8-23.4 6.9 11.2.5 21.4-2.4 30.5-9 8-5.7 13.5-13.5 18.1-22.1 4.9-9.4 7.5-19.6 9.2-30 1-6.1 2-12.3 3.3-18.4.8-3.8 2.5-7.3 5.2-10.2 1.8-2 3.9-3.2 6.8-2.6 1.6.3 2.6 1.4 3.5 2.6 2.3 3.1 3.5 6.8 4.3 10.5 1.6 7.4 2.3 15 2.1 22.6-.2 8.7-2.6 16.8-6.3 24.6-7 14.9-17.5 26.6-32.1 34.5-10.7 5.8-22.1 8.3-34.2 8.1-10.6-.2-20.7-2.3-30.3-6.9-11.8-6-21.3-14.7-28.4-26-6.1-9.7-9.9-20.3-11.2-31.7-1.4-13 .8-25.4 6.4-37.3 6.5-13.8 16.3-24.7 29.8-32.1 8.7-4.8 18-7.5 27.9-8.4 8.7-.8 17.3-.5 25.8 1.8 2.4.6 4.8 1.6 6.8 2.9 3.9 2.4 4.4 6.7 1.7 10.4-2 2.8-5 4.5-8.2 5.4-4 1.1-8.1 2-12.3 2.7-11 2.1-21.9 4.4-32.1 9.3-10.1 4.8-19 11.2-25.8 20.1-7 9.3-10 19.9-9.2 31.6z"/><path d="m129 42c-6.4 4.8-8.3 11.6-9.6 18.8-1.5 8.5-2.8 17-4.5 25.4-1.4 6.9-4.3 13.4-7.9 19.6-.7 1.2-1.6 2-2.8 2.6-4.4 2.2-9.1 3.4-14 4.2-17.1 2.7-39.6-8.1-48.7-25.3-3.3-6.2-5.1-12.9-5.5-19.9-.4-6.7.6-13.3 2.5-19.7.2-.7.7-1.4 1.2-1.8 4.4-3.5 9.4-5.8 14.5-7.9 8.7-3.5 17.8-5.5 27-7.3 4.3-.8 8.6-1.8 12.8-3 5-1.4 9-4.3 11.3-9.4 10.9 5.1 18.5 13.2 23.7 23.7z"/></g></svg>