<?xml version="1.0" encoding="utf-8"?>
<!-- Generator: Adobe Illustrator 21.1.0, SVG Export Plug-In . SVG Version: 6.00 Build 0)  -->
<svg version="1.1" id="Layer_1" xmlns="http://www.w3.org/2000/svg" xmlns:xlink="http://www.w3.org/1999/xlink" x="0px" y="0px"
	 viewBox="0 0 150 150" enable-background="new 0 0 150 150" xml:space="preserve">
<g>
	<path fill="#FFFFFF" d="M74.9,149C34.1,149,1,115.9,1,74.9C1,34.1,34.1,0.9,75.1,1C115.9,1.1,149,34.2,149,75.2
		C149,115.9,115.8,149,74.9,149z M24.4,62c-0.1,5.3,2.4,10.6,6.5,13.7c4.1,3.3,8.7,4.5,14,4c5.1-0.6,9.2-2.8,12.3-6.9
		c1.2-1.7,2.3-3.5,3.4-5.3c4.8-7.3,14.7-9.8,22.3-6.5c1.9,0.9,3.7,2,5.8,3c5.8,2.5,11.6,2.5,17.2-0.7c5.7-3.4,8.7-8.5,9-15.1
		c0.2-5.7-2.2-10.2-6.5-13.9c-4-3.3-8.6-4.8-13.9-4.2c-6.4,0.7-10.9,4.2-14.1,9.5c-0.8,1.4-1.6,2.6-2.5,3.9
		c-3.5,4.4-8.2,6.6-13.9,6.9c-3.9,0.2-7.4-1-10.7-3c-4.7-2.7-9.4-4-14.9-2.7C30.3,46.5,24.3,53.9,24.4,62z M58.2,80.6
		c-0.9,0-1.9,0.1-2.8,0.3c-7.6,1.6-13.2,9.7-9.9,18.1c1.9,5,5.9,7.8,11.1,8.5c4.4,0.6,8.3-0.8,11.5-4c1.4-1.4,2.3-3.2,3.3-4.8
		c3-4.8,8.6-7.2,14.1-6c2,0.5,3.9,1.4,5.7,2.4c3.7,2.2,7.6,2.7,11.7,1.4c9-3.1,12.3-14.5,5.8-21.5c-3.4-3.6-7.5-5.2-12.4-4.7
		c-3.9,0.5-6.8,2.6-9,5.8c-0.8,1.1-1.6,2.5-2.4,3.6c-2.6,3.6-6.2,5.5-10.8,5.7c-3.1,0.1-5.8-1-8.4-2.5C63.4,81.5,61,80.5,58.2,80.6z
		 M81.3,119c0-5-4.1-9.2-9-9.2c-5.1,0-9.1,4-9.3,9c-0.1,5,4.1,9.3,9,9.3C77.1,128.1,81.2,124.1,81.3,119z"/>
</g>
</svg>
