<svg enable-background="new 0 0 150 150" viewBox="0 0 150 150" xmlns="http://www.w3.org/2000/svg"><path d="m74.9 149c-40.8 0-73.9-33.1-73.9-74.1 0-40.8 33.1-74 74.1-73.9 40.8.1 73.9 33.2 73.9 74.2 0 40.7-33.2 73.8-74.1 73.8zm-50.5-87c-.1 5.3 2.4 10.6 6.5 13.7 4.1 3.3 8.7 4.5 14 4 5.1-.6 9.2-2.8 12.3-6.9 1.2-1.7 2.3-3.5 3.4-5.3 4.8-7.3 14.7-9.8 22.3-6.5 1.9.9 3.7 2 5.8 3 5.8 2.5 11.6 2.5 17.2-.7 5.7-3.4 8.7-8.5 9-15.1.2-5.7-2.2-10.2-6.5-13.9-4-3.3-8.6-4.8-13.9-4.2-6.4.7-10.9 4.2-14.1 9.5-.8 1.4-1.6 2.6-2.5 3.9-3.5 4.4-8.2 6.6-13.9 6.9-3.9.2-7.4-1-10.7-3-4.7-2.7-9.4-4-14.9-2.7-8.1 1.8-14.1 9.2-14 17.3zm33.8 18.6c-.9 0-1.9.1-2.8.3-7.6 1.6-13.2 9.7-9.9 18.1 1.9 5 5.9 7.8 11.1 8.5 4.4.6 8.3-.8 11.5-4 1.4-1.4 2.3-3.2 3.3-4.8 3-4.8 8.6-7.2 14.1-6 2 .5 3.9 1.4 5.7 2.4 3.7 2.2 7.6 2.7 11.7 1.4 9-3.1 12.3-14.5 5.8-21.5-3.4-3.6-7.5-5.2-12.4-4.7-3.9.5-6.8 2.6-9 5.8-.8 1.1-1.6 2.5-2.4 3.6-2.6 3.6-6.2 5.5-10.8 5.7-3.1.1-5.8-1-8.4-2.5-2.3-1.4-4.7-2.4-7.5-2.3zm23.1 38.4c0-5-4.1-9.2-9-9.2-5.1 0-9.1 4-9.3 9-.1 5 4.1 9.3 9 9.3 5.1 0 9.2-4 9.3-9.1z" fill="#fff"/></svg>