<?xml version="1.0" encoding="utf-8"?>
<!-- Generator: Adobe Illustrator 21.1.0, SVG Export Plug-In . SVG Version: 6.00 Build 0)  -->
<svg version="1.1" id="Layer_1" xmlns="http://www.w3.org/2000/svg" xmlns:xlink="http://www.w3.org/1999/xlink" x="0px" y="0px"
	 viewBox="0 0 150 150" enable-background="new 0 0 150 150" xml:space="preserve">
<g>
	<path fill="#FFFFFF" d="M148.5,6.3c0,47.2,0,94.3,0,141.5c-0.4,0-0.6,0-1,0c-10.4,0-20.7,0-31.1,0c-0.1,0-0.4,0-0.5,0
		c-0.5,0-0.8-0.1-0.9-0.7c-0.5-1.3-1.1-2.7-1.6-4.1c-0.3-0.7-0.4-1.3-0.4-2c0-20.8,0-41.7,0-62.5c0-0.1,0-0.4,0-0.5
		c0-0.4,0.1-0.8,0.3-1.1c0.8-1.2,1.4-2.5,2.2-3.7c3.8-6.8,7.4-13.8,10.8-20.6c3.2-6.3,6.2-12.6,9.3-18.8c3.6-7.3,7-14.7,10.4-22
		c0.1-0.1,0.1-0.3,0.1-0.4c-0.5,0.8-0.9,1.6-1.4,2.4c-3.3,6.4-6.6,12.8-9.9,19.2c-2.5,5.1-5.2,10-7.7,15.1
		c-3.3,6.4-6.6,12.8-9.9,19.2c-2.8,5.5-5.6,11-8.4,16.3c-3.3,6.4-6.6,12.8-9.9,19.2c-2.9,5.6-5.7,11.2-8.6,16.8
		c-0.5,0.9-0.4,0.9-1.5,0.9c-8.5,0-17,0-25.4,0c-0.1,0-0.3,0-0.5,0c-0.4,0-0.6-0.1-0.9-0.5c-0.3-0.7-0.6-1.2-0.9-1.9
		c-6-11.4-12-22.7-18-34.2c-6.3-11.9-12.6-23.8-18.9-35.8C17.9,36.4,11.7,24.6,5.5,12.9c-0.4-0.8-0.8-1.5-1.1-2.3
		c0,0.3,0.1,0.5,0.3,0.8c2.4,4.9,4.8,9.9,7.2,14.8c3.4,6.9,6.8,13.8,10.4,20.6c2.3,4.5,4.7,9.1,7.1,13.6c2.3,4.4,4.6,8.7,7,13.1
		c0.3,0.5,0.4,1.1,0.1,1.6c-0.5,1.5-1,2.9-1.5,4.4c-1.6,4.8-3.4,9.6-5.3,14.4c-2.9,7.3-6.2,14.6-9.6,21.6c-2.5,5.1-5.1,10-7.9,15
		c-2.8,5.1-5.6,10.2-8.5,15.1c-0.1,0.1-0.3,0.3-0.3,0.5c0.3-0.1,0.3-0.3,0.4-0.5c2.8-4,5.3-8.2,7.9-12.3c4.1-6.8,7.9-13.8,11.4-20.8
		c3.3-6.8,6.2-13.6,8.9-20.7c1.9-5.2,3.6-10.6,4.8-15.9c0-0.1,0-0.3,0.1-0.4c0-0.1,0-0.3,0.3-0.3c0.1,0,0.1,0.1,0.3,0.1
		c0.3,0.5,0.5,1.1,0.9,1.6c0.4,0.7,0.5,1.2,0.5,2c0,20.4,0,41,0,61.5c0,0.3,0,0.4,0,0.7c0,0.7-0.3,1.2-0.6,1.6
		c-0.3,0.3-0.5,0.5-0.9,0.8c-0.6,0.4-1.3,0.8-2,1.1c-2,0.9-4.2,1.5-6.3,1.9c-5.6,1.1-11.2,1.5-16.9,1.7c-2.2,0.1-4.3,0.1-6.5,0.1
		c-0.1,0-0.4,0-0.5,0.1c-1,0-2,0-3,0c0-47.6,0-95.1,0-142.8C4.4,5.4,6.8,5,9.4,4.7c2.8-0.3,5.6-0.7,8.4-0.9C20.3,3.5,23,3.3,25.5,3
		c2.8-0.3,5.5-0.5,8.2-0.8c2.9-0.3,5.7-0.5,8.6-0.8c0.5,0,0.9,0,1.4-0.1c0.4,0,0.8,0,1.1,0c0.1,0.3,0.3,0.5,0.4,0.8
		c4.4,11.5,8.8,23.1,13.1,34.6c4.7,12.4,9.4,24.7,14.1,37.1c5.2,13.6,10.4,27.4,15.6,41c0.1,0.1,0.1,0.4,0.3,0.5
		c0-0.3-0.1-0.4-0.1-0.7c-2.9-7.1-5.6-15-8.2-22.7c-1.4-3.9-2.7-7.8-4.2-11.6c-0.3-0.5-0.3-0.9,0-1.5c4.8-12,9.5-24.1,14.2-36.1
		c4.7-11.9,9.4-23.7,14.1-35.5c0.5-1.2,0.3-1.1,1.5-1.1c13.9,0,27.9,0,41.8,0c0.1,0,0.4,0,0.5,0C148.1,6.2,148.4,6.2,148.5,6.3z
		 M116,147c0.3,0,0.4-0.3,0.5-0.4c0.5-0.8,1-1.6,1.5-2.4c2-3.6,3.7-7.3,5.2-11.2c3.7-8.8,6.7-17.9,9.5-27.1
		c2.9-9.6,5.5-19.4,7.6-29.1c1.4-6.7,2.7-13.4,3.8-20c1.1-6.9,2-14,2.7-21.1c0.4-4,0.6-8,1-12.2c0-0.4,0-0.8,0-1.2
		c-0.1,1.2-0.3,2.3-0.3,3.5c-0.4,4.4-0.9,8.7-1.5,13.1c-0.8,5.2-1.5,10.4-2.5,15.6c-2.2,11.8-4.8,23.5-7.9,35
		c-2.7,10.2-5.7,20.3-9,30.3c-2.3,6.8-4.7,13.6-7.5,20.3c-0.9,2.1-1.8,4.3-2.8,6.3C116.3,146.6,116.2,146.8,116,147z"/>
</g>
</svg>
