<svg enable-background="new 0 0 150 150" viewBox="0 0 150 150" xmlns="http://www.w3.org/2000/svg"><path d="m148.5 6.3v141.5c-.4 0-.6 0-1 0-10.4 0-20.7 0-31.1 0-.1 0-.4 0-.5 0-.5 0-.8-.1-.9-.7-.5-1.3-1.1-2.7-1.6-4.1-.3-.7-.4-1.3-.4-2 0-20.8 0-41.7 0-62.5 0-.1 0-.4 0-.5 0-.4.1-.8.3-1.1.8-1.2 1.4-2.5 2.2-3.7 3.8-6.8 7.4-13.8 10.8-20.6 3.2-6.3 6.2-12.6 9.3-18.8 3.6-7.3 7-14.7 10.4-22 .1-.1.1-.3.1-.4-.5.8-.9 1.6-1.4 2.4-3.3 6.4-6.6 12.8-9.9 19.2-2.5 5.1-5.2 10-7.7 15.1-3.3 6.4-6.6 12.8-9.9 19.2-2.8 5.5-5.6 11-8.4 16.3-3.3 6.4-6.6 12.8-9.9 19.2-2.9 5.6-5.7 11.2-8.6 16.8-.5.9-.4.9-1.5.9-8.5 0-17 0-25.4 0-.1 0-.3 0-.5 0-.4 0-.6-.1-.9-.5-.3-.7-.6-1.2-.9-1.9-6-11.4-12-22.7-18-34.2-6.3-11.9-12.6-23.8-18.9-35.8-6.3-11.7-12.5-23.5-18.7-35.2-.4-.8-.8-1.5-1.1-2.3 0 .3.1.5.3.8 2.4 4.9 4.8 9.9 7.2 14.8 3.4 6.9 6.8 13.8 10.4 20.6 2.3 4.5 4.7 9.1 7.1 13.6 2.3 4.4 4.6 8.7 7 13.1.3.5.4 1.1.1 1.6-.5 1.5-1 2.9-1.5 4.4-1.6 4.8-3.4 9.6-5.3 14.4-2.9 7.3-6.2 14.6-9.6 21.6-2.5 5.1-5.1 10-7.9 15-2.8 5.1-5.6 10.2-8.5 15.1-.1.1-.3.3-.3.5.3-.1.3-.3.4-.5 2.8-4 5.3-8.2 7.9-12.3 4.1-6.8 7.9-13.8 11.4-20.8 3.3-6.8 6.2-13.6 8.9-20.7 1.9-5.2 3.6-10.6 4.8-15.9 0-.1 0-.3.1-.4 0-.1 0-.3.3-.3.1 0 .1.1.3.1.3.5.5 1.1.9 1.6.4.7.5 1.2.5 2v61.5.7c0 .7-.3 1.2-.6 1.6-.3.3-.5.5-.9.8-.6.4-1.3.8-2 1.1-2 .9-4.2 1.5-6.3 1.9-5.6 1.1-11.2 1.5-16.9 1.7-2.2.1-4.3.1-6.5.1-.1 0-.4 0-.5.1-1 0-2 0-3 0 0-47.6 0-95.1 0-142.8 2.2-.2 4.6-.6 7.2-.9 2.8-.3 5.6-.7 8.4-.9 2.5-.3 5.2-.5 7.7-.8 2.8-.3 5.5-.5 8.2-.8 2.9-.3 5.7-.5 8.6-.8.5 0 .9 0 1.4-.1h1.1c.1.3.3.5.4.8 4.4 11.5 8.8 23.1 13.1 34.6 4.7 12.4 9.4 24.7 14.1 37.1 5.2 13.6 10.4 27.4 15.6 41 .1.1.1.4.3.5 0-.3-.1-.4-.1-.7-2.9-7.1-5.6-15-8.2-22.7-1.4-3.9-2.7-7.8-4.2-11.6-.3-.5-.3-.9 0-1.5 4.8-12 9.5-24.1 14.2-36.1 4.7-11.9 9.4-23.7 14.1-35.5.5-1.2.3-1.1 1.5-1.1h41.8.5c.2.1.5.1.6.2zm-32.5 140.7c.3 0 .4-.3.5-.4.5-.8 1-1.6 1.5-2.4 2-3.6 3.7-7.3 5.2-11.2 3.7-8.8 6.7-17.9 9.5-27.1 2.9-9.6 5.5-19.4 7.6-29.1 1.4-6.7 2.7-13.4 3.8-20 1.1-6.9 2-14 2.7-21.1.4-4 .6-8 1-12.2 0-.4 0-.8 0-1.2-.1 1.2-.3 2.3-.3 3.5-.4 4.4-.9 8.7-1.5 13.1-.8 5.2-1.5 10.4-2.5 15.6-2.2 11.8-4.8 23.5-7.9 35-2.7 10.2-5.7 20.3-9 30.3-2.3 6.8-4.7 13.6-7.5 20.3-.9 2.1-1.8 4.3-2.8 6.3 0 .2-.1.4-.3.6z" fill="#fff"/></svg>