<?xml version="1.0" encoding="utf-8"?>
<!-- Generator: Adobe Illustrator 21.1.0, SVG Export Plug-In . SVG Version: 6.00 Build 0)  -->
<svg version="1.1" id="Layer_1" xmlns="http://www.w3.org/2000/svg" xmlns:xlink="http://www.w3.org/1999/xlink" x="0px" y="0px"
	 viewBox="0 0 150 150" enable-background="new 0 0 150 150" xml:space="preserve">
<g>
	<path fill="#FFFFFF" d="M149,75.6c-0.2,40.7-33.4,73.6-74.1,73.4c-40.9-0.2-74-33.2-73.8-73.7C1.4,34.4,35,0.8,75.5,1
		C115.9,1.2,149.2,34.9,149,75.6z M75.2,45.6c-13.3,0-26.6,0-39.9,0c-2.2,0-2.7,0.4-3,2.5c-0.3,2.1-0.6,4.2-0.7,6.3
		c-0.2,12.1-0.3,24.2-0.3,36.4c0,3.8,0.4,7.6,0.9,11.4c0.4,3.1,0.8,3.3,3.9,3.3c23.5,0,47.1,0,70.6,0c2.8,0,5.7,0,8.5,0
		c2,0,2.6-0.5,2.9-2.5c0.2-1.3,0.3-2.7,0.4-4c1.1-16.7,0.9-33.4-0.3-50c-0.2-2.7-0.7-3.2-3.5-3.2C101.5,45.6,88.3,45.6,75.2,45.6z
		 M73.8,116.3c-11.4-0.4-24.2-0.8-37.1-1.2c-2.9-0.1-4.1,0.9-3.9,3.8c0.2,2.3,0.6,4.6,1,6.9c0.2,1.6,1.1,2.7,2.4,3.7
		c10.6,7.7,22.4,11.7,35.5,12.3c15.5,0.7,29.6-3.3,42.1-12.4c0.9-0.7,1.9-1.7,2.1-2.7c0.7-2.8,1.2-5.6,1.4-8.4
		c0.1-2.2-1.3-3.2-3.5-3.2C100.9,115.4,88.1,115.8,73.8,116.3z M73.5,34.2c14.6,0.4,27.5,0.8,40.4,1.2c2.4,0.1,3.6-1,3.5-3.5
		c-0.1-1.9-0.4-3.8-0.6-5.7c-0.3-2.6-1.7-4.4-3.8-5.8C100.5,11.9,86.7,8,71.6,8.8C58.5,9.4,46.5,13.5,36,21.4
		c-0.8,0.6-1.6,1.7-1.9,2.6c-0.6,2.5-1,5.1-1.2,7.6c-0.2,3,0.8,3.9,3.8,3.8C49.6,35,62.4,34.6,73.5,34.2z M23.6,63.4
		c0.1,0,0.2,0,0.3,0c0-1.6,0-3.3,0-4.9c0-1.7-0.6-2.4-2.3-2.4c-2.2,0-4.3,0-6.5,0c-2.3,0-3.6,0.8-4.2,3c-0.7,3.2-1.2,6.5-1.7,9.8
		c-0.2,1.2,0.5,1.9,1.7,1.9c3.5,0,7,0,10.6,0c1.3,0,2-0.7,2-2.1C23.6,66.9,23.6,65.1,23.6,63.4z M23.9,87.7c-0.1,0-0.2,0-0.3,0
		c0-1.8,0-3.6,0-5.4c0-1.3-0.7-2-1.9-2c-3.6,0-7.2,0-10.7,0c-1,0-1.8,0.6-1.6,1.6c0.5,3.5,1,7,1.8,10.5c0.4,1.7,1.8,2.6,3.8,2.6
		c2.2-0.1,4.3,0,6.5,0c1.9,0,2.5-0.6,2.5-2.5C23.9,90.9,23.9,89.3,23.9,87.7z M126.3,87.6C126.2,87.6,126.2,87.6,126.3,87.6
		c-0.1,1.7-0.1,3.4-0.1,5.1c0,1.6,0.7,2.4,2.3,2.4c2.2,0,4.3,0,6.5,0c2.2,0,3.6-0.8,4.1-2.9c0.7-3.3,1.2-6.7,1.7-10
		c0.2-1.1-0.4-1.8-1.6-1.8c-3.6,0-7.2,0-10.7,0c-1.2,0-1.9,0.6-1.9,2C126.5,84.1,126.3,85.8,126.3,87.6z M126.2,63.4
		C126.2,63.4,126.2,63.4,126.2,63.4c0.2,1.8,0.3,3.5,0.3,5.3c0,1.4,0.7,2.1,2,2.1c3.5,0,7,0,10.6,0c1.1,0,1.9-0.5,1.7-1.7
		c-0.5-3.4-1-6.8-1.7-10.2c-0.5-2-1.9-2.8-3.9-2.8c-2.2,0-4.5,0-6.7,0c-1.5,0-2.3,0.7-2.2,2.3C126.2,60,126.2,61.7,126.2,63.4z
		 M124.6,118.4c0.2,0.1,0.5,0.1,0.7,0.2c1.7-2.2,3.5-4.3,5-6.7c1.1-1.6,2-3.5,2.7-5.3c0.7-1.9-0.1-2.9-2.1-2.9c-0.9,0-1.8,0-2.6,0
		c-2.1,0-2.8,0.5-3,2.6c-0.3,3.4-0.6,6.9-0.9,10.3C124.3,117.1,124.5,117.8,124.6,118.4z M25.5,118.6c0.1-0.9,0.3-1.5,0.3-2.1
		c-0.2-2.7-0.5-5.5-0.8-8.2c-0.5-5.7-1.2-4.5-5.3-4.6c-2.6,0-3.3,1-2.4,3.5c1.5,4.2,4.6,7.4,7.3,10.9
		C24.7,118.3,24.9,118.3,25.5,118.6z M124.5,31.7c-0.1,0.9-0.2,1.6-0.1,2.4c0.2,2.6,0.5,5.2,0.7,7.8c0.4,4.6,0.5,4.6,5.1,4.6
		c2.9,0,3.5-0.9,2.5-3.7c-1.5-4.1-4.5-7.2-7.1-10.6C125.5,32,125.1,32,124.5,31.7z M25.5,31.4c-0.8,0.7-1.2,0.9-1.5,1.2
		c-1.6,2.1-3.3,4.2-4.8,6.5c-0.9,1.3-1.6,2.9-2.1,4.4c-0.7,2,0.1,3,2.2,3c0.9,0,1.9,0,2.8,0c1.9,0,2.5-0.6,2.7-2.5
		c0.3-3.4,0.7-6.7,0.9-10.1C25.8,33.3,25.6,32.6,25.5,31.4z"/>
</g>
</svg>
