<svg enable-background="new 0 0 150 150" viewBox="0 0 150 150" xmlns="http://www.w3.org/2000/svg"><path d="m149 75.6c-.2 40.7-33.4 73.6-74.1 73.4-40.9-.2-74-33.2-73.8-73.7.3-40.9 33.9-74.5 74.4-74.3 40.4.2 73.7 33.9 73.5 74.6zm-73.8-30c-13.3 0-26.6 0-39.9 0-2.2 0-2.7.4-3 2.5s-.6 4.2-.7 6.3c-.2 12.1-.3 24.2-.3 36.4 0 3.8.4 7.6.9 11.4.4 3.1.8 3.3 3.9 3.3h70.6 8.5c2 0 2.6-.5 2.9-2.5.2-1.3.3-2.7.4-4 1.1-16.7.9-33.4-.3-50-.2-2.7-.7-3.2-3.5-3.2-13.2-.2-26.4-.2-39.5-.2zm-1.4 70.7c-11.4-.4-24.2-.8-37.1-1.2-2.9-.1-4.1.9-3.9 3.8.2 2.3.6 4.6 1 6.9.2 1.6 1.1 2.7 2.4 3.7 10.6 7.7 22.4 11.7 35.5 12.3 15.5.7 29.6-3.3 42.1-12.4.9-.7 1.9-1.7 2.1-2.7.7-2.8 1.2-5.6 1.4-8.4.1-2.2-1.3-3.2-3.5-3.2-12.9.3-25.7.7-40 1.2zm-.3-82.1c14.6.4 27.5.8 40.4 1.2 2.4.1 3.6-1 3.5-3.5-.1-1.9-.4-3.8-.6-5.7-.3-2.6-1.7-4.4-3.8-5.8-12.5-8.5-26.3-12.4-41.4-11.6-13.1.6-25.1 4.7-35.6 12.6-.8.6-1.6 1.7-1.9 2.6-.6 2.5-1 5.1-1.2 7.6-.2 3 .8 3.9 3.8 3.8 12.9-.4 25.7-.8 36.8-1.2zm-49.9 29.2h.3c0-1.6 0-3.3 0-4.9 0-1.7-.6-2.4-2.3-2.4-2.2 0-4.3 0-6.5 0-2.3 0-3.6.8-4.2 3-.7 3.2-1.2 6.5-1.7 9.8-.2 1.2.5 1.9 1.7 1.9h10.6c1.3 0 2-.7 2-2.1.1-1.8.1-3.6.1-5.3zm.3 24.3c-.1 0-.2 0-.3 0 0-1.8 0-3.6 0-5.4 0-1.3-.7-2-1.9-2-3.6 0-7.2 0-10.7 0-1 0-1.8.6-1.6 1.6.5 3.5 1 7 1.8 10.5.4 1.7 1.8 2.6 3.8 2.6 2.2-.1 4.3 0 6.5 0 1.9 0 2.5-.6 2.5-2.5-.1-1.6-.1-3.2-.1-4.8zm102.4-.1c-.1 0-.1 0 0 0-.1 1.7-.1 3.4-.1 5.1 0 1.6.7 2.4 2.3 2.4h6.5c2.2 0 3.6-.8 4.1-2.9.7-3.3 1.2-6.7 1.7-10 .2-1.1-.4-1.8-1.6-1.8-3.6 0-7.2 0-10.7 0-1.2 0-1.9.6-1.9 2-.1 1.7-.3 3.4-.3 5.2zm-.1-24.2c.2 1.8.3 3.5.3 5.3 0 1.4.7 2.1 2 2.1h10.6c1.1 0 1.9-.5 1.7-1.7-.5-3.4-1-6.8-1.7-10.2-.5-2-1.9-2.8-3.9-2.8-2.2 0-4.5 0-6.7 0-1.5 0-2.3.7-2.2 2.3-.1 1.6-.1 3.3-.1 5zm-1.6 55c.2.1.5.1.7.2 1.7-2.2 3.5-4.3 5-6.7 1.1-1.6 2-3.5 2.7-5.3.7-1.9-.1-2.9-2.1-2.9-.9 0-1.8 0-2.6 0-2.1 0-2.8.5-3 2.6-.3 3.4-.6 6.9-.9 10.3-.1.5.1 1.2.2 1.8zm-99.1.2c.1-.9.3-1.5.3-2.1-.2-2.7-.5-5.5-.8-8.2-.5-5.7-1.2-4.5-5.3-4.6-2.6 0-3.3 1-2.4 3.5 1.5 4.2 4.6 7.4 7.3 10.9.1.2.3.2.9.5zm99-86.9c-.1.9-.2 1.6-.1 2.4.2 2.6.5 5.2.7 7.8.4 4.6.5 4.6 5.1 4.6 2.9 0 3.5-.9 2.5-3.7-1.5-4.1-4.5-7.2-7.1-10.6-.1-.2-.5-.2-1.1-.5zm-99-.3c-.8.7-1.2.9-1.5 1.2-1.6 2.1-3.3 4.2-4.8 6.5-.9 1.3-1.6 2.9-2.1 4.4-.7 2 .1 3 2.2 3h2.8c1.9 0 2.5-.6 2.7-2.5.3-3.4.7-6.7.9-10.1.1-.6-.1-1.3-.2-2.5z" fill="#fff"/></svg>