<svg enable-background="new 0 0 2500 2438" viewBox="0 0 2500 2438" xmlns="http://www.w3.org/2000/svg"><path d="m104.2 104.4h2291.7v2229.2h-2291.7zm-104.2 2333.4h2500v-2437.6h-2500zm1500-1408.4c0-12.5 0-42.7-5.2-101 0-8.3 1-10.4 8.3-13.5 63.5-26 212.5-71.9 381.2-71.9 8.3 0 12.5 2.1 12.5 10.4v151c0 8.3-3.1 10.4-11.5 10.4-65.6-3.1-160.4 5.2-196.9 20.8v656.3c0 8.3-3.1 12.5-12.5 12.5h-163.5c-8.3 0-12.5-3.1-12.5-12.5zm-666.7 94.8c24 2.1 42.7 2.1 84.4 2.1 121.9 0 236.5-42.7 236.5-208.3 0-132.3-81.3-199-220.8-199-41.7 0-81.2 2.1-100 3.1zm-184.3-553.1c0-7.3 2.1-12.5 10.4-12.5 66.7-3.1 164.6-5.2 267.7-5.2 288.5 0 414.6 158.3 414.6 361.5 0 264.6-191.7 378.1-427.1 378.1-39.6 0-53.1-2.1-81.3-2.1v400c0 8.3-3.1 12.5-12.5 12.5h-160.4c-8.3 0-12.5-3.1-12.5-12.5v-1119.8z" fill="#fff"/></svg>