<svg enable-background="new 0 0 150 150" viewBox="0 0 150 150" xmlns="http://www.w3.org/2000/svg"><g fill="#fff"><path d="m115.9 61.6c-8.2-14.3-17.6-30.6-40.9-30.6s-32.7 16.3-40.9 30.6c-7.4 12.9-15.1 26.1-33.4 35.1l10.9 22.3c25.1-12.3 36-31.2 43.9-45 8.4-14.5 11.4-18.2 19.5-18.2s11.1 3.7 19.5 18.2c8 13.8 18.8 32.6 43.9 45l10.9-22.3c-18.3-9-26-22.2-33.4-35.1z"/><path d="m75 148.3c-40.4 0-73.3-32.9-73.3-73.3s32.9-73.3 73.3-73.3 73.3 32.9 73.3 73.3-32.9 73.3-73.3 73.3zm0-138.8c-36.1 0-65.5 29.4-65.5 65.5s29.4 65.5 65.5 65.5 65.5-29.4 65.5-65.5-29.4-65.5-65.5-65.5z"/></g></svg>